0
SECTION
2
HEADER
9
$INSUNITS
70
1
0
ENDSEC
0
SECTION
2
TABLES
0
TABLE
2
LAYER
0
ENDTAB
0
ENDSEC
0
SECTION
2
ENTITIES
0
LINE
8
front_outsideCutPath
10
0
20
173
11
0
21
161.125
0
LINE
8
front_outsideCutPath
10
0
20
161.125
11
5
21
161.125
0
LINE
8
front_outsideCutPath
10
5
20
161.125
11
5
21
144.875
0
LINE
8
front_outsideCutPath
10
5
20
144.875
11
0
21
144.875
0
LINE
8
front_outsideCutPath
10
0
20
144.875
11
0
21
128.625
0
LINE
8
front_outsideCutPath
10
0
20
128.625
11
5
21
128.625
0
LINE
8
front_outsideCutPath
10
5
20
128.625
11
5
21
112.375
0
LINE
8
front_outsideCutPath
10
5
20
112.375
11
0
21
112.375
0
LINE
8
front_outsideCutPath
10
0
20
112.375
11
0
21
96.125
0
LINE
8
front_outsideCutPath
10
0
20
96.125
11
5
21
96.125
0
LINE
8
front_outsideCutPath
10
5
20
96.125
11
5
21
79.875
0
LINE
8
front_outsideCutPath
10
5
20
79.875
11
0
21
79.875
0
LINE
8
front_outsideCutPath
10
0
20
79.875
11
0
21
63.625
0
LINE
8
front_outsideCutPath
10
0
20
63.625
11
5
21
63.625
0
LINE
8
front_outsideCutPath
10
5
20
63.625
11
5
21
47.375
0
LINE
8
front_outsideCutPath
10
5
20
47.375
11
0
21
47.375
0
LINE
8
front_outsideCutPath
10
0
20
47.375
11
0
21
31.125
0
LINE
8
front_outsideCutPath
10
0
20
31.125
11
5
21
31.125
0
LINE
8
front_outsideCutPath
10
5
20
31.125
11
5
21
14.875
0
LINE
8
front_outsideCutPath
10
5
20
14.875
11
0
21
14.875
0
LINE
8
front_outsideCutPath
10
0
20
14.875
11
0
21
3
0
LINE
8
front_outsideCutPath
10
0
20
3
11
24.375
21
3
0
LINE
8
front_outsideCutPath
10
24.375
20
3
11
24.375
21
8
0
LINE
8
front_outsideCutPath
10
24.375
20
8
11
40.625
21
8
0
LINE
8
front_outsideCutPath
10
40.625
20
8
11
40.625
21
3
0
LINE
8
front_outsideCutPath
10
40.625
20
3
11
56.875
21
3
0
LINE
8
front_outsideCutPath
10
56.875
20
3
11
56.875
21
8
0
LINE
8
front_outsideCutPath
10
56.875
20
8
11
73.125
21
8
0
LINE
8
front_outsideCutPath
10
73.125
20
8
11
73.125
21
3
0
LINE
8
front_outsideCutPath
10
73.125
20
3
11
89.375
21
3
0
LINE
8
front_outsideCutPath
10
89.375
20
3
11
89.375
21
8
0
LINE
8
front_outsideCutPath
10
89.375
20
8
11
105.625
21
8
0
LINE
8
front_outsideCutPath
10
105.625
20
8
11
105.625
21
3
0
LINE
8
front_outsideCutPath
10
105.625
20
3
11
121.875
21
3
0
LINE
8
front_outsideCutPath
10
121.875
20
3
11
130
21
3
0
LINE
8
front_outsideCutPath
10
130
20
3
11
130
21
14.875
0
LINE
8
front_outsideCutPath
10
130
20
14.875
11
125
21
14.875
0
LINE
8
front_outsideCutPath
10
125
20
14.875
11
125
21
31.125
0
LINE
8
front_outsideCutPath
10
125
20
31.125
11
130
21
31.125
0
LINE
8
front_outsideCutPath
10
130
20
31.125
11
130
21
47.375
0
LINE
8
front_outsideCutPath
10
130
20
47.375
11
125
21
47.375
0
LINE
8
front_outsideCutPath
10
125
20
47.375
11
125
21
63.625
0
LINE
8
front_outsideCutPath
10
125
20
63.625
11
130
21
63.625
0
LINE
8
front_outsideCutPath
10
130
20
63.625
11
130
21
79.875
0
LINE
8
front_outsideCutPath
10
130
20
79.875
11
125
21
79.875
0
LINE
8
front_outsideCutPath
10
125
20
79.875
11
125
21
96.125
0
LINE
8
front_outsideCutPath
10
125
20
96.125
11
130
21
96.125
0
LINE
8
front_outsideCutPath
10
130
20
96.125
11
130
21
112.375
0
LINE
8
front_outsideCutPath
10
130
20
112.375
11
125
21
112.375
0
LINE
8
front_outsideCutPath
10
125
20
112.375
11
125
21
128.625
0
LINE
8
front_outsideCutPath
10
125
20
128.625
11
130
21
128.625
0
LINE
8
front_outsideCutPath
10
130
20
128.625
11
130
21
144.875
0
LINE
8
front_outsideCutPath
10
130
20
144.875
11
125
21
144.875
0
LINE
8
front_outsideCutPath
10
125
20
144.875
11
125
21
161.125
0
LINE
8
front_outsideCutPath
10
125
20
161.125
11
130
21
161.125
0
LINE
8
front_outsideCutPath
10
130
20
161.125
11
130
21
173
0
LINE
8
front_outsideCutPath
10
130
20
173
11
0
21
173
0
LINE
8
front_labelLayer
10
43.4624023
20
92.0945135
11
43.4624023
21
90.4568182
0
LINE
8
front_labelLayer
10
43.4624023
20
90.4568182
11
39.9204101
21
90.4568182
0
LINE
8
front_labelLayer
10
39.9204101
20
90.4568182
11
39.9204101
21
78.180451
0
LINE
8
front_labelLayer
10
39.9204101
20
78.180451
11
37.8129882
21
78.180451
0
LINE
8
front_labelLayer
10
37.8129882
20
78.180451
11
37.8129882
21
90.4568182
0
LINE
8
front_labelLayer
10
37.8129882
20
90.4568182
11
35.324707
21
90.4568182
0
LINE
8
front_labelLayer
10
35.324707
20
90.4568182
11
35.324707
21
91.4089666
0
LINE
8
front_labelLayer
10
35.324707
20
91.4089666
11
37.8129882
21
92.1706854
0
LINE
8
front_labelLayer
10
37.8129882
20
92.1706854
11
37.8129882
21
92.9450994
0
LINE
8
front_labelLayer
10
44.8842773
20
97.6296697
11
44.3383789
21
95.9411932
0
LINE
8
front_labelLayer
10
39.9204101
20
92.9958807
11
39.9204101
21
92.0945135
0
LINE
8
front_labelLayer
10
39.9204101
20
92.0945135
11
43.4624023
21
92.0945135
0
ARC
8
front_labelLayer
10
46.3536297
20
93.0432879
40
8.5412058
50
167.5775982
51
180.6586786
0
ARC
8
front_labelLayer
10
42.3372745
20
93.9796694
40
4.4177372
50
141.7433783
51
168.232211
0
ARC
8
front_labelLayer
10
41.6833317
20
94.3209789
40
3.6954347
50
98.2551476
51
139.6203341
0
ARC
8
front_labelLayer
10
42.2575054
20
91.668523
40
6.4055892
50
89.6696883
51
99.931442
0
ARC
8
front_labelLayer
10
42.2591071
20
91.2877163
40
6.7863813
50
81.5640872
51
89.7017462
0
ARC
8
front_labelLayer
10
41.7820015
20
87.9591844
40
10.1489064
50
75.9739972
51
81.6564606
0
ARC
8
front_labelLayer
10
40.9632225
20
84.5631026
40
13.6422084
50
73.2963926
51
76.0945936
0
ARC
8
front_labelLayer
10
41.1694621
20
86.2106193
40
10.2335772
50
71.9613332
51
76.5918286
0
ARC
8
front_labelLayer
10
41.963391
20
89.5785365
40
6.773364
50
76.5183508
51
83.0216721
0
ARC
8
front_labelLayer
10
42.2399491
20
91.8025458
40
4.5322316
50
83.0761057
51
89.7926917
0
ARC
8
front_labelLayer
10
42.2308481
20
93.4927752
40
2.8420871
50
89.485928
51
103.4197553
0
ARC
8
front_labelLayer
10
41.9746134
20
94.4772006
40
1.8251911
50
102.7677448
51
144.338027
0
ARC
8
front_labelLayer
10
42.4908176
20
94.1450699
40
2.4384231
50
145.0688451
51
162.1801734
0
ARC
8
front_labelLayer
10
44.2607052
20
93.5495889
40
4.3057038
50
161.843739
51
171.7846971
0
ARC
8
front_labelLayer
10
47.1474294
20
93.1160106
40
7.2247792
50
171.6527702
51
178.4383573
0
ARC
8
front_labelLayer
10
49.870093
20
92.9999106
40
9.9496836
50
178.1973166
51
180.0232062
0
LINE
8
front_labelLayer
10
54.012207
20
92.196076
11
53.7202148
21
90.2409979
0
LINE
8
front_labelLayer
10
48.1088867
20
85.6452947
11
48.1088867
21
78.180451
0
LINE
8
front_labelLayer
10
48.1088867
20
78.180451
11
46.0014648
21
78.180451
0
LINE
8
front_labelLayer
10
46.0014648
20
78.180451
11
46.0014648
21
92.0945135
0
LINE
8
front_labelLayer
10
46.0014648
20
92.0945135
11
47.7407226
21
92.0945135
0
LINE
8
front_labelLayer
10
47.7407226
20
92.0945135
11
47.9819336
21
89.5173651
0
LINE
8
front_labelLayer
10
47.9819336
20
89.5173651
11
48.0834961
21
89.5173651
0
ARC
8
front_labelLayer
10
52.3707542
20
82.6736336
40
9.6748103
50
84.9922864
51
90.1281148
0
ARC
8
front_labelLayer
10
52.6030986
20
85.2767794
40
7.0613207
50
78.4891738
51
85.0266035
0
ARC
8
front_labelLayer
10
51.7012868
20
81.1751099
40
9.2879704
50
77.4453812
51
81.6360366
0
ARC
8
front_labelLayer
10
52.105953
20
83.9644521
40
6.4694348
50
81.588409
51
87.1916633
0
ARC
8
front_labelLayer
10
52.1938426
20
85.4885151
40
4.9429133
50
87.3436557
51
89.965982
0
ARC
8
front_labelLayer
10
52.1734223
20
86.7799641
40
3.6515382
50
89.6335376
51
137.0880806
0
ARC
8
front_labelLayer
10
53.06959
20
85.7721999
40
4.9956899
50
135.6209015
51
138.8377059
0
ARC
8
front_labelLayer
10
52.9382626
20
85.9003894
40
4.8124572
50
138.9575767
51
174.5422223
0
ARC
8
front_labelLayer
10
54.5055821
20
85.6551484
40
6.3967032
50
173.6907489
51
180.0882603
0
ARC
8
front_labelLayer
10
54.2839832
20
86.0240384
40
7.1168372
50
139.4139351
51
150.6032849
0
ARC
8
front_labelLayer
10
53.00793
20
87.1174811
40
5.4363823
50
124.2321557
51
139.4161048
0
ARC
8
front_labelLayer
10
52.3256331
20
88.1474029
40
4.2010824
50
89.6796623
51
124.4405594
0
ARC
8
front_labelLayer
10
57.7390645
20
85.0767914
40
10.8856946
50
349.1761893
51
0.386264
0
ARC
8
front_labelLayer
10
61.4040243
20
84.3461731
40
7.1487949
50
330.2506994
51
349.4116554
0
ARC
8
front_labelLayer
10
62.531899
20
83.7599497
40
5.8788997
50
318.143983
51
329.7566094
0
ARC
8
front_labelLayer
10
62.7354756
20
83.5968034
40
5.618428
50
278.8959152
51
317.9979145
0
ARC
8
front_labelLayer
10
62.2109584
20
86.1098171
40
8.18335
50
269.7502874
51
279.8033165
0
ARC
8
front_labelLayer
10
62.1258914
20
84.6938832
40
6.7675188
50
253.5436889
51
270.4182512
0
ARC
8
front_labelLayer
10
61.9006167
20
83.8224628
40
5.8680593
50
238.8115609
51
253.2428286
0
ARC
8
front_labelLayer
10
61.8279112
20
83.6762502
40
5.7053441
50
207.7947073
51
238.6757913
0
ARC
8
front_labelLayer
10
62.8710465
20
84.3151349
40
6.9264895
50
205.6560047
51
208.4461702
0
ARC
8
front_labelLayer
10
63.6747423
20
84.650017
40
7.796078
50
188.9102467
51
205.3171423
0
ARC
8
front_labelLayer
10
66.3828249
20
85.1086783
40
10.5425745
50
179.7744631
51
189.0932836
0
ARC
8
front_labelLayer
10
66.782314
20
85.2242911
40
10.942233
50
169.2442985
51
180.3880768
0
ARC
8
front_labelLayer
10
63.0664124
20
85.9587902
40
7.1545947
50
150.711143
51
169.4695473
0
ARC
8
front_labelLayer
10
61.880193
20
86.5679567
40
5.8222106
50
138.1759512
51
150.2287319
0
ARC
8
front_labelLayer
10
61.6828663
20
86.7193821
40
5.5742178
50
99.1759363
51
137.9832791
0
ARC
8
front_labelLayer
10
62.2259646
20
84.1634991
40
8.1850096
50
89.7326268
51
100.0759781
0
ARC
8
front_labelLayer
10
62.3345116
20
85.267295
40
7.0814742
50
73.5222731
51
90.5692188
0
ARC
8
front_labelLayer
10
62.749799
20
86.7761425
40
5.516882
50
41.1445698
51
73.213387
0
ARC
8
front_labelLayer
10
61.9570495
20
86.094786
40
6.562175
50
13.5014383
51
41.07034
0
ARC
8
front_labelLayer
10
58.8942766
20
85.2932999
40
9.7276404
50
1.1277174
51
13.8799991
0
ARC
8
front_labelLayer
10
56.2563155
20
85.1519333
40
12.3681962
50
359.9918664
51
1.5419655
0
ARC
8
front_labelLayer
10
68.6957267
20
85.095409
40
10.6719414
50
179.7059558
51
187.9160726
0
ARC
8
front_labelLayer
10
64.7816003
20
84.5331505
40
6.7177012
50
187.7639323
51
200.0976778
0
ARC
8
front_labelLayer
10
62.6253052
20
83.7430821
40
4.4212224
50
200.0845883
51
216.9131772
0
ARC
8
front_labelLayer
10
61.8379113
20
83.1808448
40
3.4540615
50
217.300959
51
261.7099104
0
ARC
8
front_labelLayer
10
62.2034487
20
84.9251463
40
5.2340021
50
260.5033091
51
270.2476787
0
ARC
8
front_labelLayer
10
62.2732197
20
84.5859576
40
4.8949914
50
269.4481542
51
284.7255863
0
ARC
8
front_labelLayer
10
62.6607266
20
83.1488241
40
3.4065745
50
284.5662368
51
322.6333762
0
ARC
8
front_labelLayer
10
61.7547124
20
83.8033783
40
4.5240004
50
323.0089275
51
342.6390475
0
ARC
8
front_labelLayer
10
59.1633049
20
84.6503234
40
7.2501589
50
342.3615795
51
353.7537466
0
ARC
8
front_labelLayer
10
55.3401632
20
85.1111537
40
11.1008234
50
353.5362984
51
0.201418
0
ARC
8
front_labelLayer
10
55.925898
20
85.203845
40
10.5151569
50
359.7075717
51
7.8972668
0
ARC
8
front_labelLayer
10
59.7768466
20
85.7559125
40
6.6249017
50
7.7439987
51
20.0690177
0
ARC
8
front_labelLayer
10
61.9227514
20
86.5433799
40
4.3390769
50
20.0256905
51
37.4350624
0
ARC
8
front_labelLayer
10
62.634737
20
87.0485952
40
3.4667729
50
37.9577622
51
80.4006231
0
ARC
8
front_labelLayer
10
62.2301362
20
85.2433038
40
5.3151583
50
79.3453538
51
90.3174924
0
ARC
8
front_labelLayer
10
62.1552186
20
85.5431625
40
5.0154242
50
89.4806052
51
103.8804992
0
ARC
8
front_labelLayer
10
61.7337932
20
87.1479512
40
3.3564862
50
103.4685247
51
142.3118859
0
ARC
8
front_labelLayer
10
62.553079
20
86.5717719
40
4.3573145
50
142.9025804
51
162.3749538
0
ARC
8
front_labelLayer
10
65.1346373
20
85.7114738
40
7.0782803
50
162.0653081
51
173.1674828
0
ARC
8
front_labelLayer
10
69.1599643
20
85.1980668
40
11.1361415
50
173.0086155
51
180.2463924
0
LINE
8
front_labelLayer
10
83.9477539
20
78.180451
11
81.840332
21
78.180451
0
LINE
8
front_labelLayer
10
81.840332
20
78.180451
11
81.840332
21
87.1814276
0
LINE
8
front_labelLayer
10
74.4262695
20
85.4802557
11
74.4262695
21
78.180451
0
LINE
8
front_labelLayer
10
74.4262695
20
78.180451
11
72.3188476
21
78.180451
0
LINE
8
front_labelLayer
10
72.3188476
20
78.180451
11
72.3188476
21
92.0945135
0
LINE
8
front_labelLayer
10
72.3188476
20
92.0945135
11
74.0327148
21
92.0945135
0
LINE
8
front_labelLayer
10
74.0327148
20
92.0945135
11
74.3754882
21
90.1902166
0
LINE
8
front_labelLayer
10
74.3754882
20
90.1902166
11
74.4770507
21
90.1902166
0
LINE
8
front_labelLayer
10
83.9477539
20
87.2575994
11
83.9477539
21
78.180451
0
ARC
8
front_labelLayer
10
75.8832821
20
87.2155914
40
5.9571479
50
359.6714105
51
8.6877285
0
ARC
8
front_labelLayer
10
78.0911648
20
87.5657468
40
3.7217287
50
8.4931506
51
22.6579876
0
ARC
8
front_labelLayer
10
79.2129301
20
88.0319179
40
2.5069583
50
22.7024333
51
42.3419728
0
ARC
8
front_labelLayer
10
79.3390189
20
88.0886356
40
2.3759481
50
43.3791009
51
71.5386026
0
ARC
8
front_labelLayer
10
78.8674991
20
86.7710817
40
3.7751307
50
71.0828285
51
84.3690918
0
ARC
8
front_labelLayer
10
78.6558433
20
84.9714972
40
5.5869028
50
84.0197945
51
90.1510623
0
ARC
8
front_labelLayer
10
78.5958406
20
84.1803479
40
6.3781934
50
89.5933092
51
100.3717934
0
ARC
8
front_labelLayer
10
78.1450981
20
86.5452409
40
3.970832
50
100.1176342
51
118.1602525
0
ARC
8
front_labelLayer
10
77.690865
20
87.4359557
40
2.9712462
50
118.5439434
51
139.1926776
0
ARC
8
front_labelLayer
10
78.0869332
20
87.1701899
40
3.4452001
50
140.1519134
51
160.3146316
0
ARC
8
front_labelLayer
10
80.4786395
20
86.2743581
40
5.9990113
50
159.9534293
51
171.380117
0
ARC
8
front_labelLayer
10
84.385583
20
85.6463327
40
9.9560139
50
171.1765957
51
178.3217582
0
ARC
8
front_labelLayer
10
87.927151
20
85.4858243
40
13.5008828
50
178.0810507
51
180.0236323
0
ARC
8
front_labelLayer
10
78.082118
20
87.9070079
40
4.2672652
50
116.9442966
51
147.6525622
0
ARC
8
front_labelLayer
10
78.5264612
20
87.1637588
40
5.1315182
50
115.8072484
51
117.6066978
0
ARC
8
front_labelLayer
10
78.7533574
20
86.6346534
40
5.7066903
50
94.3226726
51
115.5454323
0
ARC
8
front_labelLayer
10
78.8899493
20
85.4479011
40
6.9005205
50
89.9579019
51
94.7108784
0
ARC
8
front_labelLayer
10
78.9464019
20
84.0281243
40
8.3204541
50
80.5585297
51
90.3538284
0
ARC
8
front_labelLayer
10
79.4663809
20
87.0400287
40
5.2640864
50
65.1094132
51
80.7638334
0
ARC
8
front_labelLayer
10
80.0742044
20
88.3863412
40
3.7870345
50
46.5584623
51
64.8782286
0
ARC
8
front_labelLayer
10
80.122855
20
88.5265883
40
3.6522628
50
19.3848746
51
45.5997108
0
ARC
8
front_labelLayer
10
78.0099036
20
87.7337725
40
5.9087604
50
6.9633579
51
19.8363319
0
ARC
8
front_labelLayer
10
74.7510393
20
87.2956156
40
9.1967931
50
359.7631593
51
7.2115483
0
LINE
8
front_labelLayer
10
94.6752929
20
79.9197088
11
94.6752929
21
78.3074041
0
LINE
8
front_labelLayer
10
88.4291992
20
82.1794744
11
88.4291992
21
90.4568182
0
LINE
8
front_labelLayer
10
88.4291992
20
90.4568182
11
86.4360351
21
90.4568182
0
LINE
8
front_labelLayer
10
86.4360351
20
90.4568182
11
86.4360351
21
91.4724432
0
LINE
8
front_labelLayer
10
86.4360351
20
91.4724432
11
88.4291992
21
92.3484197
0
LINE
8
front_labelLayer
10
88.4291992
20
92.3484197
11
89.3178711
21
95.3191229
0
LINE
8
front_labelLayer
10
89.3178711
20
95.3191229
11
90.5366211
21
95.3191229
0
LINE
8
front_labelLayer
10
90.5366211
20
95.3191229
11
90.5366211
21
92.0945135
0
LINE
8
front_labelLayer
10
90.5366211
20
92.0945135
11
94.5737304
21
92.0945135
0
LINE
8
front_labelLayer
10
94.5737304
20
92.0945135
11
94.5737304
21
90.4568182
0
LINE
8
front_labelLayer
10
94.5737304
20
90.4568182
11
90.5366211
21
90.4568182
0
LINE
8
front_labelLayer
10
90.5366211
20
90.4568182
11
90.5366211
21
82.2683416
0
ARC
8
front_labelLayer
10
92.7854472
20
86.586867
40
6.9210795
50
269.880367
51
278.3028229
0
ARC
8
front_labelLayer
10
92.8503599
20
86.0548934
40
6.3853204
50
278.4157691
51
279.0077542
0
ARC
8
front_labelLayer
10
92.074617
20
91.0103655
40
11.4011383
50
278.9590415
51
280.5103724
0
ARC
8
front_labelLayer
10
92.8148233
20
87.0386432
40
7.361031
50
280.4847552
51
282.62677
0
ARC
8
front_labelLayer
10
93.463861
20
84.1551026
40
4.4053514
50
282.5877402
51
285.5794118
0
ARC
8
front_labelLayer
10
93.788801
20
82.9599582
40
3.1668573
50
285.7238411
51
286.2559062
0
ARC
8
front_labelLayer
10
93.7892869
20
80.1813528
40
2.072846
50
287.9887727
51
295.3048609
0
ARC
8
front_labelLayer
10
93.2893126
20
81.6940013
40
3.6659687
50
283.3069487
51
288.1197753
0
ARC
8
front_labelLayer
10
92.7611385
20
83.8972013
40
5.9315875
50
280.0070288
51
283.3734779
0
ARC
8
front_labelLayer
10
92.4077927
20
85.8147679
40
7.8813955
50
279.1862726
51
280.114305
0
ARC
8
front_labelLayer
10
92.1908667
20
87.0486181
40
9.1340682
50
275.5260238
51
279.2939522
0
ARC
8
front_labelLayer
10
92.4352981
20
84.4954968
40
6.5692747
50
270.8932713
51
275.5483925
0
ARC
8
front_labelLayer
10
92.4659964
20
83.3314449
40
5.4049001
50
270.0033087
51
270.7602627
0
ARC
8
front_labelLayer
10
92.3812682
20
83.4301666
40
5.5042788
50
253.7847934
51
270.8852477
0
ARC
8
front_labelLayer
10
91.729157
20
81.2062204
40
3.1867069
50
190.3817659
51
253.8772437
0
ARC
8
front_labelLayer
10
95.052946
20
82.1049154
40
6.6241665
50
179.3550876
51
192.8477689
0
ARC
8
front_labelLayer
10
94.7801742
20
82.2417997
40
4.2436361
50
179.6416403
51
189.7506042
0
ARC
8
front_labelLayer
10
93.282101
20
81.9745997
40
2.7219677
50
189.547969
51
205.7873533
0
ARC
8
front_labelLayer
10
92.6664468
20
81.6907029
40
2.0441558
50
206.1294408
51
221.4083838
0
ARC
8
front_labelLayer
10
92.5974138
20
81.6383222
40
1.9577447
50
221.5949173
51
262.3505235
0
ARC
8
front_labelLayer
10
92.7615896
20
82.4825647
40
2.8167778
50
261.3265944
51
270.1913367
0
LINE
8
left_outsideCutPath
10
138
20
173
11
138
21
161.125
0
LINE
8
left_outsideCutPath
10
138
20
161.125
11
133
21
161.125
0
LINE
8
left_outsideCutPath
10
133
20
161.125
11
133
21
144.875
0
LINE
8
left_outsideCutPath
10
133
20
144.875
11
138
21
144.875
0
LINE
8
left_outsideCutPath
10
138
20
144.875
11
138
21
128.625
0
LINE
8
left_outsideCutPath
10
138
20
128.625
11
133
21
128.625
0
LINE
8
left_outsideCutPath
10
133
20
128.625
11
133
21
112.375
0
LINE
8
left_outsideCutPath
10
133
20
112.375
11
138
21
112.375
0
LINE
8
left_outsideCutPath
10
138
20
112.375
11
138
21
96.125
0
LINE
8
left_outsideCutPath
10
138
20
96.125
11
133
21
96.125
0
LINE
8
left_outsideCutPath
10
133
20
96.125
11
133
21
79.875
0
LINE
8
left_outsideCutPath
10
133
20
79.875
11
138
21
79.875
0
LINE
8
left_outsideCutPath
10
138
20
79.875
11
138
21
63.625
0
LINE
8
left_outsideCutPath
10
138
20
63.625
11
133
21
63.625
0
LINE
8
left_outsideCutPath
10
133
20
63.625
11
133
21
47.375
0
LINE
8
left_outsideCutPath
10
133
20
47.375
11
138
21
47.375
0
LINE
8
left_outsideCutPath
10
138
20
47.375
11
138
21
31.125
0
LINE
8
left_outsideCutPath
10
138
20
31.125
11
133
21
31.125
0
LINE
8
left_outsideCutPath
10
133
20
31.125
11
133
21
14.875
0
LINE
8
left_outsideCutPath
10
133
20
14.875
11
138
21
14.875
0
LINE
8
left_outsideCutPath
10
138
20
14.875
11
138
21
3
0
LINE
8
left_outsideCutPath
10
138
20
3
11
157.375
21
3
0
LINE
8
left_outsideCutPath
10
157.375
20
3
11
157.375
21
8
0
LINE
8
left_outsideCutPath
10
157.375
20
8
11
173.625
21
8
0
LINE
8
left_outsideCutPath
10
173.625
20
8
11
173.625
21
3
0
LINE
8
left_outsideCutPath
10
173.625
20
3
11
189.875
21
3
0
LINE
8
left_outsideCutPath
10
189.875
20
3
11
189.875
21
8
0
LINE
8
left_outsideCutPath
10
189.875
20
8
11
206.125
21
8
0
LINE
8
left_outsideCutPath
10
206.125
20
8
11
206.125
21
3
0
LINE
8
left_outsideCutPath
10
206.125
20
3
11
222.375
21
3
0
LINE
8
left_outsideCutPath
10
222.375
20
3
11
222.375
21
8
0
LINE
8
left_outsideCutPath
10
222.375
20
8
11
238.625
21
8
0
LINE
8
left_outsideCutPath
10
238.625
20
8
11
238.625
21
3
0
LINE
8
left_outsideCutPath
10
238.625
20
3
11
254.875
21
3
0
LINE
8
left_outsideCutPath
10
254.875
20
3
11
258
21
3
0
LINE
8
left_outsideCutPath
10
258
20
3
11
258
21
14.875
0
LINE
8
left_outsideCutPath
10
258
20
14.875
11
263
21
14.875
0
LINE
8
left_outsideCutPath
10
263
20
14.875
11
263
21
31.125
0
LINE
8
left_outsideCutPath
10
263
20
31.125
11
258
21
31.125
0
LINE
8
left_outsideCutPath
10
258
20
31.125
11
258
21
47.375
0
LINE
8
left_outsideCutPath
10
258
20
47.375
11
263
21
47.375
0
LINE
8
left_outsideCutPath
10
263
20
47.375
11
263
21
63.625
0
LINE
8
left_outsideCutPath
10
263
20
63.625
11
258
21
63.625
0
LINE
8
left_outsideCutPath
10
258
20
63.625
11
258
21
79.875
0
LINE
8
left_outsideCutPath
10
258
20
79.875
11
263
21
79.875
0
LINE
8
left_outsideCutPath
10
263
20
79.875
11
263
21
96.125
0
LINE
8
left_outsideCutPath
10
263
20
96.125
11
258
21
96.125
0
LINE
8
left_outsideCutPath
10
258
20
96.125
11
258
21
112.375
0
LINE
8
left_outsideCutPath
10
258
20
112.375
11
263
21
112.375
0
LINE
8
left_outsideCutPath
10
263
20
112.375
11
263
21
128.625
0
LINE
8
left_outsideCutPath
10
263
20
128.625
11
258
21
128.625
0
LINE
8
left_outsideCutPath
10
258
20
128.625
11
258
21
144.875
0
LINE
8
left_outsideCutPath
10
258
20
144.875
11
263
21
144.875
0
LINE
8
left_outsideCutPath
10
263
20
144.875
11
263
21
161.125
0
LINE
8
left_outsideCutPath
10
263
20
161.125
11
258
21
161.125
0
LINE
8
left_outsideCutPath
10
258
20
161.125
11
258
21
173
0
LINE
8
left_outsideCutPath
10
258
20
173
11
138
21
173
0
LINE
8
left_labelLayer
10
181.9213867
20
97.9343572
11
181.9213867
21
78.180451
0
LINE
8
left_labelLayer
10
181.9213867
20
78.180451
11
179.8139648
21
78.180451
0
LINE
8
left_labelLayer
10
179.8139648
20
78.180451
11
179.8139648
21
97.9343572
0
LINE
8
left_labelLayer
10
179.8139648
20
97.9343572
11
181.9213867
21
97.9343572
0
LINE
8
left_labelLayer
10
197.3842773
20
86.0896307
11
197.3842773
21
84.7566229
0
LINE
8
left_labelLayer
10
197.3842773
20
84.7566229
11
187.7993164
21
84.7566229
0
LINE
8
left_labelLayer
10
196.7875976
20
80.7068182
11
196.7875976
21
78.8279119
0
LINE
8
left_labelLayer
10
187.8500976
20
86.4704901
11
195.1245117
21
86.4704901
0
ARC
8
left_labelLayer
10
192.1987721
20
86.1155867
40
8.1893351
50
256.0087793
51
270.4848156
0
ARC
8
left_labelLayer
10
191.6024266
20
83.8004592
40
5.7987416
50
223.5465735
51
256.1957004
0
ARC
8
left_labelLayer
10
191.9314041
20
84.0395646
40
6.202149
50
194.0877272
51
223.0538103
0
ARC
8
left_labelLayer
10
194.9457188
20
84.8638694
40
9.3266797
50
181.3574569
51
194.4919977
0
ARC
8
left_labelLayer
10
197.6533038
20
85.020847
40
12.0375812
50
179.9886841
51
181.7991233
0
ARC
8
left_labelLayer
10
196.6814831
20
85.0974567
40
11.0660095
50
168.9539163
51
180.3843505
0
ARC
8
left_labelLayer
10
193.0673887
20
85.8333502
40
7.3779361
50
149.4071037
51
169.1853768
0
ARC
8
left_labelLayer
10
192.0604282
20
86.3653844
40
6.2406066
50
140.1056026
51
148.9067323
0
ARC
8
left_labelLayer
10
191.4417964
20
86.9357356
40
5.4003205
50
92.4762651
51
140.5386373
0
ARC
8
left_labelLayer
10
191.7174631
20
84.8985142
40
7.449907
50
89.9638161
51
93.9175977
0
ARC
8
left_labelLayer
10
191.7832395
20
85.9282049
40
6.4205053
50
74.2125809
51
90.5450035
0
ARC
8
left_labelLayer
10
192.185377
20
87.409848
40
4.8853708
50
41.2064631
51
74.0232763
0
ARC
8
left_labelLayer
10
191.4238077
20
86.7507656
40
5.8925198
50
11.5994235
51
41.1496022
0
ARC
8
left_labelLayer
10
188.8070915
20
86.1472988
40
8.5773798
50
359.6147816
51
12.0336477
0
ARC
8
left_labelLayer
10
196.2560484
20
84.9256027
40
8.4584202
50
181.1447146
51
190.8007089
0
ARC
8
left_labelLayer
10
193.2720106
20
84.3370662
40
5.4169899
50
190.6005761
51
206.0275168
0
ARC
8
left_labelLayer
10
191.9517702
20
83.7129161
40
3.9568081
50
206.2950292
51
222.5557835
0
ARC
8
left_labelLayer
10
191.834782
20
83.6516638
40
3.8293578
50
223.064513
51
258.1401376
0
ARC
8
left_labelLayer
10
192.3004992
20
85.5693065
40
5.8021063
50
257.5311919
51
270.4319274
0
ARC
8
left_labelLayer
10
192.3056965
20
90.8977556
40
11.1304573
50
270.1984
51
292.2090399
0
ARC
8
left_labelLayer
10
191.7709279
20
92.433417
40
12.7546106
50
291.8255626
51
293.1613659
0
ARC
8
left_labelLayer
10
191.7456023
20
90.4313732
40
12.6515623
50
287.9022853
51
293.4861566
0
ARC
8
left_labelLayer
10
192.6633569
20
87.5997587
40
9.6749364
50
281.9935752
51
287.8851352
0
ARC
8
left_labelLayer
10
192.8857779
20
86.800358
40
8.8469159
50
275.9054402
51
281.660373
0
ARC
8
left_labelLayer
10
192.4405172
20
90.9563713
40
13.0266942
50
271.9119583
51
275.9727266
0
ARC
8
left_labelLayer
10
192.2779793
20
95.096196
40
17.1696542
50
269.9669202
51
271.9931391
0
ARC
8
left_labelLayer
10
191.6563364
20
86.4297492
40
4.154219
50
89.4422228
51
106.2089524
0
ARC
8
left_labelLayer
10
191.4064159
20
87.3410022
40
3.2094572
50
106.4657038
51
137.9176384
0
ARC
8
left_labelLayer
10
192.1229516
20
86.7117648
40
4.1629918
50
138.0994781
51
160.5866274
0
ARC
8
left_labelLayer
10
193.9648064
20
86.0341787
40
6.125404
50
160.3353472
51
172.5315174
0
ARC
8
left_labelLayer
10
195.7784397
20
85.7435909
40
7.9615947
50
172.1545237
51
174.7615601
0
ARC
8
left_labelLayer
10
187.9432803
20
86.5112862
40
7.1813473
50
359.6745096
51
8.9224415
0
ARC
8
left_labelLayer
10
190.5093362
20
86.9293834
40
4.5815215
50
8.7342347
51
23.2771848
0
ARC
8
left_labelLayer
10
191.7275503
20
87.4407575
40
3.2604015
50
23.4821485
51
39.7072087
0
ARC
8
left_labelLayer
10
192.0267859
20
87.6646837
40
2.8871973
50
40.0822836
51
80.6243291
0
ARC
8
left_labelLayer
10
191.7187748
20
86.2527667
40
4.3310604
50
79.6468501
51
90.2910071
0
LINE
8
left_labelLayer
10
207.2485351
20
92.0945135
11
207.2485351
21
90.4568182
0
LINE
8
left_labelLayer
10
207.2485351
20
90.4568182
11
203.7065429
21
90.4568182
0
LINE
8
left_labelLayer
10
203.7065429
20
90.4568182
11
203.7065429
21
78.180451
0
LINE
8
left_labelLayer
10
203.7065429
20
78.180451
11
201.5991211
21
78.180451
0
LINE
8
left_labelLayer
10
201.5991211
20
78.180451
11
201.5991211
21
90.4568182
0
LINE
8
left_labelLayer
10
201.5991211
20
90.4568182
11
199.1108398
21
90.4568182
0
LINE
8
left_labelLayer
10
199.1108398
20
90.4568182
11
199.1108398
21
91.4089666
0
LINE
8
left_labelLayer
10
199.1108398
20
91.4089666
11
201.5991211
21
92.1706854
0
LINE
8
left_labelLayer
10
201.5991211
20
92.1706854
11
201.5991211
21
92.9450994
0
LINE
8
left_labelLayer
10
208.6704101
20
97.6296697
11
208.1245117
21
95.9411932
0
LINE
8
left_labelLayer
10
203.7065429
20
92.9958807
11
203.7065429
21
92.0945135
0
LINE
8
left_labelLayer
10
203.7065429
20
92.0945135
11
207.2485351
21
92.0945135
0
ARC
8
left_labelLayer
10
210.1397625
20
93.0432879
40
8.5412058
50
167.5775982
51
180.6586786
0
ARC
8
left_labelLayer
10
206.1234073
20
93.9796694
40
4.4177372
50
141.7433783
51
168.232211
0
ARC
8
left_labelLayer
10
205.4694645
20
94.3209789
40
3.6954347
50
98.2551476
51
139.6203341
0
ARC
8
left_labelLayer
10
206.0436382
20
91.668523
40
6.4055892
50
89.6696883
51
99.931442
0
ARC
8
left_labelLayer
10
206.0452399
20
91.2877163
40
6.7863813
50
81.5640872
51
89.7017462
0
ARC
8
left_labelLayer
10
205.5681344
20
87.9591844
40
10.1489064
50
75.9739972
51
81.6564606
0
ARC
8
left_labelLayer
10
204.7493553
20
84.5631026
40
13.6422084
50
73.2963926
51
76.0945936
0
ARC
8
left_labelLayer
10
204.9555949
20
86.2106193
40
10.2335772
50
71.9613332
51
76.5918286
0
ARC
8
left_labelLayer
10
205.7495238
20
89.5785365
40
6.773364
50
76.5183508
51
83.0216721
0
ARC
8
left_labelLayer
10
206.0260819
20
91.8025458
40
4.5322316
50
83.0761057
51
89.7926917
0
ARC
8
left_labelLayer
10
206.0169809
20
93.4927752
40
2.8420871
50
89.485928
51
103.4197553
0
ARC
8
left_labelLayer
10
205.7607462
20
94.4772006
40
1.8251911
50
102.7677448
51
144.338027
0
ARC
8
left_labelLayer
10
206.2769504
20
94.1450699
40
2.4384231
50
145.0688451
51
162.1801734
0
ARC
8
left_labelLayer
10
208.046838
20
93.5495889
40
4.3057038
50
161.843739
51
171.7846971
0
ARC
8
left_labelLayer
10
210.9335622
20
93.1160106
40
7.2247792
50
171.6527702
51
178.4383573
0
ARC
8
left_labelLayer
10
213.6562258
20
92.9999106
40
9.9496836
50
178.1973166
51
180.0232062
0
LINE
8
left_labelLayer
10
216.1860351
20
79.9197088
11
216.1860351
21
78.3074041
0
LINE
8
left_labelLayer
10
209.9399414
20
82.1794744
11
209.9399414
21
90.4568182
0
LINE
8
left_labelLayer
10
209.9399414
20
90.4568182
11
207.9467773
21
90.4568182
0
LINE
8
left_labelLayer
10
207.9467773
20
90.4568182
11
207.9467773
21
91.4724432
0
LINE
8
left_labelLayer
10
207.9467773
20
91.4724432
11
209.9399414
21
92.3484197
0
LINE
8
left_labelLayer
10
209.9399414
20
92.3484197
11
210.8286132
21
95.3191229
0
LINE
8
left_labelLayer
10
210.8286132
20
95.3191229
11
212.0473632
21
95.3191229
0
LINE
8
left_labelLayer
10
212.0473632
20
95.3191229
11
212.0473632
21
92.0945135
0
LINE
8
left_labelLayer
10
212.0473632
20
92.0945135
11
216.0844726
21
92.0945135
0
LINE
8
left_labelLayer
10
216.0844726
20
92.0945135
11
216.0844726
21
90.4568182
0
LINE
8
left_labelLayer
10
216.0844726
20
90.4568182
11
212.0473632
21
90.4568182
0
LINE
8
left_labelLayer
10
212.0473632
20
90.4568182
11
212.0473632
21
82.2683416
0
ARC
8
left_labelLayer
10
214.2961894
20
86.586867
40
6.9210795
50
269.880367
51
278.3028229
0
ARC
8
left_labelLayer
10
214.3611021
20
86.0548934
40
6.3853204
50
278.4157691
51
279.0077542
0
ARC
8
left_labelLayer
10
213.5853592
20
91.0103655
40
11.4011383
50
278.9590415
51
280.5103724
0
ARC
8
left_labelLayer
10
214.3255655
20
87.0386432
40
7.361031
50
280.4847552
51
282.62677
0
ARC
8
left_labelLayer
10
214.9746031
20
84.1551026
40
4.4053514
50
282.5877402
51
285.5794118
0
ARC
8
left_labelLayer
10
215.2995432
20
82.9599582
40
3.1668573
50
285.7238411
51
286.2559062
0
ARC
8
left_labelLayer
10
215.3000291
20
80.1813528
40
2.072846
50
287.9887727
51
295.3048609
0
ARC
8
left_labelLayer
10
214.8000548
20
81.6940013
40
3.6659687
50
283.3069487
51
288.1197753
0
ARC
8
left_labelLayer
10
214.2718807
20
83.8972013
40
5.9315875
50
280.0070288
51
283.3734779
0
ARC
8
left_labelLayer
10
213.9185349
20
85.8147679
40
7.8813955
50
279.1862726
51
280.114305
0
ARC
8
left_labelLayer
10
213.7016089
20
87.0486181
40
9.1340682
50
275.5260238
51
279.2939522
0
ARC
8
left_labelLayer
10
213.9460403
20
84.4954968
40
6.5692747
50
270.8932713
51
275.5483925
0
ARC
8
left_labelLayer
10
213.9767386
20
83.3314449
40
5.4049001
50
270.0033087
51
270.7602627
0
ARC
8
left_labelLayer
10
213.8920103
20
83.4301666
40
5.5042788
50
253.7847934
51
270.8852477
0
ARC
8
left_labelLayer
10
213.2398992
20
81.2062204
40
3.1867069
50
190.3817659
51
253.8772437
0
ARC
8
left_labelLayer
10
216.5636882
20
82.1049154
40
6.6241665
50
179.3550876
51
192.8477689
0
ARC
8
left_labelLayer
10
216.2909164
20
82.2417997
40
4.2436361
50
179.6416403
51
189.7506042
0
ARC
8
left_labelLayer
10
214.7928432
20
81.9745997
40
2.7219677
50
189.547969
51
205.7873533
0
ARC
8
left_labelLayer
10
214.177189
20
81.6907029
40
2.0441558
50
206.1294408
51
221.4083838
0
ARC
8
left_labelLayer
10
214.1081559
20
81.6383222
40
1.9577447
50
221.5949173
51
262.3505235
0
ARC
8
left_labelLayer
10
214.2723318
20
82.4825647
40
2.8167778
50
261.3265944
51
270.1913367
0
LINE
8
back_outsideCutPath
10
0
20
346
11
0
21
334.125
0
LINE
8
back_outsideCutPath
10
0
20
334.125
11
5
21
334.125
0
LINE
8
back_outsideCutPath
10
5
20
334.125
11
5
21
317.875
0
LINE
8
back_outsideCutPath
10
5
20
317.875
11
0
21
317.875
0
LINE
8
back_outsideCutPath
10
0
20
317.875
11
0
21
301.625
0
LINE
8
back_outsideCutPath
10
0
20
301.625
11
5
21
301.625
0
LINE
8
back_outsideCutPath
10
5
20
301.625
11
5
21
285.375
0
LINE
8
back_outsideCutPath
10
5
20
285.375
11
0
21
285.375
0
LINE
8
back_outsideCutPath
10
0
20
285.375
11
0
21
269.125
0
LINE
8
back_outsideCutPath
10
0
20
269.125
11
5
21
269.125
0
LINE
8
back_outsideCutPath
10
5
20
269.125
11
5
21
252.875
0
LINE
8
back_outsideCutPath
10
5
20
252.875
11
0
21
252.875
0
LINE
8
back_outsideCutPath
10
0
20
252.875
11
0
21
236.625
0
LINE
8
back_outsideCutPath
10
0
20
236.625
11
5
21
236.625
0
LINE
8
back_outsideCutPath
10
5
20
236.625
11
5
21
220.375
0
LINE
8
back_outsideCutPath
10
5
20
220.375
11
0
21
220.375
0
LINE
8
back_outsideCutPath
10
0
20
220.375
11
0
21
204.125
0
LINE
8
back_outsideCutPath
10
0
20
204.125
11
5
21
204.125
0
LINE
8
back_outsideCutPath
10
5
20
204.125
11
5
21
187.875
0
LINE
8
back_outsideCutPath
10
5
20
187.875
11
0
21
187.875
0
LINE
8
back_outsideCutPath
10
0
20
187.875
11
0
21
176
0
LINE
8
back_outsideCutPath
10
0
20
176
11
24.375
21
176
0
LINE
8
back_outsideCutPath
10
24.375
20
176
11
24.375
21
181
0
LINE
8
back_outsideCutPath
10
24.375
20
181
11
40.625
21
181
0
LINE
8
back_outsideCutPath
10
40.625
20
181
11
40.625
21
176
0
LINE
8
back_outsideCutPath
10
40.625
20
176
11
56.875
21
176
0
LINE
8
back_outsideCutPath
10
56.875
20
176
11
56.875
21
181
0
LINE
8
back_outsideCutPath
10
56.875
20
181
11
73.125
21
181
0
LINE
8
back_outsideCutPath
10
73.125
20
181
11
73.125
21
176
0
LINE
8
back_outsideCutPath
10
73.125
20
176
11
89.375
21
176
0
LINE
8
back_outsideCutPath
10
89.375
20
176
11
89.375
21
181
0
LINE
8
back_outsideCutPath
10
89.375
20
181
11
105.625
21
181
0
LINE
8
back_outsideCutPath
10
105.625
20
181
11
105.625
21
176
0
LINE
8
back_outsideCutPath
10
105.625
20
176
11
121.875
21
176
0
LINE
8
back_outsideCutPath
10
121.875
20
176
11
130
21
176
0
LINE
8
back_outsideCutPath
10
130
20
176
11
130
21
187.875
0
LINE
8
back_outsideCutPath
10
130
20
187.875
11
125
21
187.875
0
LINE
8
back_outsideCutPath
10
125
20
187.875
11
125
21
204.125
0
LINE
8
back_outsideCutPath
10
125
20
204.125
11
130
21
204.125
0
LINE
8
back_outsideCutPath
10
130
20
204.125
11
130
21
220.375
0
LINE
8
back_outsideCutPath
10
130
20
220.375
11
125
21
220.375
0
LINE
8
back_outsideCutPath
10
125
20
220.375
11
125
21
236.625
0
LINE
8
back_outsideCutPath
10
125
20
236.625
11
130
21
236.625
0
LINE
8
back_outsideCutPath
10
130
20
236.625
11
130
21
252.875
0
LINE
8
back_outsideCutPath
10
130
20
252.875
11
125
21
252.875
0
LINE
8
back_outsideCutPath
10
125
20
252.875
11
125
21
269.125
0
LINE
8
back_outsideCutPath
10
125
20
269.125
11
130
21
269.125
0
LINE
8
back_outsideCutPath
10
130
20
269.125
11
130
21
285.375
0
LINE
8
back_outsideCutPath
10
130
20
285.375
11
125
21
285.375
0
LINE
8
back_outsideCutPath
10
125
20
285.375
11
125
21
301.625
0
LINE
8
back_outsideCutPath
10
125
20
301.625
11
130
21
301.625
0
LINE
8
back_outsideCutPath
10
130
20
301.625
11
130
21
317.875
0
LINE
8
back_outsideCutPath
10
130
20
317.875
11
125
21
317.875
0
LINE
8
back_outsideCutPath
10
125
20
317.875
11
125
21
334.125
0
LINE
8
back_outsideCutPath
10
125
20
334.125
11
130
21
334.125
0
LINE
8
back_outsideCutPath
10
130
20
334.125
11
130
21
346
0
LINE
8
back_outsideCutPath
10
130
20
346
11
0
21
346
0
LINE
8
back_labelLayer
10
40.1552734
20
253.0401825
11
40.0029297
21
253.0401825
0
LINE
8
back_labelLayer
10
40.0029297
20
253.0401825
11
39.5585938
21
251.2501434
0
LINE
8
back_labelLayer
10
39.5585938
20
251.2501434
11
38.0478516
21
251.2501434
0
LINE
8
back_labelLayer
10
38.0478516
20
251.2501434
11
38.0478516
21
271.0040497
0
LINE
8
back_labelLayer
10
38.0478516
20
271.0040497
11
40.1552734
21
271.0040497
0
LINE
8
back_labelLayer
10
40.1552734
20
271.0040497
11
40.1552734
21
266.2052215
0
LINE
8
back_labelLayer
10
40.0537109
20
263.3106903
11
40.1552734
21
263.3106903
0
ARC
8
back_labelLayer
10
44.5856808
20
258.9520176
40
6.4410142
50
74.2393357
51
90.5623786
0
ARC
8
back_labelLayer
10
45.0115822
20
260.5144573
40
4.8216535
50
38.5631274
51
74.0670354
0
ARC
8
back_labelLayer
10
43.9155453
20
259.6622252
40
6.2099532
50
16.470929
51
38.4075254
0
ARC
8
back_labelLayer
10
40.7580307
20
258.6721198
40
9.518773
50
5.1338517
51
16.7973465
0
ARC
8
back_labelLayer
10
36.7719261
20
258.2486895
40
13.5269327
50
359.8779295
51
5.4093582
0
ARC
8
back_labelLayer
10
37.9427289
20
258.146972
40
12.3563143
50
350.6562833
51
0.3380271
0
ARC
8
back_labelLayer
10
42.2503425
20
257.4142949
40
7.9869333
50
335.8306027
51
350.8254814
0
ARC
8
back_labelLayer
10
44.1451874
20
256.5964538
40
5.9234133
50
321.3161499
51
335.5436197
0
ARC
8
back_labelLayer
10
44.8695974
20
256.0061706
40
4.9890001
50
274.0640094
51
321.4080981
0
ARC
8
back_labelLayer
10
44.5321177
20
258.143932
40
7.1477013
50
269.9225915
51
275.5481405
0
ARC
8
back_labelLayer
10
44.4869221
20
257.3884021
40
6.3922637
50
255.7755318
51
270.3185465
0
ARC
8
back_labelLayer
10
44.3045062
20
256.5779503
40
5.5618814
50
245.9801753
51
255.5455795
0
ARC
8
back_labelLayer
10
43.9511798
20
255.7562832
40
4.6675589
50
215.5850155
51
245.8361633
0
ARC
8
back_labelLayer
10
-3.7830085
20
266.168082
40
43.9382976
50
358.1123219
51
0.0484302
0
ARC
8
back_labelLayer
10
8.4456561
20
265.7575356
40
31.7027467
50
355.7238734
51
358.1258919
0
ARC
8
back_labelLayer
10
13.7750226
20
265.3919354
40
26.3609757
50
355.4716854
51
355.6525992
0
ARC
8
back_labelLayer
10
44.0855235
20
260.5700208
40
4.7914648
50
95.1835148
51
145.1108955
0
ARC
8
back_labelLayer
10
44.5066765
20
258.195109
40
7.19763
50
89.8743496
51
96.8145493
0
ARC
8
back_labelLayer
10
44.1736535
20
257.7062035
40
5.922034
50
89.5731345
51
100.7324227
0
ARC
8
back_labelLayer
10
43.7352579
20
259.9211314
40
3.6642568
50
100.446944
51
119.6700773
0
ARC
8
back_labelLayer
10
43.3287324
20
260.6811778
40
2.8027222
50
120.1402833
51
142.4248949
0
ARC
8
back_labelLayer
10
44.0012975
20
260.2362546
40
3.6075396
50
143.3382385
51
161.2559821
0
ARC
8
back_labelLayer
10
46.8138111
20
259.2377174
40
6.591891
50
160.8926281
51
171.2334398
0
ARC
8
back_labelLayer
10
51.5090304
20
258.4802671
40
11.3477487
50
171.0667817
51
177.8456775
0
ARC
8
back_labelLayer
10
56.3916488
20
258.2319282
40
16.2363799
50
177.6176424
51
180.0425517
0
ARC
8
back_labelLayer
10
54.0892477
20
258.1654598
40
13.9340805
50
179.7762693
51
185.707536
0
ARC
8
back_labelLayer
10
48.5955628
20
257.5994141
40
8.411354
50
185.5924925
51
194.2050634
0
ARC
8
back_labelLayer
10
45.0763234
20
256.6860492
40
4.7756366
50
193.9430286
51
208.0218426
0
ARC
8
back_labelLayer
10
43.652447
20
255.9616842
40
3.1785076
50
208.5536538
51
217.5605132
0
ARC
8
back_labelLayer
10
43.5364314
20
255.9134286
40
3.0572967
50
218.1690404
51
253.8047241
0
ARC
8
back_labelLayer
10
44.1035007
20
257.6617565
40
4.8947387
50
253.1382328
51
266.848319
0
ARC
8
back_labelLayer
10
44.2625202
20
259.5370546
40
6.7761718
50
266.3775462
51
270.0510246
0
ARC
8
back_labelLayer
10
44.3135092
20
256.961767
40
4.2011219
50
269.3868894
51
285.8630759
0
ARC
8
back_labelLayer
10
44.6256262
20
255.833736
40
3.0307461
50
286.0162894
51
326.8497361
0
ARC
8
back_labelLayer
10
43.1191902
20
256.8316954
40
4.8377285
50
326.7104981
51
343.6661852
0
ARC
8
back_labelLayer
10
40.2992134
20
257.6933888
40
7.7863
50
343.4171413
51
353.6369071
0
ARC
8
back_labelLayer
10
36.0399391
20
258.1987813
40
12.0753849
50
353.4934757
51
0.2205375
0
ARC
8
back_labelLayer
10
35.6645073
20
258.2956569
40
12.4508291
50
359.7680876
51
6.3095323
0
ARC
8
back_labelLayer
10
40.3544792
20
258.8338615
40
7.7301421
50
6.164864
51
16.0396414
0
ARC
8
back_labelLayer
10
43.3756843
20
259.7242098
40
4.5805927
50
15.7779444
51
32.0151236
0
ARC
8
back_labelLayer
10
44.317755
20
260.2636932
40
3.496052
50
32.7034653
51
35.5242472
0
ARC
8
back_labelLayer
10
44.6623769
20
260.5086365
40
3.0732513
50
35.5408339
51
79.8011303
0
ARC
8
back_labelLayer
10
44.2496691
20
258.7541298
40
4.8740476
50
78.6781433
51
90.3749447
0
LINE
8
back_labelLayer
10
64.0986328
20
251.2501434
11
62.5371094
21
251.2501434
0
LINE
8
back_labelLayer
10
62.5371094
20
251.2501434
11
62.1181641
21
253.2306122
0
LINE
8
back_labelLayer
10
62.1181641
20
253.2306122
11
62.0166016
21
253.2306122
0
LINE
8
back_labelLayer
10
59.6806641
20
259.5147919
11
62.0419922
21
259.5909637
0
LINE
8
back_labelLayer
10
62.0419922
20
259.5909637
11
62.0419922
21
260.454245
0
LINE
8
back_labelLayer
10
55.1484375
20
262.5870575
11
54.5009766
21
264.1993622
0
LINE
8
back_labelLayer
10
64.0986328
20
260.7462372
11
64.0986328
21
251.2501434
0
LINE
8
back_labelLayer
10
61.9912109
20
256.8360809
11
61.9912109
21
258.0929169
0
LINE
8
back_labelLayer
10
61.9912109
20
258.0929169
11
59.8837891
21
258.0040497
0
ARC
8
back_labelLayer
10
55.1598525
20
258.6443532
40
8.7363378
50
314.7445181
51
321.7071699
0
ARC
8
back_labelLayer
10
57.3062493
20
256.46345
40
5.6764066
50
304.8485663
51
314.8530816
0
ARC
8
back_labelLayer
10
58.3373233
20
254.995824
40
3.8828189
50
294.393275
51
304.7371381
0
ARC
8
back_labelLayer
10
57.9850676
20
255.9085493
40
4.8598722
50
281.2979465
51
293.7313628
0
ARC
8
back_labelLayer
10
57.5194035
20
258.1653843
40
7.1642171
50
272.9334924
51
281.4139225
0
ARC
8
back_labelLayer
10
57.3650539
20
260.4801701
40
9.4839358
50
269.9538921
51
273.149073
0
ARC
8
back_labelLayer
10
57.3117358
20
257.4634654
40
6.4673896
50
258.6719656
51
270.4047443
0
ARC
8
back_labelLayer
10
56.8625028
20
255.314518
40
4.2721051
50
238.3273201
51
258.9183699
0
ARC
8
back_labelLayer
10
56.5529252
20
254.7497279
40
3.629036
50
227.7689329
51
237.8050021
0
ARC
8
back_labelLayer
10
56.4560941
20
254.6145527
40
3.4639177
50
192.0827749
51
227.4520666
0
ARC
8
back_labelLayer
10
58.241951
20
255.054782
40
5.3026646
50
179.5457372
51
192.6949246
0
ARC
8
back_labelLayer
10
56.5829024
20
255.2467778
40
3.6465338
50
115.4904635
51
182.3568126
0
ARC
8
back_labelLayer
10
58.4091285
20
251.8971016
40
7.4589483
50
101.3568264
51
117.0798594
0
ARC
8
back_labelLayer
10
59.8757501
20
245.0434549
40
14.467474
50
92.4696193
51
101.7065014
0
ARC
8
back_labelLayer
10
60.2972466
20
238.9390081
40
20.58502
50
91.7164357
51
92.909582
0
ARC
8
back_labelLayer
10
55.9890708
20
260.4866429
40
6.0530081
50
359.6933305
51
8.0035926
0
ARC
8
back_labelLayer
10
58.2787819
20
260.8202058
40
3.7391744
50
7.8272934
51
20.6041468
0
ARC
8
back_labelLayer
10
59.5745138
20
261.3158849
40
2.3519047
50
20.409443
51
41.4479097
0
ARC
8
back_labelLayer
10
59.7659654
20
261.42112
40
2.1392766
50
42.7295587
51
71.0380322
0
ARC
8
back_labelLayer
10
59.3152425
20
260.1955983
40
3.444867
50
70.5716174
51
83.9928635
0
ARC
8
back_labelLayer
10
59.0999178
20
258.4465341
40
5.206954
50
83.650661
51
90.1753274
0
ARC
8
back_labelLayer
10
59.137688
20
256.7923688
40
6.8613051
50
90.44846
51
103.766551
0
ARC
8
back_labelLayer
10
59.9445455
20
253.3898185
40
10.3581493
50
103.6226571
51
112.4319937
0
ARC
8
back_labelLayer
10
61.3276466
20
249.8976168
40
14.1139835
50
112.2122474
51
115.9640802
0
ARC
8
back_labelLayer
10
59.1127496
20
255.6468866
40
9.7166501
50
106.3568596
51
118.3349899
0
ARC
8
back_labelLayer
10
59.5265384
20
254.3687253
40
11.0596723
50
104.5161769
51
106.5489911
0
ARC
8
back_labelLayer
10
59.2231081
20
255.6330142
40
9.7597151
50
90.071449
51
104.652108
0
ARC
8
back_labelLayer
10
59.2614106
20
256.4922752
40
8.9005895
50
81.5679821
51
90.3249121
0
ARC
8
back_labelLayer
10
59.7760306
20
259.8448796
40
5.5087907
50
68.2273381
51
81.7494279
0
ARC
8
back_labelLayer
10
60.4928093
20
261.6282862
40
3.5867386
50
47.8683133
51
68.293409
0
ARC
8
back_labelLayer
10
60.6091446
20
261.8605705
40
3.3371583
50
19.2330948
51
46.6741206
0
ARC
8
back_labelLayer
10
58.671199
20
261.1396505
40
5.4045852
50
6.3378957
51
19.6815361
0
ARC
8
back_labelLayer
10
55.8064144
20
260.7747932
40
8.2922678
50
359.8026904
51
6.6583541
0
ARC
8
back_labelLayer
10
57.8189801
20
258.5376902
40
5.8023517
50
269.5792117
51
282.0413527
0
ARC
8
back_labelLayer
10
58.2422208
20
256.6603679
40
3.8781041
50
281.7120964
51
306.4593901
0
ARC
8
back_labelLayer
10
58.4298971
20
256.3517232
40
3.5184905
50
306.9881294
51
313.8559648
0
ARC
8
back_labelLayer
10
58.4075652
20
256.3453382
40
3.5294189
50
314.1891989
51
347.4269789
0
ARC
8
back_labelLayer
10
56.6395955
20
256.7883838
40
5.3516466
50
346.9177543
51
0.2824687
0
ARC
8
back_labelLayer
10
55.3189636
20
256.8360053
40
6.6722472
50
359.8176256
51
0.0006497
0
ARC
8
back_labelLayer
10
60.3850815
20
242.5382247
40
15.473947
50
91.8564731
51
96.4478328
0
ARC
8
back_labelLayer
10
59.6872521
20
248.5767436
40
9.3952718
50
96.3545372
51
102.9953203
0
ARC
8
back_labelLayer
10
58.7399987
20
252.601339
40
5.260773
50
102.7995404
51
113.2433059
0
ARC
8
back_labelLayer
10
57.9590964
20
254.468953
40
3.2366257
50
113.5886179
51
121.6805281
0
ARC
8
back_labelLayer
10
57.4165685
20
255.2952053
40
2.2487387
50
120.9734027
51
172.4179889
0
ARC
8
back_labelLayer
10
58.4769866
20
255.0833907
40
3.3285706
50
171.2121813
51
180.205841
0
ARC
8
back_labelLayer
10
58.1600804
20
255.0465481
40
3.0117457
50
179.526591
51
192.7787368
0
ARC
8
back_labelLayer
10
57.1412636
20
254.7995827
40
1.9635993
50
192.3264651
51
222.057971
0
ARC
8
back_labelLayer
10
57.0654902
20
254.7542749
40
1.8770673
50
222.5805408
51
229.2546666
0
ARC
8
back_labelLayer
10
57.3215605
20
255.0839601
40
2.2940772
50
229.7836894
51
254.2724365
0
ARC
8
back_labelLayer
10
57.6626268
20
256.2205279
40
3.4806029
50
253.9396643
51
266.4533981
0
ARC
8
back_labelLayer
10
57.7714849
20
257.4752702
40
4.7397778
50
266.0782863
51
270.059019
0
LINE
8
back_labelLayer
10
77.7207031
20
264.6944794
11
77.0732422
21
262.9044403
0
LINE
8
back_labelLayer
10
77.5175781
20
253.5860809
11
77.5175781
21
251.71987
0
ARC
8
back_labelLayer
10
73.9337577
20
258.8722241
40
7.8762737
50
256.4243677
51
270.4889884
0
ARC
8
back_labelLayer
10
73.3043688
20
256.4157784
40
5.3408393
50
221.7976274
51
256.8020547
0
ARC
8
back_labelLayer
10
73.9138601
20
256.8661086
40
6.0957708
50
196.0166634
51
221.1349258
0
ARC
8
back_labelLayer
10
76.9771087
20
257.8023946
40
9.2986067
50
183.5913688
51
196.3539516
0
ARC
8
back_labelLayer
10
80.4087379
20
258.1047109
40
12.7427295
50
179.9388652
51
183.981497
0
ARC
8
back_labelLayer
10
79.2937089
20
258.1931707
40
11.6279343
50
169.8978422
51
180.3688857
0
ARC
8
back_labelLayer
10
75.2457549
20
258.9419825
40
7.5114423
50
153.0875156
51
170.105136
0
ARC
8
back_labelLayer
10
73.7098793
20
259.6758656
40
5.80987
50
138.6550134
51
152.6853577
0
ARC
8
back_labelLayer
10
73.4232218
20
259.8847614
40
5.4567652
50
101.4912961
51
138.3133868
0
ARC
8
back_labelLayer
10
74.0813115
20
257.1458552
40
8.2724695
50
89.5891866
51
102.1787668
0
ARC
8
back_labelLayer
10
74.131918
20
255.9079276
40
9.5101886
50
77.7702408
51
89.9475432
0
ARC
8
back_labelLayer
10
73.9518849
20
254.9147534
40
10.5190168
50
74.6797087
51
77.9578263
0
ARC
8
back_labelLayer
10
74.9242528
20
258.4374728
40
6.8645709
50
70.0945514
51
74.7386333
0
ARC
8
back_labelLayer
10
75.849115
20
260.9720567
40
4.1665323
50
63.503378
51
70.1861347
0
ARC
8
back_labelLayer
10
76.2965211
20
261.9080581
40
3.1292871
50
62.9277379
51
63.1887907
0
ARC
8
back_labelLayer
10
73.611292
20
254.1919134
40
9.3751386
50
68.3294441
51
74.8831355
0
ARC
8
back_labelLayer
10
73.1167647
20
252.4384225
40
11.1969368
50
74.780159
51
77.4497869
0
ARC
8
back_labelLayer
10
73.635983
20
254.8756102
40
8.7051897
50
77.2998733
51
81.7345367
0
ARC
8
back_labelLayer
10
74.0147192
20
257.5146569
40
6.0391105
50
81.6910231
51
87.5079097
0
ARC
8
back_labelLayer
10
74.0877871
20
258.8802168
40
4.6716849
50
87.6749793
51
89.9747763
0
ARC
8
back_labelLayer
10
73.9853726
20
258.8784968
40
4.674572
50
88.7194011
51
112.5667616
0
ARC
8
back_labelLayer
10
73.6532131
20
259.9767038
40
3.534844
50
114.426576
51
161.6632762
0
ARC
8
back_labelLayer
10
76.9528866
20
258.685176
40
7.0757837
50
160.1418398
51
175.1368227
0
ARC
8
back_labelLayer
10
81.4944761
20
258.1751902
40
11.6449092
50
174.5309843
51
180.1549487
0
ARC
8
back_labelLayer
10
80.0556234
20
258.0909937
40
10.2061501
50
179.704124
51
188.0743742
0
ARC
8
back_labelLayer
10
76.3795147
20
257.5531393
40
6.4909582
50
187.9315354
51
200.3885324
0
ARC
8
back_labelLayer
10
74.3917839
20
256.8167873
40
4.3712224
50
200.4183343
51
216.6392693
0
ARC
8
back_labelLayer
10
73.5584856
20
256.2210833
40
3.3471309
50
216.9695352
51
261.3103014
0
ARC
8
back_labelLayer
10
73.926239
20
257.9356051
40
5.0986041
50
260.1359337
51
270.2692114
0
ARC
8
back_labelLayer
10
73.9092638
20
261.6588793
40
8.8219168
50
270.2658392
51
286.2891484
0
ARC
8
back_labelLayer
10
73.3729559
20
263.658947
40
10.892223
50
286.0460762
51
292.3654043
0
ARC
8
back_labelLayer
10
74.8012179
20
257.0635986
40
5.9945015
50
282.0344245
51
296.9454493
0
ARC
8
back_labelLayer
10
74.1847215
20
259.8419081
40
8.8403216
50
272.5980462
51
282.1878449
0
ARC
8
back_labelLayer
10
74.0079375
20
262.5530694
40
11.5568344
50
269.9654897
51
272.8643188
0
LINE
8
back_labelLayer
10
82.7988281
20
258.3722137
11
82.9003906
21
258.3722137
0
LINE
8
back_labelLayer
10
84.5634766
20
260.4034637
11
89.0576172
21
265.1642059
0
LINE
8
back_labelLayer
10
89.0576172
20
265.1642059
11
91.5585938
21
265.1642059
0
LINE
8
back_labelLayer
10
91.5585938
20
265.1642059
11
85.921875
21
259.235495
0
LINE
8
back_labelLayer
10
85.921875
20
259.235495
11
91.9521484
21
251.2501434
0
LINE
8
back_labelLayer
10
91.9521484
20
251.2501434
11
89.4003906
21
251.2501434
0
LINE
8
back_labelLayer
10
89.4003906
20
251.2501434
11
84.4873047
21
257.8263153
0
LINE
8
back_labelLayer
10
84.4873047
20
257.8263153
11
82.9003906
21
256.4552215
0
LINE
8
back_labelLayer
10
82.9003906
20
256.4552215
11
82.9003906
21
251.2501434
0
LINE
8
back_labelLayer
10
82.9003906
20
251.2501434
11
80.8183594
21
251.2501434
0
LINE
8
back_labelLayer
10
80.8183594
20
251.2501434
11
80.8183594
21
271.0040497
0
LINE
8
back_labelLayer
10
80.8183594
20
271.0040497
11
82.9003906
21
271.0040497
0
LINE
8
back_labelLayer
10
82.9003906
20
271.0040497
11
82.9003906
21
260.5304169
0
ARC
8
back_labelLayer
10
93.0830774
20
251.1644823
40
12.4755161
50
142.3233631
51
144.7075441
0
ARC
8
back_labelLayer
10
99.7269377
20
246.0399241
40
20.8661038
50
140.4331284
51
142.3365647
0
ARC
8
back_labelLayer
10
108.383957
20
238.9136738
40
32.0789155
50
139.2798806
51
140.4703476
0
ARC
8
back_labelLayer
10
118.3929669
20
230.3066602
40
45.2797085
50
138.3417336
51
139.2877542
0
ARC
8
back_labelLayer
10
68.8566652
20
260.5567064
40
14.0437501
50
358.273907
51
359.8927435
0
ARC
8
back_labelLayer
10
57.929732
20
260.8612248
40
24.9749101
50
357.5041854
51
358.3306979
0
ARC
8
back_labelLayer
10
41.5803905
20
261.5833471
40
41.3401895
50
356.6325115
51
357.4910434
0
ARC
8
back_labelLayer
10
14.3977093
20
263.1687307
40
68.5690615
50
356.0329178
51
356.6442622
0
ARC
8
back_labelLayer
10
-2.9654378
20
264.3389665
40
85.9715735
50
356.0202566
51
356.0554496
0
LINE
8
right_outsideCutPath
10
138
20
346
11
138
21
334.125
0
LINE
8
right_outsideCutPath
10
138
20
334.125
11
133
21
334.125
0
LINE
8
right_outsideCutPath
10
133
20
334.125
11
133
21
317.875
0
LINE
8
right_outsideCutPath
10
133
20
317.875
11
138
21
317.875
0
LINE
8
right_outsideCutPath
10
138
20
317.875
11
138
21
301.625
0
LINE
8
right_outsideCutPath
10
138
20
301.625
11
133
21
301.625
0
LINE
8
right_outsideCutPath
10
133
20
301.625
11
133
21
285.375
0
LINE
8
right_outsideCutPath
10
133
20
285.375
11
138
21
285.375
0
LINE
8
right_outsideCutPath
10
138
20
285.375
11
138
21
269.125
0
LINE
8
right_outsideCutPath
10
138
20
269.125
11
133
21
269.125
0
LINE
8
right_outsideCutPath
10
133
20
269.125
11
133
21
252.875
0
LINE
8
right_outsideCutPath
10
133
20
252.875
11
138
21
252.875
0
LINE
8
right_outsideCutPath
10
138
20
252.875
11
138
21
236.625
0
LINE
8
right_outsideCutPath
10
138
20
236.625
11
133
21
236.625
0
LINE
8
right_outsideCutPath
10
133
20
236.625
11
133
21
220.375
0
LINE
8
right_outsideCutPath
10
133
20
220.375
11
138
21
220.375
0
LINE
8
right_outsideCutPath
10
138
20
220.375
11
138
21
204.125
0
LINE
8
right_outsideCutPath
10
138
20
204.125
11
133
21
204.125
0
LINE
8
right_outsideCutPath
10
133
20
204.125
11
133
21
187.875
0
LINE
8
right_outsideCutPath
10
133
20
187.875
11
138
21
187.875
0
LINE
8
right_outsideCutPath
10
138
20
187.875
11
138
21
176
0
LINE
8
right_outsideCutPath
10
138
20
176
11
157.375
21
176
0
LINE
8
right_outsideCutPath
10
157.375
20
176
11
157.375
21
181
0
LINE
8
right_outsideCutPath
10
157.375
20
181
11
173.625
21
181
0
LINE
8
right_outsideCutPath
10
173.625
20
181
11
173.625
21
176
0
LINE
8
right_outsideCutPath
10
173.625
20
176
11
189.875
21
176
0
LINE
8
right_outsideCutPath
10
189.875
20
176
11
189.875
21
181
0
LINE
8
right_outsideCutPath
10
189.875
20
181
11
206.125
21
181
0
LINE
8
right_outsideCutPath
10
206.125
20
181
11
206.125
21
176
0
LINE
8
right_outsideCutPath
10
206.125
20
176
11
222.375
21
176
0
LINE
8
right_outsideCutPath
10
222.375
20
176
11
222.375
21
181
0
LINE
8
right_outsideCutPath
10
222.375
20
181
11
238.625
21
181
0
LINE
8
right_outsideCutPath
10
238.625
20
181
11
238.625
21
176
0
LINE
8
right_outsideCutPath
10
238.625
20
176
11
254.875
21
176
0
LINE
8
right_outsideCutPath
10
254.875
20
176
11
258
21
176
0
LINE
8
right_outsideCutPath
10
258
20
176
11
258
21
187.875
0
LINE
8
right_outsideCutPath
10
258
20
187.875
11
263
21
187.875
0
LINE
8
right_outsideCutPath
10
263
20
187.875
11
263
21
204.125
0
LINE
8
right_outsideCutPath
10
263
20
204.125
11
258
21
204.125
0
LINE
8
right_outsideCutPath
10
258
20
204.125
11
258
21
220.375
0
LINE
8
right_outsideCutPath
10
258
20
220.375
11
263
21
220.375
0
LINE
8
right_outsideCutPath
10
263
20
220.375
11
263
21
236.625
0
LINE
8
right_outsideCutPath
10
263
20
236.625
11
258
21
236.625
0
LINE
8
right_outsideCutPath
10
258
20
236.625
11
258
21
252.875
0
LINE
8
right_outsideCutPath
10
258
20
252.875
11
263
21
252.875
0
LINE
8
right_outsideCutPath
10
263
20
252.875
11
263
21
269.125
0
LINE
8
right_outsideCutPath
10
263
20
269.125
11
258
21
269.125
0
LINE
8
right_outsideCutPath
10
258
20
269.125
11
258
21
285.375
0
LINE
8
right_outsideCutPath
10
258
20
285.375
11
263
21
285.375
0
LINE
8
right_outsideCutPath
10
263
20
285.375
11
263
21
301.625
0
LINE
8
right_outsideCutPath
10
263
20
301.625
11
258
21
301.625
0
LINE
8
right_outsideCutPath
10
258
20
301.625
11
258
21
317.875
0
LINE
8
right_outsideCutPath
10
258
20
317.875
11
263
21
317.875
0
LINE
8
right_outsideCutPath
10
263
20
317.875
11
263
21
334.125
0
LINE
8
right_outsideCutPath
10
263
20
334.125
11
258
21
334.125
0
LINE
8
right_outsideCutPath
10
258
20
334.125
11
258
21
346
0
LINE
8
right_outsideCutPath
10
258
20
346
11
138
21
346
0
LINE
8
right_labelLayer
10
179.1157226
20
268.2617954
11
178.8237304
21
266.3067173
0
LINE
8
right_labelLayer
10
173.2124023
20
261.7110142
11
173.2124023
21
254.2461704
0
LINE
8
right_labelLayer
10
173.2124023
20
254.2461704
11
171.1049804
21
254.2461704
0
LINE
8
right_labelLayer
10
171.1049804
20
254.2461704
11
171.1049804
21
268.1602329
0
LINE
8
right_labelLayer
10
171.1049804
20
268.1602329
11
172.8442382
21
268.1602329
0
LINE
8
right_labelLayer
10
172.8442382
20
268.1602329
11
173.0854492
21
265.5830845
0
LINE
8
right_labelLayer
10
173.0854492
20
265.5830845
11
173.1870117
21
265.5830845
0
ARC
8
right_labelLayer
10
177.4742698
20
258.739353
40
9.6748103
50
84.9922864
51
90.1281148
0
ARC
8
right_labelLayer
10
177.7066142
20
261.3424989
40
7.0613207
50
78.4891738
51
85.0266035
0
ARC
8
right_labelLayer
10
176.8048025
20
257.2408293
40
9.2879704
50
77.4453812
51
81.6360366
0
ARC
8
right_labelLayer
10
177.2094686
20
260.0301715
40
6.4694348
50
81.588409
51
87.1916633
0
ARC
8
right_labelLayer
10
177.2973582
20
261.5542345
40
4.9429133
50
87.3436557
51
89.965982
0
ARC
8
right_labelLayer
10
177.2769379
20
262.8456835
40
3.6515382
50
89.6335376
51
137.0880806
0
ARC
8
right_labelLayer
10
178.1731056
20
261.8379193
40
4.9956899
50
135.6209015
51
138.8377059
0
ARC
8
right_labelLayer
10
178.0417782
20
261.9661089
40
4.8124572
50
138.9575767
51
174.5422223
0
ARC
8
right_labelLayer
10
179.6090978
20
261.7208679
40
6.3967032
50
173.6907489
51
180.0882603
0
ARC
8
right_labelLayer
10
179.3874989
20
262.0897579
40
7.1168372
50
139.4139351
51
150.6032849
0
ARC
8
right_labelLayer
10
178.1114457
20
263.1832006
40
5.4363823
50
124.2321557
51
139.4161048
0
ARC
8
right_labelLayer
10
177.4291488
20
264.2131223
40
4.2010824
50
89.6796623
51
124.4405594
0
LINE
8
right_labelLayer
10
183.8256836
20
268.1602329
11
183.8256836
21
254.2461704
0
LINE
8
right_labelLayer
10
183.8256836
20
254.2461704
11
181.7182617
21
254.2461704
0
LINE
8
right_labelLayer
10
181.7182617
20
254.2461704
11
181.7182617
21
268.1602329
0
LINE
8
right_labelLayer
10
181.7182617
20
268.1602329
11
183.8256836
21
268.1602329
0
ARC
8
right_labelLayer
10
183.8757524
20
271.9451897
40
2.3352698
50
170.8451926
51
180.3545082
0
ARC
8
right_labelLayer
10
183.0015318
20
272.091362
40
1.4489379
50
155.9679095
51
171.0515928
0
ARC
8
right_labelLayer
10
182.5780936
20
272.2792173
40
0.9857009
50
133.7880369
51
155.9171679
0
ARC
8
right_labelLayer
10
182.734425
20
272.1063845
40
1.2186684
50
92.6446244
51
133.4710312
0
ARC
8
right_labelLayer
10
182.7838075
20
271.7184668
40
1.6087585
50
89.9693548
51
93.7641076
0
ARC
8
right_labelLayer
10
182.803909
20
272.0857066
40
1.2416677
50
46.3708593
51
90.8879009
0
ARC
8
right_labelLayer
10
182.9274853
20
272.2132834
40
1.0640597
50
17.7252036
51
46.4473585
0
ARC
8
right_labelLayer
10
182.3512199
20
272.0148397
40
1.6734399
50
4.9428154
51
18.1900928
0
ARC
8
right_labelLayer
10
181.6180809
20
271.9355887
40
2.4107325
50
359.8847792
51
5.3180496
0
ARC
8
right_labelLayer
10
181.8484204
20
271.9159339
40
2.1804384
50
349.834459
51
0.3890847
0
ARC
8
right_labelLayer
10
182.6422238
20
271.7678501
40
1.3729723
50
332.6322109
51
350.0705998
0
ARC
8
right_labelLayer
10
182.9511901
20
271.6152835
40
1.0284731
50
313.6153343
51
332.2677795
0
ARC
8
right_labelLayer
10
182.8022879
20
271.7508644
40
1.2294295
50
269.1788207
51
314.2807472
0
ARC
8
right_labelLayer
10
182.7707
20
271.8601578
40
1.3386697
50
250.5000026
51
270.5978443
0
ARC
8
right_labelLayer
10
182.7301889
20
271.7086719
40
1.1824147
50
225.1300995
51
249.9001223
0
ARC
8
right_labelLayer
10
182.6667595
20
271.6386038
40
1.0880165
50
197.7933781
51
224.8941836
0
ARC
8
right_labelLayer
10
183.2604189
20
271.8420449
40
1.7154908
50
184.9925537
51
198.2040505
0
ARC
8
right_labelLayer
10
184.0287236
20
271.9255554
40
2.4882017
50
179.8805964
51
185.3686084
0
LINE
8
right_labelLayer
10
194.8706054
20
268.1602329
11
199.6821289
21
268.1602329
0
LINE
8
right_labelLayer
10
199.6821289
20
268.1602329
11
199.6821289
21
266.8272251
0
LINE
8
right_labelLayer
10
199.6821289
20
266.8272251
11
197.1049804
21
266.5225376
0
LINE
8
right_labelLayer
10
192.3569336
20
256.4551548
11
194.8198242
21
256.4551548
0
LINE
8
right_labelLayer
10
194.1469726
20
254.5635532
11
191.6206054
21
254.5635532
0
ARC
8
right_labelLayer
10
194.4193882
20
264.3971921
40
3.4248357
50
29.4584446
51
38.3576699
0
ARC
8
right_labelLayer
10
193.0199173
20
263.5982879
40
5.0362729
50
23.1845508
51
29.5422569
0
ARC
8
right_labelLayer
10
191.6845588
20
263.0061047
40
6.4969555
50
21.2506433
51
23.3489056
0
ARC
8
right_labelLayer
10
193.9543258
20
263.9088016
40
4.0543858
50
6.8504698
51
20.9871794
0
ARC
8
right_labelLayer
10
192.8124366
20
263.75398
40
5.2066194
50
359.8710745
51
7.0431947
0
ARC
8
right_labelLayer
10
193.1881353
20
263.6920303
40
4.8311688
50
342.564989
51
0.5957649
0
ARC
8
right_labelLayer
10
194.0791514
20
263.4459882
40
3.907501
50
310.6097783
51
342.0923746
0
ARC
8
right_labelLayer
10
193.5795032
20
264.0271708
40
4.6739347
50
284.931586
51
310.6222708
0
ARC
8
right_labelLayer
10
192.9542551
20
266.2181265
40
6.9521286
50
272.5334834
51
285.2579697
0
ARC
8
right_labelLayer
10
192.7934919
20
268.4141767
40
9.1533592
50
269.9692171
51
272.9311769
0
ARC
8
right_labelLayer
10
192.7735448
20
266.033742
40
6.7729398
50
263.4836962
51
270.1271415
0
ARC
8
right_labelLayer
10
192.663237
20
264.9859417
40
5.7193978
50
259.4963925
51
263.3903761
0
ARC
8
right_labelLayer
10
193.3460039
20
256.0328243
40
3.75006
50
117.3934883
51
128.4095522
0
ARC
8
right_labelLayer
10
192.3805971
20
257.2304801
40
2.2118374
50
128.088203
51
147.1400159
0
ARC
8
right_labelLayer
10
191.8604862
20
257.5795159
40
1.5856001
50
147.5369211
51
180.2592198
0
ARC
8
right_labelLayer
10
191.367071
20
257.5588438
40
1.0922521
50
179.2918956
51
198.358064
0
ARC
8
right_labelLayer
10
191.1625662
20
257.5050972
40
0.8813293
50
199.2291377
51
239.5691176
0
ARC
8
right_labelLayer
10
191.3321277
20
257.7393753
40
1.1695405
50
238.2197438
51
239.8455198
0
ARC
8
right_labelLayer
10
191.4674084
20
258.0176808
40
1.4783161
50
240.7303247
51
254.5026347
0
ARC
8
right_labelLayer
10
191.8708713
20
259.4079971
40
2.9259385
50
254.1636721
51
262.2123476
0
ARC
8
right_labelLayer
10
192.1904656
20
261.6402082
40
5.1808871
50
262.0555565
51
267.2083351
0
ARC
8
right_labelLayer
10
192.3448592
20
264.4719558
40
8.0168103
50
267.0919
51
270.0862951
0
ARC
8
right_labelLayer
10
194.8658917
20
247.8286989
40
8.6265789
50
81.5744352
51
90.3059714
0
ARC
8
right_labelLayer
10
195.339076
20
250.9147318
40
5.5045433
50
68.3671589
51
81.7399154
0
ARC
8
right_labelLayer
10
195.9571116
20
252.4942047
40
3.8084845
50
52.1879381
51
68.2501163
0
ARC
8
right_labelLayer
10
196.3895544
20
253.0768904
40
3.083068
50
8.6201385
51
51.8982472
0
ARC
8
right_labelLayer
10
194.8739054
20
252.7561935
40
4.6305356
50
359.743061
51
9.7326378
0
ARC
8
right_labelLayer
10
194.9417863
20
252.678077
40
4.5629687
50
340.5268781
51
0.7201612
0
ARC
8
right_labelLayer
10
195.6121944
20
252.5111543
40
3.875827
50
302.9903693
51
339.5494475
0
ARC
8
right_labelLayer
10
194.9092081
20
253.4042973
40
5.0088021
50
303.1868078
51
304.1723745
0
ARC
8
right_labelLayer
10
194.2525545
20
254.5410306
40
6.3199739
50
286.2542337
51
302.5280048
0
ARC
8
right_labelLayer
10
193.0589684
20
258.47804
40
10.4337948
50
276.4939827
51
286.4953532
0
ARC
8
right_labelLayer
10
192.3142439
20
264.7035045
40
16.7035812
50
269.7545099
51
276.6169646
0
ARC
8
right_labelLayer
10
192.1870587
20
259.807294
40
11.8073483
50
262.5634793
51
270.2698857
0
ARC
8
right_labelLayer
10
191.6087546
20
255.5209148
40
7.4821972
50
251.21018
51
262.7063996
0
ARC
8
right_labelLayer
10
190.7752332
20
253.0744084
40
4.8975988
50
235.9668175
51
251.2228914
0
ARC
8
right_labelLayer
10
189.8917652
20
251.8140452
40
3.3587722
50
208.9036174
51
236.4231515
0
ARC
8
right_labelLayer
10
189.9728721
20
251.7800481
40
3.4140404
50
182.2079918
51
207.7461537
0
ARC
8
right_labelLayer
10
191.0051378
20
251.8831641
40
4.4499622
50
179.9783928
51
183.0226461
0
ARC
8
right_labelLayer
10
189.7770299
20
251.941376
40
3.2223501
50
138.3916154
51
181.0052634
0
ARC
8
right_labelLayer
10
190.1173161
20
251.6355587
40
3.679857
50
113.8121465
51
138.349611
0
ARC
8
right_labelLayer
10
190.7627963
20
250.2416936
40
5.2157479
50
102.2870871
51
114.117261
0
ARC
8
right_labelLayer
10
190.5599677
20
257.3282089
40
2.1872258
50
216.5861308
51
245.4968933
0
ARC
8
right_labelLayer
10
190.8724198
20
257.5933613
40
2.5962888
50
215.4647108
51
217.1748411
0
ARC
8
right_labelLayer
10
190.351546
20
257.2171539
40
1.9537798
50
182.1767258
51
215.3415708
0
ARC
8
right_labelLayer
10
190.8159122
20
257.2669659
40
2.4199162
50
179.983689
51
182.9376842
0
ARC
8
right_labelLayer
10
190.8058688
20
257.2880259
40
2.4099588
50
161.7225942
51
180.4843198
0
ARC
8
right_labelLayer
10
190.5408976
20
257.3603271
40
2.1357296
50
144.496343
51
161.3350396
0
ARC
8
right_labelLayer
10
191.2472281
20
256.8339069
40
3.016515
50
132.7259145
51
144.1479443
0
ARC
8
right_labelLayer
10
192.3792713
20
255.6250165
40
4.6726715
50
125.2212584
51
132.8655205
0
ARC
8
right_labelLayer
10
193.5173234
20
254.0447042
40
6.620058
50
121.2352386
51
125.3795372
0
ARC
8
right_labelLayer
10
191.49979
20
263.1177857
40
3.6944787
50
215.1640695
51
247.4747922
0
ARC
8
right_labelLayer
10
192.1893442
20
263.6742952
40
4.5790635
50
212.4713596
51
215.8875911
0
ARC
8
right_labelLayer
10
192.008076
20
263.5446084
40
4.3565256
50
183.0160826
51
212.3123194
0
ARC
8
right_labelLayer
10
192.9641516
20
263.6511677
40
5.3171796
50
179.9759782
51
183.6206757
0
ARC
8
right_labelLayer
10
193.7354639
20
263.704822
40
6.0887085
50
166.8195885
51
180.4839241
0
ARC
8
right_labelLayer
10
191.7155904
20
264.2147952
40
4.0059231
50
132.328774
51
167.3340854
0
ARC
8
right_labelLayer
10
191.9858213
20
263.8263607
40
4.4754857
50
106.2188986
51
131.5377597
0
ARC
8
right_labelLayer
10
192.6695539
20
261.612487
40
6.7923299
50
93.632968
51
106.5408684
0
ARC
8
right_labelLayer
10
192.8927647
20
259.1065873
40
9.3075574
50
89.9380276
51
94.0268001
0
ARC
8
right_labelLayer
10
192.928909
20
260.3363385
40
8.0778428
50
82.5852088
51
90.1849637
0
ARC
8
right_labelLayer
10
193.1757285
20
262.2460264
40
6.1522717
50
74.0089033
51
82.5694446
0
ARC
8
right_labelLayer
10
190.7027811
20
251.881447
40
2.1165511
50
179.220732
51
200.9355737
0
ARC
8
right_labelLayer
10
190.4510865
20
251.8231673
40
1.860987
50
202.0286911
51
236.1457456
0
ARC
8
right_labelLayer
10
190.8303246
20
252.3046663
40
2.4725594
50
235.0633672
51
238.5043033
0
ARC
8
right_labelLayer
10
191.2714315
20
253.0925194
40
3.3749816
50
239.1066256
51
254.4862874
0
ARC
8
right_labelLayer
10
191.859421
20
255.1198946
40
5.4858152
50
254.2324161
51
263.493723
0
ARC
8
right_labelLayer
10
192.2287642
20
258.2481979
40
8.6358306
50
263.410857
51
270.1457304
0
ARC
8
right_labelLayer
10
192.2679329
20
260.3351425
40
10.722761
50
269.9080741
51
270.0007133
0
ARC
8
right_labelLayer
10
192.3185707
20
263.7794583
40
14.167167
50
269.7957469
51
275.3991162
0
ARC
8
right_labelLayer
10
192.8488037
20
258.3361085
40
8.6980901
50
275.2956995
51
283.3516054
0
ARC
8
right_labelLayer
10
193.7126692
20
254.7780219
40
5.0367203
50
283.1370491
51
295.8573086
0
ARC
8
right_labelLayer
10
194.3527544
20
253.380629
40
3.5002287
50
296.4047845
51
301.8008739
0
ARC
8
right_labelLayer
10
194.6037198
20
253.0347044
40
3.074138
50
301.2230843
51
318.623793
0
ARC
8
right_labelLayer
10
195.1697588
20
252.5118301
40
2.3038423
50
319.0765593
51
1.1406914
0
ARC
8
right_labelLayer
10
194.6219368
20
252.5802805
40
2.8512972
50
359.5461241
51
10.9904447
0
ARC
8
right_labelLayer
10
195.7233031
20
252.8042958
40
1.7274521
50
10.6608777
51
30.9361827
0
ARC
8
right_labelLayer
10
196.0725041
20
252.9980905
40
1.3283682
50
31.50954
51
58.0777655
0
ARC
8
right_labelLayer
10
195.745218
20
252.4120717
40
1.999077
50
58.9972079
51
73.8586206
0
ARC
8
right_labelLayer
10
195.083695
20
250.2464427
40
4.2633736
50
73.4099968
51
81.5907029
0
ARC
8
right_labelLayer
10
194.5231917
20
246.6192288
40
7.9335962
50
81.417229
51
86.5756528
0
ARC
8
right_labelLayer
10
194.1797187
20
241.1542787
40
13.4093146
50
86.5054279
51
90.1399189
0
ARC
8
right_labelLayer
10
191.5904656
20
249.7192939
40
4.8443531
50
89.6435241
51
100.0209117
0
ARC
8
right_labelLayer
10
191.2859886
20
251.3756256
40
3.16033
50
99.8102854
51
116.8229759
0
ARC
8
right_labelLayer
10
190.9894
20
252.0010897
40
2.4683941
50
117.2304493
51
130.5023171
0
ARC
8
right_labelLayer
10
190.8371154
20
252.1968117
40
2.2206941
50
130.7944662
51
169.0413529
0
ARC
8
right_labelLayer
10
191.9585084
20
251.9327183
40
3.3721576
50
168.2580458
51
180.3820476
0
ARC
8
right_labelLayer
10
193.8425129
20
263.6727135
40
4.1136293
50
179.5617461
51
191.6529052
0
ARC
8
right_labelLayer
10
192.4122564
20
263.3637009
40
2.6504722
50
191.3555155
51
213.366026
0
ARC
8
right_labelLayer
10
192.068775
20
263.1653711
40
2.2546469
50
213.9573786
51
227.7971462
0
ARC
8
right_labelLayer
10
192.3676088
20
263.5278089
40
2.7239638
50
228.262062
51
254.7341455
0
ARC
8
right_labelLayer
10
192.7493895
20
264.8365616
40
4.0871273
50
254.4016631
51
267.4348619
0
ARC
8
right_labelLayer
10
192.8489917
20
266.1722796
40
5.4261101
50
267.015421
51
270.0323015
0
ARC
8
right_labelLayer
10
192.9140946
20
265.3368783
40
4.5911271
50
269.2256896
51
284.377318
0
ARC
8
right_labelLayer
10
193.5398582
20
263.1567106
40
2.3247616
50
282.7796645
51
346.4828473
0
ARC
8
right_labelLayer
10
191.6689932
20
263.6866463
40
4.2683808
50
345.436212
51
0.7465962
0
ARC
8
right_labelLayer
10
191.4060111
20
263.8070658
40
4.5314639
50
359.1806214
51
15.043169
0
ARC
8
right_labelLayer
10
193.4592972
20
264.406031
40
2.393516
50
13.9535619
51
77.6673874
0
ARC
8
right_labelLayer
10
192.8701874
20
262.294912
40
4.5834393
50
76.1095054
51
90.7028339
0
ARC
8
right_labelLayer
10
192.7820093
20
262.4561462
40
4.4219756
50
89.5859468
51
101.3333951
0
ARC
8
right_labelLayer
10
192.4660012
20
263.9633748
40
2.8820687
50
101.0620523
51
121.9738917
0
ARC
8
right_labelLayer
10
192.2439125
20
264.3628985
40
2.4256642
50
122.5210808
51
134.9966724
0
ARC
8
right_labelLayer
10
192.3353556
20
264.3081114
40
2.5291959
50
135.5839977
51
163.0015731
0
ARC
8
right_labelLayer
10
193.6709652
20
263.8703475
40
3.9345355
50
162.5912072
51
175.7343025
0
ARC
8
right_labelLayer
10
195.2729173
20
263.7125402
40
5.5439196
50
175.33936
51
180.0864202
0
LINE
8
right_labelLayer
10
214.1674804
20
254.2461704
11
212.0600586
21
254.2461704
0
LINE
8
right_labelLayer
10
212.0600586
20
254.2461704
11
212.0600586
21
263.247147
0
LINE
8
right_labelLayer
10
204.6459961
20
261.5205845
11
204.6459961
21
254.2461704
0
LINE
8
right_labelLayer
10
204.6459961
20
254.2461704
11
202.5385742
21
254.2461704
0
LINE
8
right_labelLayer
10
202.5385742
20
254.2461704
11
202.5385742
21
274.0000767
0
LINE
8
right_labelLayer
10
202.5385742
20
274.0000767
11
204.6459961
21
274.0000767
0
LINE
8
right_labelLayer
10
204.6459961
20
274.0000767
11
204.6459961
21
268.0205845
0
LINE
8
right_labelLayer
10
204.5444336
20
266.2305454
11
204.6713867
21
266.2305454
0
LINE
8
right_labelLayer
10
214.1674804
20
263.3233189
11
214.1674804
21
254.2461704
0
ARC
8
right_labelLayer
10
206.1030086
20
263.2813109
40
5.9571479
50
359.6714105
51
8.6877285
0
ARC
8
right_labelLayer
10
208.3108913
20
263.6314662
40
3.7217287
50
8.4931506
51
22.6579876
0
ARC
8
right_labelLayer
10
209.4326567
20
264.0976373
40
2.5069583
50
22.7024333
51
42.3419728
0
ARC
8
right_labelLayer
10
209.5587454
20
264.154355
40
2.3759481
50
43.3791009
51
71.5386026
0
ARC
8
right_labelLayer
10
209.0872257
20
262.8368011
40
3.7751307
50
71.0828285
51
84.3690918
0
ARC
8
right_labelLayer
10
208.8755699
20
261.0372167
40
5.5869028
50
84.0197945
51
90.1510623
0
ARC
8
right_labelLayer
10
208.8154207
20
260.2468983
40
6.3773635
50
89.5919405
51
100.3595113
0
ARC
8
right_labelLayer
10
208.3638449
20
262.6199917
40
3.9617887
50
100.1067807
51
118.0847456
0
ARC
8
right_labelLayer
10
207.9045565
20
263.5212263
40
2.9505118
50
118.4551119
51
139.6706215
0
ARC
8
right_labelLayer
10
208.3656535
20
263.2060582
40
3.5064758
50
140.6208186
51
160.5049009
0
ARC
8
right_labelLayer
10
210.7961354
20
262.3063014
40
6.0980033
50
160.156706
51
171.5312914
0
ARC
8
right_labelLayer
10
214.7287545
20
261.6832265
40
10.0795711
50
171.3202464
51
178.3406624
0
ARC
8
right_labelLayer
10
218.2475497
20
261.5260291
40
13.6015549
50
178.107974
51
180.0229352
0
ARC
8
right_labelLayer
10
185.6881646
20
267.9979866
40
18.9578449
50
357.8674217
51
0.0682971
0
ARC
8
right_labelLayer
10
192.1282404
20
267.7522914
40
12.5130881
50
354.9828817
51
357.8943335
0
ARC
8
right_labelLayer
10
196.3816287
20
267.3819243
40
8.2436069
50
351.9712892
51
354.9618568
0
ARC
8
right_labelLayer
10
208.2410026
20
263.9976271
40
4.2104729
50
119.8315979
51
147.9725947
0
ARC
8
right_labelLayer
10
208.750815
20
263.2144678
40
5.1437336
50
116.6657789
51
120.4183333
0
ARC
8
right_labelLayer
10
208.8460439
20
262.9643503
40
5.410054
50
96.6652579
51
116.3782554
0
ARC
8
right_labelLayer
10
209.0511579
20
261.549187
40
6.8395735
50
89.8927156
51
96.9959197
0
ARC
8
right_labelLayer
10
209.1167492
20
259.8388095
40
8.550102
50
80.6862945
51
90.35372
0
ARC
8
right_labelLayer
10
209.6491366
20
262.9702207
40
5.3738427
50
65.6022711
51
80.8844133
0
ARC
8
right_labelLayer
10
210.2884308
20
264.4100534
40
3.7985356
50
46.7400872
51
65.4130608
0
ARC
8
right_labelLayer
10
210.3318816
20
264.5472461
40
3.6693778
50
19.2204327
51
45.7660619
0
ARC
8
right_labelLayer
10
208.2160877
20
263.7629049
40
5.9256073
50
6.4733895
51
19.6467963
0
ARC
8
right_labelLayer
10
205.0545715
20
263.3559989
40
9.1129677
50
359.7945312
51
6.7744059
0
LINE
8
right_labelLayer
10
224.8950195
20
255.9854282
11
224.8950195
21
254.3731235
0
LINE
8
right_labelLayer
10
218.6489257
20
258.2451939
11
218.6489257
21
266.5225376
0
LINE
8
right_labelLayer
10
218.6489257
20
266.5225376
11
216.6557617
21
266.5225376
0
LINE
8
right_labelLayer
10
216.6557617
20
266.5225376
11
216.6557617
21
267.5381626
0
LINE
8
right_labelLayer
10
216.6557617
20
267.5381626
11
218.6489257
21
268.4141392
0
LINE
8
right_labelLayer
10
218.6489257
20
268.4141392
11
219.5375976
21
271.3848423
0
LINE
8
right_labelLayer
10
219.5375976
20
271.3848423
11
220.7563476
21
271.3848423
0
LINE
8
right_labelLayer
10
220.7563476
20
271.3848423
11
220.7563476
21
268.1602329
0
LINE
8
right_labelLayer
10
220.7563476
20
268.1602329
11
224.793457
21
268.1602329
0
LINE
8
right_labelLayer
10
224.793457
20
268.1602329
11
224.793457
21
266.5225376
0
LINE
8
right_labelLayer
10
224.793457
20
266.5225376
11
220.7563476
21
266.5225376
0
LINE
8
right_labelLayer
10
220.7563476
20
266.5225376
11
220.7563476
21
258.334061
0
ARC
8
right_labelLayer
10
223.0051738
20
262.6525864
40
6.9210795
50
269.880367
51
278.3028229
0
ARC
8
right_labelLayer
10
223.0700865
20
262.1206128
40
6.3853204
50
278.4157691
51
279.0077542
0
ARC
8
right_labelLayer
10
222.2943435
20
267.076085
40
11.4011383
50
278.9590415
51
280.5103724
0
ARC
8
right_labelLayer
10
223.0345498
20
263.1043626
40
7.361031
50
280.4847552
51
282.62677
0
ARC
8
right_labelLayer
10
223.6835875
20
260.2208221
40
4.4053514
50
282.5877402
51
285.5794118
0
ARC
8
right_labelLayer
10
224.0085276
20
259.0256777
40
3.1668573
50
285.7238411
51
286.2559062
0
ARC
8
right_labelLayer
10
224.0090135
20
256.2470723
40
2.072846
50
287.9887727
51
295.3048609
0
ARC
8
right_labelLayer
10
223.5090391
20
257.7597207
40
3.6659687
50
283.3069487
51
288.1197753
0
ARC
8
right_labelLayer
10
222.9808651
20
259.9629208
40
5.9315875
50
280.0070288
51
283.3734779
0
ARC
8
right_labelLayer
10
222.6275193
20
261.8804874
40
7.8813955
50
279.1862726
51
280.114305
0
ARC
8
right_labelLayer
10
222.4105933
20
263.1143375
40
9.1340682
50
275.5260238
51
279.2939522
0
ARC
8
right_labelLayer
10
222.6550247
20
260.5612162
40
6.5692747
50
270.8932713
51
275.5483925
0
ARC
8
right_labelLayer
10
222.685723
20
259.3971644
40
5.4049001
50
270.0033087
51
270.7602627
0
ARC
8
right_labelLayer
10
222.6009947
20
259.495886
40
5.5042788
50
253.7847934
51
270.8852477
0
ARC
8
right_labelLayer
10
221.9488835
20
257.2719398
40
3.1867069
50
190.3817659
51
253.8772437
0
ARC
8
right_labelLayer
10
225.2726726
20
258.1706348
40
6.6241665
50
179.3550876
51
192.8477689
0
ARC
8
right_labelLayer
10
224.9999007
20
258.3075192
40
4.2436361
50
179.6416403
51
189.7506042
0
ARC
8
right_labelLayer
10
223.5018275
20
258.0403191
40
2.7219677
50
189.547969
51
205.7873533
0
ARC
8
right_labelLayer
10
222.8861734
20
257.7564224
40
2.0441558
50
206.1294408
51
221.4083838
0
ARC
8
right_labelLayer
10
222.8171403
20
257.7040417
40
1.9577447
50
221.5949173
51
262.3505235
0
ARC
8
right_labelLayer
10
222.9813161
20
258.5482841
40
2.8167778
50
261.3265944
51
270.1913367
0
LINE
8
bottom_outsideCutPath
10
271
20
128
11
271
21
108.625
0
LINE
8
bottom_outsideCutPath
10
271
20
108.625
11
266
21
108.625
0
LINE
8
bottom_outsideCutPath
10
266
20
108.625
11
266
21
92.375
0
LINE
8
bottom_outsideCutPath
10
266
20
92.375
11
271
21
92.375
0
LINE
8
bottom_outsideCutPath
10
271
20
92.375
11
271
21
76.125
0
LINE
8
bottom_outsideCutPath
10
271
20
76.125
11
266
21
76.125
0
LINE
8
bottom_outsideCutPath
10
266
20
76.125
11
266
21
59.875
0
LINE
8
bottom_outsideCutPath
10
266
20
59.875
11
271
21
59.875
0
LINE
8
bottom_outsideCutPath
10
271
20
59.875
11
271
21
43.625
0
LINE
8
bottom_outsideCutPath
10
271
20
43.625
11
266
21
43.625
0
LINE
8
bottom_outsideCutPath
10
266
20
43.625
11
266
21
27.375
0
LINE
8
bottom_outsideCutPath
10
266
20
27.375
11
271
21
27.375
0
LINE
8
bottom_outsideCutPath
10
271
20
27.375
11
271
21
11.125
0
LINE
8
bottom_outsideCutPath
10
271
20
11.125
11
271
21
8
0
LINE
8
bottom_outsideCutPath
10
271
20
8
11
290.375
21
8
0
LINE
8
bottom_outsideCutPath
10
290.375
20
8
11
290.375
21
3
0
LINE
8
bottom_outsideCutPath
10
290.375
20
3
11
306.625
21
3
0
LINE
8
bottom_outsideCutPath
10
306.625
20
3
11
306.625
21
8
0
LINE
8
bottom_outsideCutPath
10
306.625
20
8
11
322.875
21
8
0
LINE
8
bottom_outsideCutPath
10
322.875
20
8
11
322.875
21
3
0
LINE
8
bottom_outsideCutPath
10
322.875
20
3
11
339.125
21
3
0
LINE
8
bottom_outsideCutPath
10
339.125
20
3
11
339.125
21
8
0
LINE
8
bottom_outsideCutPath
10
339.125
20
8
11
355.375
21
8
0
LINE
8
bottom_outsideCutPath
10
355.375
20
8
11
355.375
21
3
0
LINE
8
bottom_outsideCutPath
10
355.375
20
3
11
371.625
21
3
0
LINE
8
bottom_outsideCutPath
10
371.625
20
3
11
371.625
21
8
0
LINE
8
bottom_outsideCutPath
10
371.625
20
8
11
387.875
21
8
0
LINE
8
bottom_outsideCutPath
10
387.875
20
8
11
391
21
8
0
LINE
8
bottom_outsideCutPath
10
391
20
8
11
391
21
27.375
0
LINE
8
bottom_outsideCutPath
10
391
20
27.375
11
396
21
27.375
0
LINE
8
bottom_outsideCutPath
10
396
20
27.375
11
396
21
43.625
0
LINE
8
bottom_outsideCutPath
10
396
20
43.625
11
391
21
43.625
0
LINE
8
bottom_outsideCutPath
10
391
20
43.625
11
391
21
59.875
0
LINE
8
bottom_outsideCutPath
10
391
20
59.875
11
396
21
59.875
0
LINE
8
bottom_outsideCutPath
10
396
20
59.875
11
396
21
76.125
0
LINE
8
bottom_outsideCutPath
10
396
20
76.125
11
391
21
76.125
0
LINE
8
bottom_outsideCutPath
10
391
20
76.125
11
391
21
92.375
0
LINE
8
bottom_outsideCutPath
10
391
20
92.375
11
396
21
92.375
0
LINE
8
bottom_outsideCutPath
10
396
20
92.375
11
396
21
108.625
0
LINE
8
bottom_outsideCutPath
10
396
20
108.625
11
391
21
108.625
0
LINE
8
bottom_outsideCutPath
10
391
20
108.625
11
391
21
124.875
0
LINE
8
bottom_outsideCutPath
10
391
20
124.875
11
391
21
128
0
LINE
8
bottom_outsideCutPath
10
391
20
128
11
371.625
21
128
0
LINE
8
bottom_outsideCutPath
10
371.625
20
128
11
371.625
21
133
0
LINE
8
bottom_outsideCutPath
10
371.625
20
133
11
355.375
21
133
0
LINE
8
bottom_outsideCutPath
10
355.375
20
133
11
355.375
21
128
0
LINE
8
bottom_outsideCutPath
10
355.375
20
128
11
339.125
21
128
0
LINE
8
bottom_outsideCutPath
10
339.125
20
128
11
339.125
21
133
0
LINE
8
bottom_outsideCutPath
10
339.125
20
133
11
322.875
21
133
0
LINE
8
bottom_outsideCutPath
10
322.875
20
133
11
322.875
21
128
0
LINE
8
bottom_outsideCutPath
10
322.875
20
128
11
306.625
21
128
0
LINE
8
bottom_outsideCutPath
10
306.625
20
128
11
306.625
21
133
0
LINE
8
bottom_outsideCutPath
10
306.625
20
133
11
290.375
21
133
0
LINE
8
bottom_outsideCutPath
10
290.375
20
133
11
290.375
21
128
0
LINE
8
bottom_outsideCutPath
10
290.375
20
128
11
274.125
21
128
0
LINE
8
bottom_outsideCutPath
10
274.125
20
128
11
271
21
128
0
LINE
8
bottom_labelLayer
10
290.3368525
20
60.0403675
11
290.1845087
21
60.0403675
0
LINE
8
bottom_labelLayer
10
290.1845087
20
60.0403675
11
289.7401728
21
58.2503285
0
LINE
8
bottom_labelLayer
10
289.7401728
20
58.2503285
11
288.2294306
21
58.2503285
0
LINE
8
bottom_labelLayer
10
288.2294306
20
58.2503285
11
288.2294306
21
78.0042347
0
LINE
8
bottom_labelLayer
10
288.2294306
20
78.0042347
11
290.3368525
21
78.0042347
0
LINE
8
bottom_labelLayer
10
290.3368525
20
78.0042347
11
290.3368525
21
73.2054066
0
LINE
8
bottom_labelLayer
10
290.23529
20
70.3108754
11
290.3368525
21
70.3108754
0
ARC
8
bottom_labelLayer
10
294.7672598
20
65.9522027
40
6.4410142
50
74.2393357
51
90.5623786
0
ARC
8
bottom_labelLayer
10
295.1931612
20
67.5146424
40
4.8216535
50
38.5631274
51
74.0670354
0
ARC
8
bottom_labelLayer
10
294.0971243
20
66.6624102
40
6.2099532
50
16.470929
51
38.4075254
0
ARC
8
bottom_labelLayer
10
290.9396097
20
65.6723049
40
9.518773
50
5.1338517
51
16.7973465
0
ARC
8
bottom_labelLayer
10
286.9535051
20
65.2488746
40
13.5269327
50
359.8779295
51
5.4093582
0
ARC
8
bottom_labelLayer
10
288.1243079
20
65.1471571
40
12.3563143
50
350.6562833
51
0.3380271
0
ARC
8
bottom_labelLayer
10
292.4319216
20
64.41448
40
7.9869333
50
335.8306027
51
350.8254814
0
ARC
8
bottom_labelLayer
10
294.3267665
20
63.5966389
40
5.9234133
50
321.3161499
51
335.5436197
0
ARC
8
bottom_labelLayer
10
295.0511764
20
63.0063557
40
4.9890001
50
274.0640094
51
321.4080981
0
ARC
8
bottom_labelLayer
10
294.7136967
20
65.1441171
40
7.1477013
50
269.9225915
51
275.5481405
0
ARC
8
bottom_labelLayer
10
294.6685012
20
64.3885871
40
6.3922637
50
255.7755318
51
270.3185465
0
ARC
8
bottom_labelLayer
10
294.4860852
20
63.5781354
40
5.5618814
50
245.9801753
51
255.5455795
0
ARC
8
bottom_labelLayer
10
294.1327588
20
62.7564683
40
4.6675589
50
215.5850155
51
245.8361633
0
ARC
8
bottom_labelLayer
10
246.3985705
20
73.1682671
40
43.9382976
50
358.1123219
51
0.0484302
0
ARC
8
bottom_labelLayer
10
258.6272351
20
72.7577207
40
31.7027467
50
355.7238734
51
358.1258919
0
ARC
8
bottom_labelLayer
10
263.9566016
20
72.3921204
40
26.3609757
50
355.4716854
51
355.6525992
0
ARC
8
bottom_labelLayer
10
294.2671026
20
67.5702059
40
4.7914648
50
95.1835148
51
145.1108955
0
ARC
8
bottom_labelLayer
10
294.6882555
20
65.1952941
40
7.19763
50
89.8743496
51
96.8145493
0
ARC
8
bottom_labelLayer
10
294.3552325
20
64.7063885
40
5.922034
50
89.5731345
51
100.7324227
0
ARC
8
bottom_labelLayer
10
293.9168369
20
66.9213165
40
3.6642568
50
100.446944
51
119.6700773
0
ARC
8
bottom_labelLayer
10
293.5103114
20
67.6813629
40
2.8027222
50
120.1402833
51
142.4248949
0
ARC
8
bottom_labelLayer
10
294.1828765
20
67.2364397
40
3.6075396
50
143.3382385
51
161.2559821
0
ARC
8
bottom_labelLayer
10
296.9953901
20
66.2379025
40
6.591891
50
160.8926281
51
171.2334398
0
ARC
8
bottom_labelLayer
10
301.6906095
20
65.4804521
40
11.3477487
50
171.0667817
51
177.8456775
0
ARC
8
bottom_labelLayer
10
306.5732278
20
65.2321133
40
16.2363799
50
177.6176424
51
180.0425517
0
ARC
8
bottom_labelLayer
10
304.2708268
20
65.1656449
40
13.9340805
50
179.7762693
51
185.707536
0
ARC
8
bottom_labelLayer
10
298.7771418
20
64.5995992
40
8.411354
50
185.5924925
51
194.2050634
0
ARC
8
bottom_labelLayer
10
295.2579024
20
63.6862343
40
4.7756366
50
193.9430286
51
208.0218426
0
ARC
8
bottom_labelLayer
10
293.8340261
20
62.9618693
40
3.1785076
50
208.5536538
51
217.5605132
0
ARC
8
bottom_labelLayer
10
293.7180105
20
62.9136137
40
3.0572967
50
218.1690404
51
253.8047241
0
ARC
8
bottom_labelLayer
10
294.2850798
20
64.6619416
40
4.8947387
50
253.1382328
51
266.848319
0
ARC
8
bottom_labelLayer
10
294.4440992
20
66.5372396
40
6.7761718
50
266.3775462
51
270.0510246
0
ARC
8
bottom_labelLayer
10
294.4950882
20
63.961952
40
4.2011219
50
269.3868894
51
285.8630759
0
ARC
8
bottom_labelLayer
10
294.8072052
20
62.8339211
40
3.0307461
50
286.0162894
51
326.8497361
0
ARC
8
bottom_labelLayer
10
293.3007693
20
63.8318805
40
4.8377285
50
326.7104981
51
343.6661852
0
ARC
8
bottom_labelLayer
10
290.4807924
20
64.6935739
40
7.7863
50
343.4171413
51
353.6369071
0
ARC
8
bottom_labelLayer
10
286.2215181
20
65.1989664
40
12.0753849
50
353.4934757
51
0.2205375
0
ARC
8
bottom_labelLayer
10
285.8460863
20
65.295842
40
12.4508291
50
359.7680876
51
6.3095323
0
ARC
8
bottom_labelLayer
10
290.5360582
20
65.8340465
40
7.7301421
50
6.164864
51
16.0396414
0
ARC
8
bottom_labelLayer
10
293.5572633
20
66.7243949
40
4.5805927
50
15.7779444
51
32.0151236
0
ARC
8
bottom_labelLayer
10
294.4993341
20
67.2638782
40
3.496052
50
32.7034653
51
35.5242472
0
ARC
8
bottom_labelLayer
10
294.8439559
20
67.5088215
40
3.0732513
50
35.5408339
51
79.8011303
0
ARC
8
bottom_labelLayer
10
294.4312481
20
65.7543149
40
4.8740476
50
78.6781433
51
90.3749447
0
ARC
8
bottom_labelLayer
10
305.2863662
20
65.1466688
40
10.8856946
50
349.1761893
51
0.386264
0
ARC
8
bottom_labelLayer
10
308.9513261
20
64.4160506
40
7.1487949
50
330.2506994
51
349.4116554
0
ARC
8
bottom_labelLayer
10
310.0792007
20
63.8298272
40
5.8788997
50
318.143983
51
329.7566094
0
ARC
8
bottom_labelLayer
10
310.2827773
20
63.6666809
40
5.618428
50
278.8959152
51
317.9979145
0
ARC
8
bottom_labelLayer
10
309.7582601
20
66.1796946
40
8.18335
50
269.7502874
51
279.8033165
0
ARC
8
bottom_labelLayer
10
309.6731931
20
64.7637607
40
6.7675188
50
253.5436889
51
270.4182512
0
ARC
8
bottom_labelLayer
10
309.4479184
20
63.8923402
40
5.8680593
50
238.8115609
51
253.2428286
0
ARC
8
bottom_labelLayer
10
309.3752129
20
63.7461277
40
5.7053441
50
207.7947073
51
238.6757913
0
ARC
8
bottom_labelLayer
10
310.4183482
20
64.3850124
40
6.9264895
50
205.6560047
51
208.4461702
0
ARC
8
bottom_labelLayer
10
311.222044
20
64.7198945
40
7.796078
50
188.9102467
51
205.3171423
0
ARC
8
bottom_labelLayer
10
313.9301266
20
65.1785558
40
10.5425745
50
179.7744631
51
189.0932836
0
ARC
8
bottom_labelLayer
10
314.3296157
20
65.2941686
40
10.942233
50
169.2442985
51
180.3880768
0
ARC
8
bottom_labelLayer
10
310.6137141
20
66.0286677
40
7.1545947
50
150.711143
51
169.4695473
0
ARC
8
bottom_labelLayer
10
309.4274947
20
66.6378341
40
5.8222106
50
138.1759512
51
150.2287319
0
ARC
8
bottom_labelLayer
10
309.230168
20
66.7892595
40
5.5742178
50
99.1759363
51
137.9832791
0
ARC
8
bottom_labelLayer
10
309.7732663
20
64.2333766
40
8.1850096
50
89.7326268
51
100.0759781
0
ARC
8
bottom_labelLayer
10
309.8818133
20
65.3371725
40
7.0814742
50
73.5222731
51
90.5692188
0
ARC
8
bottom_labelLayer
10
310.2971008
20
66.84602
40
5.516882
50
41.1445698
51
73.213387
0
ARC
8
bottom_labelLayer
10
309.5043512
20
66.1646634
40
6.562175
50
13.5014383
51
41.07034
0
ARC
8
bottom_labelLayer
10
306.4415783
20
65.3631774
40
9.7276404
50
1.1277174
51
13.8799991
0
ARC
8
bottom_labelLayer
10
303.8036172
20
65.2218108
40
12.3681962
50
359.9918664
51
1.5419655
0
ARC
8
bottom_labelLayer
10
316.2430284
20
65.1652865
40
10.6719414
50
179.7059558
51
187.9160726
0
ARC
8
bottom_labelLayer
10
312.328902
20
64.6030279
40
6.7177012
50
187.7639323
51
200.0976778
0
ARC
8
bottom_labelLayer
10
310.1726069
20
63.8129595
40
4.4212224
50
200.0845883
51
216.9131772
0
ARC
8
bottom_labelLayer
10
309.385213
20
63.2507223
40
3.4540615
50
217.300959
51
261.7099104
0
ARC
8
bottom_labelLayer
10
309.7507504
20
64.9950238
40
5.2340021
50
260.5033091
51
270.2476787
0
ARC
8
bottom_labelLayer
10
309.8205214
20
64.6558351
40
4.8949914
50
269.4481542
51
284.7255863
0
ARC
8
bottom_labelLayer
10
310.2080283
20
63.2187016
40
3.4065745
50
284.5662368
51
322.6333762
0
ARC
8
bottom_labelLayer
10
309.3020142
20
63.8732558
40
4.5240004
50
323.0089275
51
342.6390475
0
ARC
8
bottom_labelLayer
10
306.7106066
20
64.7202009
40
7.2501589
50
342.3615795
51
353.7537466
0
ARC
8
bottom_labelLayer
10
302.8874649
20
65.1810312
40
11.1008234
50
353.5362984
51
0.201418
0
ARC
8
bottom_labelLayer
10
303.4731997
20
65.2737225
40
10.5151569
50
359.7075717
51
7.8972668
0
ARC
8
bottom_labelLayer
10
307.3241484
20
65.82579
40
6.6249017
50
7.7439987
51
20.0690177
0
ARC
8
bottom_labelLayer
10
309.4700531
20
66.6132574
40
4.3390769
50
20.0256905
51
37.4350624
0
ARC
8
bottom_labelLayer
10
310.1820387
20
67.1184727
40
3.4667729
50
37.9577622
51
80.4006231
0
ARC
8
bottom_labelLayer
10
309.7774379
20
65.3131813
40
5.3151583
50
79.3453538
51
90.3174924
0
ARC
8
bottom_labelLayer
10
309.7025203
20
65.61304
40
5.0154242
50
89.4806052
51
103.8804992
0
ARC
8
bottom_labelLayer
10
309.2810949
20
67.2178287
40
3.3564862
50
103.4685247
51
142.3118859
0
ARC
8
bottom_labelLayer
10
310.1003807
20
66.6416494
40
4.3573145
50
142.9025804
51
162.3749538
0
ARC
8
bottom_labelLayer
10
312.681939
20
65.7813513
40
7.0782803
50
162.0653081
51
173.1674828
0
ARC
8
bottom_labelLayer
10
316.7072661
20
65.2679443
40
11.1361415
50
173.0086155
51
180.2463924
0
LINE
8
bottom_labelLayer
10
326.2645868
20
59.9895863
11
326.2645868
21
58.3772816
0
LINE
8
bottom_labelLayer
10
320.0184931
20
62.2493519
11
320.0184931
21
70.5266957
0
LINE
8
bottom_labelLayer
10
320.0184931
20
70.5266957
11
318.025329
21
70.5266957
0
LINE
8
bottom_labelLayer
10
318.025329
20
70.5266957
11
318.025329
21
71.5423207
0
LINE
8
bottom_labelLayer
10
318.025329
20
71.5423207
11
320.0184931
21
72.4182972
0
LINE
8
bottom_labelLayer
10
320.0184931
20
72.4182972
11
320.907165
21
75.3890004
0
LINE
8
bottom_labelLayer
10
320.907165
20
75.3890004
11
322.125915
21
75.3890004
0
LINE
8
bottom_labelLayer
10
322.125915
20
75.3890004
11
322.125915
21
72.164391
0
LINE
8
bottom_labelLayer
10
322.125915
20
72.164391
11
326.1630243
21
72.164391
0
LINE
8
bottom_labelLayer
10
326.1630243
20
72.164391
11
326.1630243
21
70.5266957
0
LINE
8
bottom_labelLayer
10
326.1630243
20
70.5266957
11
322.125915
21
70.5266957
0
LINE
8
bottom_labelLayer
10
322.125915
20
70.5266957
11
322.125915
21
62.3382191
0
ARC
8
bottom_labelLayer
10
324.3747411
20
66.6567445
40
6.9210795
50
269.880367
51
278.3028229
0
ARC
8
bottom_labelLayer
10
324.4396538
20
66.1247709
40
6.3853204
50
278.4157691
51
279.0077542
0
ARC
8
bottom_labelLayer
10
323.6639109
20
71.080243
40
11.4011383
50
278.9590415
51
280.5103724
0
ARC
8
bottom_labelLayer
10
324.4041172
20
67.1085207
40
7.361031
50
280.4847552
51
282.62677
0
ARC
8
bottom_labelLayer
10
325.0531549
20
64.2249801
40
4.4053514
50
282.5877402
51
285.5794118
0
ARC
8
bottom_labelLayer
10
325.3780949
20
63.0298357
40
3.1668573
50
285.7238411
51
286.2559062
0
ARC
8
bottom_labelLayer
10
325.3785808
20
60.2512303
40
2.072846
50
287.9887727
51
295.3048609
0
ARC
8
bottom_labelLayer
10
324.8786065
20
61.7638788
40
3.6659687
50
283.3069487
51
288.1197753
0
ARC
8
bottom_labelLayer
10
324.3504324
20
63.9670788
40
5.9315875
50
280.0070288
51
283.3734779
0
ARC
8
bottom_labelLayer
10
323.9970866
20
65.8846454
40
7.8813955
50
279.1862726
51
280.114305
0
ARC
8
bottom_labelLayer
10
323.7801606
20
67.1184956
40
9.1340682
50
275.5260238
51
279.2939522
0
ARC
8
bottom_labelLayer
10
324.024592
20
64.5653743
40
6.5692747
50
270.8932713
51
275.5483925
0
ARC
8
bottom_labelLayer
10
324.0552903
20
63.4013224
40
5.4049001
50
270.0033087
51
270.7602627
0
ARC
8
bottom_labelLayer
10
323.9705621
20
63.5000441
40
5.5042788
50
253.7847934
51
270.8852477
0
ARC
8
bottom_labelLayer
10
323.3184509
20
61.2760979
40
3.1867069
50
190.3817659
51
253.8772437
0
ARC
8
bottom_labelLayer
10
326.6422399
20
62.1747929
40
6.6241665
50
179.3550876
51
192.8477689
0
ARC
8
bottom_labelLayer
10
326.3694681
20
62.3116772
40
4.2436361
50
179.6416403
51
189.7506042
0
ARC
8
bottom_labelLayer
10
324.8713949
20
62.0444772
40
2.7219677
50
189.547969
51
205.7873533
0
ARC
8
bottom_labelLayer
10
324.2557407
20
61.7605804
40
2.0441558
50
206.1294408
51
221.4083838
0
ARC
8
bottom_labelLayer
10
324.1867077
20
61.7081997
40
1.9577447
50
221.5949173
51
262.3505235
0
ARC
8
bottom_labelLayer
10
324.3508835
20
62.5524422
40
2.8167778
50
261.3265944
51
270.1913367
0
LINE
8
bottom_labelLayer
10
335.4432978
20
59.9895863
11
335.4432978
21
58.3772816
0
LINE
8
bottom_labelLayer
10
329.197204
20
62.2493519
11
329.197204
21
70.5266957
0
LINE
8
bottom_labelLayer
10
329.197204
20
70.5266957
11
327.20404
21
70.5266957
0
LINE
8
bottom_labelLayer
10
327.20404
20
70.5266957
11
327.20404
21
71.5423207
0
LINE
8
bottom_labelLayer
10
327.20404
20
71.5423207
11
329.197204
21
72.4182972
0
LINE
8
bottom_labelLayer
10
329.197204
20
72.4182972
11
330.0858759
21
75.3890004
0
LINE
8
bottom_labelLayer
10
330.0858759
20
75.3890004
11
331.3046259
21
75.3890004
0
LINE
8
bottom_labelLayer
10
331.3046259
20
75.3890004
11
331.3046259
21
72.164391
0
LINE
8
bottom_labelLayer
10
331.3046259
20
72.164391
11
335.3417353
21
72.164391
0
LINE
8
bottom_labelLayer
10
335.3417353
20
72.164391
11
335.3417353
21
70.5266957
0
LINE
8
bottom_labelLayer
10
335.3417353
20
70.5266957
11
331.3046259
21
70.5266957
0
LINE
8
bottom_labelLayer
10
331.3046259
20
70.5266957
11
331.3046259
21
62.3382191
0
ARC
8
bottom_labelLayer
10
333.553452
20
66.6567445
40
6.9210795
50
269.880367
51
278.3028229
0
ARC
8
bottom_labelLayer
10
333.6183648
20
66.1247709
40
6.3853204
50
278.4157691
51
279.0077542
0
ARC
8
bottom_labelLayer
10
332.8426218
20
71.080243
40
11.4011383
50
278.9590415
51
280.5103724
0
ARC
8
bottom_labelLayer
10
333.5828281
20
67.1085207
40
7.361031
50
280.4847552
51
282.62677
0
ARC
8
bottom_labelLayer
10
334.2318658
20
64.2249801
40
4.4053514
50
282.5877402
51
285.5794118
0
ARC
8
bottom_labelLayer
10
334.5568058
20
63.0298357
40
3.1668573
50
285.7238411
51
286.2559062
0
ARC
8
bottom_labelLayer
10
334.5572918
20
60.2512303
40
2.072846
50
287.9887727
51
295.3048609
0
ARC
8
bottom_labelLayer
10
334.0573174
20
61.7638788
40
3.6659687
50
283.3069487
51
288.1197753
0
ARC
8
bottom_labelLayer
10
333.5291433
20
63.9670788
40
5.9315875
50
280.0070288
51
283.3734779
0
ARC
8
bottom_labelLayer
10
333.1757976
20
65.8846454
40
7.8813955
50
279.1862726
51
280.114305
0
ARC
8
bottom_labelLayer
10
332.9588716
20
67.1184956
40
9.1340682
50
275.5260238
51
279.2939522
0
ARC
8
bottom_labelLayer
10
333.203303
20
64.5653743
40
6.5692747
50
270.8932713
51
275.5483925
0
ARC
8
bottom_labelLayer
10
333.2340013
20
63.4013224
40
5.4049001
50
270.0033087
51
270.7602627
0
ARC
8
bottom_labelLayer
10
333.149273
20
63.5000441
40
5.5042788
50
253.7847934
51
270.8852477
0
ARC
8
bottom_labelLayer
10
332.4971618
20
61.2760979
40
3.1867069
50
190.3817659
51
253.8772437
0
ARC
8
bottom_labelLayer
10
335.8209509
20
62.1747929
40
6.6241665
50
179.3550876
51
192.8477689
0
ARC
8
bottom_labelLayer
10
335.548179
20
62.3116772
40
4.2436361
50
179.6416403
51
189.7506042
0
ARC
8
bottom_labelLayer
10
334.0501058
20
62.0444772
40
2.7219677
50
189.547969
51
205.7873533
0
ARC
8
bottom_labelLayer
10
333.4344516
20
61.7605804
40
2.0441558
50
206.1294408
51
221.4083838
0
ARC
8
bottom_labelLayer
10
333.3654186
20
61.7081997
40
1.9577447
50
221.5949173
51
262.3505235
0
ARC
8
bottom_labelLayer
10
333.5295944
20
62.5524422
40
2.8167778
50
261.3265944
51
270.1913367
0
ARC
8
bottom_labelLayer
10
339.3478896
20
65.1466688
40
10.8856946
50
349.1761893
51
0.386264
0
ARC
8
bottom_labelLayer
10
343.0128495
20
64.4160506
40
7.1487949
50
330.2506994
51
349.4116554
0
ARC
8
bottom_labelLayer
10
344.1407241
20
63.8298272
40
5.8788997
50
318.143983
51
329.7566094
0
ARC
8
bottom_labelLayer
10
344.3443008
20
63.6666809
40
5.618428
50
278.8959152
51
317.9979145
0
ARC
8
bottom_labelLayer
10
343.8197835
20
66.1796946
40
8.18335
50
269.7502874
51
279.8033165
0
ARC
8
bottom_labelLayer
10
343.7347166
20
64.7637607
40
6.7675188
50
253.5436889
51
270.4182512
0
ARC
8
bottom_labelLayer
10
343.5094419
20
63.8923402
40
5.8680593
50
238.8115609
51
253.2428286
0
ARC
8
bottom_labelLayer
10
343.4367364
20
63.7461277
40
5.7053441
50
207.7947073
51
238.6757913
0
ARC
8
bottom_labelLayer
10
344.4798716
20
64.3850124
40
6.9264895
50
205.6560047
51
208.4461702
0
ARC
8
bottom_labelLayer
10
345.2835674
20
64.7198945
40
7.796078
50
188.9102467
51
205.3171423
0
ARC
8
bottom_labelLayer
10
347.9916501
20
65.1785558
40
10.5425745
50
179.7744631
51
189.0932836
0
ARC
8
bottom_labelLayer
10
348.3911391
20
65.2941686
40
10.942233
50
169.2442985
51
180.3880768
0
ARC
8
bottom_labelLayer
10
344.6752376
20
66.0286677
40
7.1545947
50
150.711143
51
169.4695473
0
ARC
8
bottom_labelLayer
10
343.4890181
20
66.6378341
40
5.8222106
50
138.1759512
51
150.2287319
0
ARC
8
bottom_labelLayer
10
343.2916914
20
66.7892595
40
5.5742178
50
99.1759363
51
137.9832791
0
ARC
8
bottom_labelLayer
10
343.8347897
20
64.2333766
40
8.1850096
50
89.7326268
51
100.0759781
0
ARC
8
bottom_labelLayer
10
343.9433367
20
65.3371725
40
7.0814742
50
73.5222731
51
90.5692188
0
ARC
8
bottom_labelLayer
10
344.3586242
20
66.84602
40
5.516882
50
41.1445698
51
73.213387
0
ARC
8
bottom_labelLayer
10
343.5658747
20
66.1646634
40
6.562175
50
13.5014383
51
41.07034
0
ARC
8
bottom_labelLayer
10
340.5031017
20
65.3631774
40
9.7276404
50
1.1277174
51
13.8799991
0
ARC
8
bottom_labelLayer
10
337.8651406
20
65.2218108
40
12.3681962
50
359.9918664
51
1.5419655
0
ARC
8
bottom_labelLayer
10
350.3045518
20
65.1652865
40
10.6719414
50
179.7059558
51
187.9160726
0
ARC
8
bottom_labelLayer
10
346.3904255
20
64.6030279
40
6.7177012
50
187.7639323
51
200.0976778
0
ARC
8
bottom_labelLayer
10
344.2341304
20
63.8129595
40
4.4212224
50
200.0845883
51
216.9131772
0
ARC
8
bottom_labelLayer
10
343.4467364
20
63.2507223
40
3.4540615
50
217.300959
51
261.7099104
0
ARC
8
bottom_labelLayer
10
343.8122738
20
64.9950238
40
5.2340021
50
260.5033091
51
270.2476787
0
ARC
8
bottom_labelLayer
10
343.8820448
20
64.6558351
40
4.8949914
50
269.4481542
51
284.7255863
0
ARC
8
bottom_labelLayer
10
344.2695518
20
63.2187016
40
3.4065745
50
284.5662368
51
322.6333762
0
ARC
8
bottom_labelLayer
10
343.3635376
20
63.8732558
40
4.5240004
50
323.0089275
51
342.6390475
0
ARC
8
bottom_labelLayer
10
340.7721301
20
64.7202009
40
7.2501589
50
342.3615795
51
353.7537466
0
ARC
8
bottom_labelLayer
10
336.9489884
20
65.1810312
40
11.1008234
50
353.5362984
51
0.201418
0
ARC
8
bottom_labelLayer
10
337.5347232
20
65.2737225
40
10.5151569
50
359.7075717
51
7.8972668
0
ARC
8
bottom_labelLayer
10
341.3856718
20
65.82579
40
6.6249017
50
7.7439987
51
20.0690177
0
ARC
8
bottom_labelLayer
10
343.5315765
20
66.6132574
40
4.3390769
50
20.0256905
51
37.4350624
0
ARC
8
bottom_labelLayer
10
344.2435621
20
67.1184727
40
3.4667729
50
37.9577622
51
80.4006231
0
ARC
8
bottom_labelLayer
10
343.8389614
20
65.3131813
40
5.3151583
50
79.3453538
51
90.3174924
0
ARC
8
bottom_labelLayer
10
343.7640438
20
65.61304
40
5.0154242
50
89.4806052
51
103.8804992
0
ARC
8
bottom_labelLayer
10
343.3426184
20
67.2178287
40
3.3564862
50
103.4685247
51
142.3118859
0
ARC
8
bottom_labelLayer
10
344.1619042
20
66.6416494
40
4.3573145
50
142.9025804
51
162.3749538
0
ARC
8
bottom_labelLayer
10
346.7434625
20
65.7813513
40
7.0782803
50
162.0653081
51
173.1674828
0
ARC
8
bottom_labelLayer
10
350.7687895
20
65.2679443
40
11.1361415
50
173.0086155
51
180.2463924
0
LINE
8
bottom_labelLayer
10
373.7704462
20
58.2503285
11
371.6630243
21
58.2503285
0
LINE
8
bottom_labelLayer
10
371.6630243
20
58.2503285
11
371.6630243
21
67.3020863
0
LINE
8
bottom_labelLayer
10
364.8964228
20
66.0198597
11
364.8964228
21
58.2503285
0
LINE
8
bottom_labelLayer
10
364.8964228
20
58.2503285
11
362.7890009
21
58.2503285
0
LINE
8
bottom_labelLayer
10
362.7890009
20
58.2503285
11
362.7890009
21
67.3020863
0
LINE
8
bottom_labelLayer
10
356.0350946
20
65.5501332
11
356.0350946
21
58.2503285
0
LINE
8
bottom_labelLayer
10
356.0350946
20
58.2503285
11
353.9276728
21
58.2503285
0
LINE
8
bottom_labelLayer
10
353.9276728
20
58.2503285
11
353.9276728
21
72.164391
0
LINE
8
bottom_labelLayer
10
353.9276728
20
72.164391
11
355.64154
21
72.164391
0
LINE
8
bottom_labelLayer
10
355.64154
20
72.164391
11
355.9843134
21
70.2600941
0
LINE
8
bottom_labelLayer
10
355.9843134
20
70.2600941
11
356.0858759
21
70.2600941
0
LINE
8
bottom_labelLayer
10
364.4647821
20
70.0569691
11
364.5663446
21
70.0569691
0
LINE
8
bottom_labelLayer
10
373.7704462
20
67.3274769
11
373.7704462
21
58.2503285
0
ARC
8
bottom_labelLayer
10
365.4460618
20
67.3351994
40
6.2170507
50
359.694831
51
8.1471629
0
ARC
8
bottom_labelLayer
10
367.7359915
20
67.6740855
40
3.9022223
50
7.9864464
51
20.7949499
0
ARC
8
bottom_labelLayer
10
369.0017994
20
68.1589677
40
2.5467307
50
20.7071481
51
40.0217491
0
ARC
8
bottom_labelLayer
10
369.2794946
20
68.3406603
40
2.2175799
50
41.040805
51
73.1792583
0
ARC
8
bottom_labelLayer
10
368.8776781
20
67.1253602
40
3.4973152
50
72.6395501
51
86.2568055
0
ARC
8
bottom_labelLayer
10
368.7489509
20
65.7363054
40
4.8919564
50
85.8144442
51
90.0684979
0
ARC
8
bottom_labelLayer
10
368.7016614
20
65.2056841
40
5.4227324
50
89.5621362
51
101.2961628
0
ARC
8
bottom_labelLayer
10
368.2932383
20
67.1609485
40
3.4253884
50
101.0032258
51
121.7840431
0
ARC
8
bottom_labelLayer
10
367.9827348
20
67.7152848
40
2.7907733
50
122.359711
51
140.2884067
0
ARC
8
bottom_labelLayer
10
368.5413604
20
67.3056807
40
3.4824641
50
140.9765183
51
161.1699559
0
ARC
8
bottom_labelLayer
10
370.645819
20
66.5567486
40
5.7160959
50
160.873156
51
172.5272662
0
ARC
8
bottom_labelLayer
10
374.162345
20
66.0710871
40
9.2659495
50
172.3776433
51
180.1829669
0
ARC
8
bottom_labelLayer
10
376.587205
20
66.0198727
40
11.6907822
50
179.8940184
51
180.0000636
0
ARC
8
bottom_labelLayer
10
356.5720384
20
67.3351994
40
6.2170507
50
359.694831
51
8.1471629
0
ARC
8
bottom_labelLayer
10
358.8619681
20
67.6740855
40
3.9022223
50
7.9864464
51
20.7949499
0
ARC
8
bottom_labelLayer
10
360.1277759
20
68.1589677
40
2.5467307
50
20.7071481
51
40.0217491
0
ARC
8
bottom_labelLayer
10
360.4112456
20
68.3446505
40
2.2106048
50
41.0610717
51
72.8993616
0
ARC
8
bottom_labelLayer
10
360.0018167
20
67.1257355
40
3.4961791
50
72.3601066
51
85.9561829
0
ARC
8
bottom_labelLayer
10
359.8632157
20
65.6933252
40
4.9349379
50
85.5237752
51
90.0793213
0
ARC
8
bottom_labelLayer
10
359.8159428
20
65.3941912
40
5.2342232
50
89.5573139
51
101.4832232
0
ARC
8
bottom_labelLayer
10
359.4141977
20
67.2764507
40
3.3097155
50
101.1546297
51
123.0655735
0
ARC
8
bottom_labelLayer
10
359.1411115
20
67.7521525
40
2.7622301
50
123.702035
51
142.3022132
0
ARC
8
bottom_labelLayer
10
359.7807939
20
67.3181824
40
3.5340712
50
143.0769616
51
161.391394
0
ARC
8
bottom_labelLayer
10
362.3593174
20
66.4075058
40
6.2685184
50
161.0234446
51
171.4469224
0
ARC
8
bottom_labelLayer
10
366.628015
20
65.7388266
40
10.5892244
50
171.3041963
51
178.3501681
0
ARC
8
bottom_labelLayer
10
370.7077415
20
65.556617
40
14.6726483
50
178.0976172
51
180.025319
0
ARC
8
bottom_labelLayer
10
359.6561329
20
68.1606071
40
4.1418089
50
117.120952
51
149.5423744
0
ARC
8
bottom_labelLayer
10
360.07884
20
67.4093006
40
5.0033197
50
93.8343233
51
117.5072203
0
ARC
8
bottom_labelLayer
10
360.1955945
20
66.3751636
40
6.0431348
50
89.9662225
51
94.2831534
0
ARC
8
bottom_labelLayer
10
360.2655453
20
65.5189062
40
6.8997104
50
77.5572219
51
90.5513011
0
ARC
8
bottom_labelLayer
10
360.9057636
20
68.2726002
40
4.0728763
50
52.7027048
51
78.0053863
0
ARC
8
bottom_labelLayer
10
361.1338603
20
68.6969814
40
3.5978613
50
22.2097851
51
51.4970522
0
ARC
8
bottom_labelLayer
10
368.3840312
20
67.8690444
40
4.4001983
50
119.4041737
51
150.182881
0
ARC
8
bottom_labelLayer
10
368.8720785
20
67.1268595
40
5.2867383
50
118.2583941
51
120.0629829
0
ARC
8
bottom_labelLayer
10
368.8706434
20
67.0726921
40
5.3338385
50
95.8635059
51
117.9693322
0
ARC
8
bottom_labelLayer
10
369.0511631
20
65.7673949
40
6.6509088
50
89.9196919
51
96.2617461
0
ARC
8
bottom_labelLayer
10
369.109117
20
65.0929498
40
7.3255089
50
79.9360945
51
90.3803716
0
ARC
8
bottom_labelLayer
10
369.5972268
20
67.7364942
40
4.6373816
50
62.9723156
51
80.1665113
0
ARC
8
bottom_labelLayer
10
370.1074824
20
68.7833399
40
3.4730589
50
44.2289899
51
62.6229097
0
ARC
8
bottom_labelLayer
10
369.9557192
20
68.7162953
40
3.6290321
50
19.5611979
51
43.3161147
0
ARC
8
bottom_labelLayer
10
367.7516487
20
67.8884432
40
5.9832179
50
7.5041925
51
19.9645415
0
ARC
8
bottom_labelLayer
10
364.1045348
20
67.3762779
40
9.6660346
50
359.7107291
51
7.6907344
0
ENDSEC
0
EOF