0
SECTION
2
HEADER
9
$INSUNITS
70
1
0
ENDSEC
0
SECTION
2
TABLES
0
TABLE
2
LAYER
0
ENDTAB
0
ENDSEC
0
SECTION
2
ENTITIES
0
LINE
8
front_outsideCutPath
10
0
20
208
11
0
21
174.81025
0
LINE
8
front_outsideCutPath
10
0
20
174.81025
11
5
21
174.81025
0
LINE
8
front_outsideCutPath
10
5
20
174.81025
11
5
21
147.08615
0
LINE
8
front_outsideCutPath
10
5
20
147.08615
11
0
21
147.08615
0
LINE
8
front_outsideCutPath
10
0
20
147.08615
11
0
21
119.36205
0
LINE
8
front_outsideCutPath
10
0
20
119.36205
11
5
21
119.36205
0
LINE
8
front_outsideCutPath
10
5
20
119.36205
11
5
21
91.63795
0
LINE
8
front_outsideCutPath
10
5
20
91.63795
11
0
21
91.63795
0
LINE
8
front_outsideCutPath
10
0
20
91.63795
11
0
21
63.91385
0
LINE
8
front_outsideCutPath
10
0
20
63.91385
11
5
21
63.91385
0
LINE
8
front_outsideCutPath
10
5
20
63.91385
11
5
21
36.18975
0
LINE
8
front_outsideCutPath
10
5
20
36.18975
11
0
21
36.18975
0
LINE
8
front_outsideCutPath
10
0
20
36.18975
11
0
21
8.46565
0
LINE
8
front_outsideCutPath
10
0
20
8.46565
11
0
21
3
0
LINE
8
front_outsideCutPath
10
0
20
3
11
38.41385
21
3
0
LINE
8
front_outsideCutPath
10
38.41385
20
3
11
38.41385
21
8
0
LINE
8
front_outsideCutPath
10
38.41385
20
8
11
66.13795
21
8
0
LINE
8
front_outsideCutPath
10
66.13795
20
8
11
66.13795
21
3
0
LINE
8
front_outsideCutPath
10
66.13795
20
3
11
93.86205
21
3
0
LINE
8
front_outsideCutPath
10
93.86205
20
3
11
93.86205
21
8
0
LINE
8
front_outsideCutPath
10
93.86205
20
8
11
121.58615
21
8
0
LINE
8
front_outsideCutPath
10
121.58615
20
8
11
121.58615
21
3
0
LINE
8
front_outsideCutPath
10
121.58615
20
3
11
149.31025
21
3
0
LINE
8
front_outsideCutPath
10
149.31025
20
3
11
160
21
3
0
LINE
8
front_outsideCutPath
10
160
20
3
11
160
21
36.18975
0
LINE
8
front_outsideCutPath
10
160
20
36.18975
11
155
21
36.18975
0
LINE
8
front_outsideCutPath
10
155
20
36.18975
11
155
21
63.91385
0
LINE
8
front_outsideCutPath
10
155
20
63.91385
11
160
21
63.91385
0
LINE
8
front_outsideCutPath
10
160
20
63.91385
11
160
21
91.63795
0
LINE
8
front_outsideCutPath
10
160
20
91.63795
11
155
21
91.63795
0
LINE
8
front_outsideCutPath
10
155
20
91.63795
11
155
21
119.36205
0
LINE
8
front_outsideCutPath
10
155
20
119.36205
11
160
21
119.36205
0
LINE
8
front_outsideCutPath
10
160
20
119.36205
11
160
21
147.08615
0
LINE
8
front_outsideCutPath
10
160
20
147.08615
11
155
21
147.08615
0
LINE
8
front_outsideCutPath
10
155
20
147.08615
11
155
21
174.81025
0
LINE
8
front_outsideCutPath
10
155
20
174.81025
11
160
21
174.81025
0
LINE
8
front_outsideCutPath
10
160
20
174.81025
11
160
21
202.53435
0
LINE
8
front_outsideCutPath
10
160
20
202.53435
11
160
21
208
0
LINE
8
front_outsideCutPath
10
160
20
208
11
0
21
208
0
LINE
8
front_labelLayer
10
53.4921875
20
110.5394013
11
53.4921875
21
108.5237763
0
LINE
8
front_labelLayer
10
53.4921875
20
108.5237763
11
49.1328125
21
108.5237763
0
LINE
8
front_labelLayer
10
49.1328125
20
108.5237763
11
49.1328125
21
93.4144013
0
LINE
8
front_labelLayer
10
49.1328125
20
93.4144013
11
46.5390625
21
93.4144013
0
LINE
8
front_labelLayer
10
46.5390625
20
93.4144013
11
46.5390625
21
108.5237763
0
LINE
8
front_labelLayer
10
46.5390625
20
108.5237763
11
43.4765625
21
108.5237763
0
LINE
8
front_labelLayer
10
43.4765625
20
108.5237763
11
43.4765625
21
109.6956513
0
LINE
8
front_labelLayer
10
43.4765625
20
109.6956513
11
46.5390625
21
110.6331513
0
LINE
8
front_labelLayer
10
46.5390625
20
110.6331513
11
46.5390625
21
111.5862763
0
LINE
8
front_labelLayer
10
55.2421875
20
117.3519013
11
54.5703125
21
115.2737763
0
LINE
8
front_labelLayer
10
49.1328125
20
111.6487763
11
49.1328125
21
110.5394013
0
LINE
8
front_labelLayer
10
49.1328125
20
110.5394013
11
53.4921875
21
110.5394013
0
ARC
8
front_labelLayer
10
57.0506334
20
111.7071218
40
10.5122655
50
167.5776026
51
180.6586676
0
ARC
8
front_labelLayer
10
52.1074158
20
112.8595926
40
5.4372161
50
141.7433796
51
168.2322065
0
ARC
8
front_labelLayer
10
51.3025629
20
113.2796656
40
4.5482284
50
98.2551554
51
139.6203323
0
ARC
8
front_labelLayer
10
52.0092363
20
110.015111
40
7.8837963
50
89.6696801
51
99.9314415
0
ARC
8
front_labelLayer
10
52.0112072
20
109.5464031
40
8.3524864
50
81.5640932
51
89.7017356
0
ARC
8
front_labelLayer
10
51.4240066
20
105.4497852
40
12.4909416
50
75.9739961
51
81.6564686
0
ARC
8
front_labelLayer
10
50.4162926
20
101.2700519
40
16.7903286
50
73.2963758
51
76.0945904
0
ARC
8
front_labelLayer
10
50.670096
20
103.2976519
40
12.5952072
50
71.9613317
51
76.5918142
0
ARC
8
front_labelLayer
10
51.6472548
20
107.4428331
40
8.3364286
50
76.5183497
51
83.0216861
0
ARC
8
front_labelLayer
10
51.9876299
20
110.1800692
40
5.5781185
50
83.076092
51
89.7926933
0
ARC
8
front_labelLayer
10
51.9764268
20
112.2603441
40
3.497948
50
89.4859008
51
103.4197499
0
ARC
8
front_labelLayer
10
51.6610623
20
113.4719399
40
2.2463883
50
102.7677388
51
144.338035
0
ARC
8
front_labelLayer
10
52.2963989
20
113.0631597
40
3.0011446
50
145.0688803
51
162.1801595
0
ARC
8
front_labelLayer
10
54.4747202
20
112.3302623
40
5.2993338
50
161.8437486
51
171.7846952
0
ARC
8
front_labelLayer
10
58.0276255
20
111.7966277
40
8.8920559
50
171.6527838
51
178.4383557
0
ARC
8
front_labelLayer
10
61.3789954
20
111.6537224
40
12.246184
50
178.1973139
51
180.023141
0
LINE
8
front_labelLayer
10
66.4765625
20
110.6644013
11
66.1171875
21
108.2581513
0
LINE
8
front_labelLayer
10
59.2109375
20
102.6019013
11
59.2109375
21
93.4144013
0
LINE
8
front_labelLayer
10
59.2109375
20
93.4144013
11
56.6171875
21
93.4144013
0
LINE
8
front_labelLayer
10
56.6171875
20
93.4144013
11
56.6171875
21
110.5394013
0
LINE
8
front_labelLayer
10
56.6171875
20
110.5394013
11
58.7578125
21
110.5394013
0
LINE
8
front_labelLayer
10
58.7578125
20
110.5394013
11
59.0546875
21
107.3675263
0
LINE
8
front_labelLayer
10
59.0546875
20
107.3675263
11
59.1796875
21
107.3675263
0
ARC
8
front_labelLayer
10
64.4563104
20
98.9444313
40
11.9074997
50
84.9922917
51
90.1281024
0
ARC
8
front_labelLayer
10
64.7422697
20
102.1483008
40
8.6908997
50
78.4891948
51
85.0265918
0
ARC
8
front_labelLayer
10
63.632363
20
97.1001872
40
11.4312954
50
77.4453733
51
81.6360481
0
ARC
8
front_labelLayer
10
64.1304005
20
100.5331197
40
7.9624334
50
81.5884406
51
87.191658
0
ARC
8
front_labelLayer
10
64.2385755
20
102.4090551
40
6.0834723
50
87.3436061
51
89.9659812
0
ARC
8
front_labelLayer
10
64.2134432
20
103.9984169
40
4.4942013
50
89.6335421
51
137.0880789
0
ARC
8
front_labelLayer
10
65.3164175
20
102.7580938
40
6.1485397
50
135.6209057
51
138.8377111
0
ARC
8
front_labelLayer
10
65.1547849
20
102.9158639
40
5.9230245
50
138.9575772
51
174.5422216
0
ARC
8
front_labelLayer
10
67.0837632
20
102.6140327
40
7.872835
50
173.6907523
51
180.0882884
0
ARC
8
front_labelLayer
10
66.8110423
20
103.0680566
40
8.7591675
50
139.4139213
51
150.6032925
0
ARC
8
front_labelLayer
10
65.2405254
20
104.4138263
40
6.690927
50
124.2321438
51
139.4161042
0
ARC
8
front_labelLayer
10
64.4007788
20
105.6814213
40
5.1705607
50
89.6796565
51
124.4405691
0
ARC
8
front_labelLayer
10
71.0634701
20
101.902204
40
13.3977718
50
349.176188
51
0.3862678
0
ARC
8
front_labelLayer
10
75.5741817
20
101.0029836
40
8.7985192
50
330.2506996
51
349.4116502
0
ARC
8
front_labelLayer
10
76.9623368
20
100.2814765
40
7.2355691
50
318.1439863
51
329.7566122
0
ARC
8
front_labelLayer
10
77.2128931
20
100.0806813
40
6.9149884
50
278.8959149
51
317.9979138
0
ARC
8
front_labelLayer
10
76.5673324
20
103.173629
40
10.0718233
50
269.7502934
51
279.8033146
0
ARC
8
front_labelLayer
10
76.4626369
20
101.430943
40
8.3292637
50
253.5436996
51
270.418242
0
ARC
8
front_labelLayer
10
76.1853715
20
100.3584085
40
7.222219
50
238.811551
51
253.2428343
0
ARC
8
front_labelLayer
10
76.0958899
20
100.178461
40
7.0219609
50
207.794705
51
238.6757941
0
ARC
8
front_labelLayer
10
77.3798131
20
100.9648127
40
8.5249809
50
205.6560088
51
208.4461512
0
ARC
8
front_labelLayer
10
78.3689055
20
101.3769418
40
9.5951645
50
188.9102403
51
205.3171505
0
ARC
8
front_labelLayer
10
81.7019605
20
101.9414529
40
12.9754985
50
179.7744751
51
189.0932796
0
ARC
8
front_labelLayer
10
82.1936177
20
102.083743
40
13.4673642
50
169.2442988
51
180.3880767
0
ARC
8
front_labelLayer
10
77.6202014
20
102.9877416
40
8.8056564
50
150.7111466
51
169.4695478
0
ARC
8
front_labelLayer
10
76.1602368
20
103.7374854
40
7.165797
50
138.1759486
51
150.2287304
0
ARC
8
front_labelLayer
10
75.917374
20
103.9238542
40
6.8605763
50
99.1759364
51
137.9832752
0
ARC
8
front_labelLayer
10
76.5858029
20
100.7781582
40
10.0738528
50
89.7326283
51
100.075985
0
ARC
8
front_labelLayer
10
76.7193992
20
102.1366712
40
8.7156602
50
73.522274
51
90.5692205
0
ARC
8
front_labelLayer
10
77.2305215
20
103.9937135
40
6.7900093
50
41.1445702
51
73.2133843
0
ARC
8
front_labelLayer
10
76.2548329
20
103.1551227
40
8.0765201
50
13.5014328
51
41.0703447
0
ARC
8
front_labelLayer
10
72.4852592
20
102.1686757
40
11.9724849
50
1.1277224
51
13.8799994
0
ARC
8
front_labelLayer
10
69.2386375
20
101.9946856
40
15.2223001
50
359.9918724
51
1.5419811
0
ARC
8
front_labelLayer
10
84.5485764
20
101.9251203
40
13.1346869
50
179.7059623
51
187.9160855
0
ARC
8
front_labelLayer
10
79.7311845
20
101.2331046
40
8.2679237
50
187.7639215
51
200.0976915
0
ARC
8
front_labelLayer
10
77.077302
20
100.2607176
40
5.4415079
50
200.0845888
51
216.9131673
0
ARC
8
front_labelLayer
10
76.108199
20
99.5687323
40
4.2511531
50
217.3009586
51
261.7099055
0
ARC
8
front_labelLayer
10
76.5580917
20
101.7155692
40
6.4418533
50
260.5033065
51
270.2476693
0
ARC
8
front_labelLayer
10
76.6439624
20
101.298108
40
6.0246112
50
269.4481579
51
284.725574
0
ARC
8
front_labelLayer
10
77.1208946
20
99.5293212
40
4.1927061
50
284.5662369
51
322.6333842
0
ARC
8
front_labelLayer
10
76.0058035
20
100.3349255
40
5.5679966
50
323.0089203
51
342.6390542
0
ARC
8
front_labelLayer
10
72.8163903
20
101.3773171
40
8.923257
50
342.3615752
51
353.7537619
0
ARC
8
front_labelLayer
10
68.110952
20
101.9444968
40
13.6625699
50
353.5363074
51
0.2014182
0
ARC
8
front_labelLayer
10
68.8318792
20
102.0585801
40
12.9417269
50
359.7075645
51
7.8972626
0
ARC
8
front_labelLayer
10
73.5715126
20
102.7380484
40
8.153716
50
7.7439919
51
20.0690249
0
ARC
8
front_labelLayer
10
76.2126098
20
103.7072325
40
5.3404107
50
20.0257074
51
37.4350516
0
ARC
8
front_labelLayer
10
77.0889063
20
104.3290387
40
4.2667991
50
37.957772
51
80.4006157
0
ARC
8
front_labelLayer
10
76.5909346
20
102.1071397
40
6.5417372
50
79.3453391
51
90.3174716
0
ARC
8
front_labelLayer
10
76.4987297
20
102.4762021
40
6.1728278
50
89.4805961
51
103.8804951
0
ARC
8
front_labelLayer
10
75.9800529
20
104.4513251
40
4.1310593
50
103.4685219
51
142.3118886
0
ARC
8
front_labelLayer
10
76.988401
20
103.7421835
40
5.3628437
50
142.9025775
51
162.3749681
0
ARC
8
front_labelLayer
10
80.1657127
20
102.6833516
40
8.7117348
50
162.0653135
51
173.1674816
0
ARC
8
front_labelLayer
10
85.1199431
20
102.0514666
40
13.7060074
50
173.0086074
51
180.2463911
0
LINE
8
front_labelLayer
10
103.3203125
20
93.4144013
11
100.7265625
21
93.4144013
0
LINE
8
front_labelLayer
10
100.7265625
20
93.4144013
11
100.7265625
21
104.4925263
0
LINE
8
front_labelLayer
10
91.6015625
20
102.3987763
11
91.6015625
21
93.4144013
0
LINE
8
front_labelLayer
10
91.6015625
20
93.4144013
11
89.0078125
21
93.4144013
0
LINE
8
front_labelLayer
10
89.0078125
20
93.4144013
11
89.0078125
21
110.5394013
0
LINE
8
front_labelLayer
10
89.0078125
20
110.5394013
11
91.1171875
21
110.5394013
0
LINE
8
front_labelLayer
10
91.1171875
20
110.5394013
11
91.5390625
21
108.1956513
0
LINE
8
front_labelLayer
10
91.5390625
20
108.1956513
11
91.6640625
21
108.1956513
0
LINE
8
front_labelLayer
10
103.3203125
20
104.5862763
11
103.3203125
21
93.4144013
0
ARC
8
front_labelLayer
10
93.3948213
20
104.5345753
40
7.3318617
50
359.671401
51
8.6877345
0
ARC
8
front_labelLayer
10
96.1122123
20
104.9655374
40
4.5805794
50
8.4931329
51
22.6580004
0
ARC
8
front_labelLayer
10
97.4928309
20
105.5392796
40
3.0854943
50
22.7024575
51
42.3419503
0
ARC
8
front_labelLayer
10
97.6480239
20
105.609091
40
2.9242427
50
43.3790957
51
71.5386089
0
ARC
8
front_labelLayer
10
97.0676937
20
103.9874963
40
4.6463034
50
71.0828119
51
84.3691077
0
ARC
8
front_labelLayer
10
96.807192
20
101.7726413
40
6.876159
50
84.019771
51
90.1510649
0
ARC
8
front_labelLayer
10
96.7333433
20
100.7988861
40
7.850088
50
89.5933164
51
100.3717953
0
ARC
8
front_labelLayer
10
96.1785823
20
103.7095283
40
4.8871769
50
100.1176369
51
118.1602582
0
ARC
8
front_labelLayer
10
95.6195269
20
104.8057912
40
3.6569192
50
118.5439497
51
139.192679
0
ARC
8
front_labelLayer
10
96.1069956
20
104.4786957
40
4.2402467
50
140.1519241
51
160.3146399
0
ARC
8
front_labelLayer
10
99.0506354
20
103.3761325
40
7.3834008
50
159.9534306
51
171.3801147
0
ARC
8
front_labelLayer
10
103.8591226
20
102.6031826
40
12.2534992
50
171.1765726
51
178.3217681
0
ARC
8
front_labelLayer
10
108.2175787
20
102.4056425
40
16.6160176
50
178.0810417
51
180.0236764
0
ARC
8
front_labelLayer
10
96.1010678
20
105.3855488
40
5.2520179
50
116.944294
51
147.6525642
0
ARC
8
front_labelLayer
10
96.6480245
20
104.4706308
40
6.3158804
50
115.8072483
51
117.6066505
0
ARC
8
front_labelLayer
10
96.9272077
20
103.8195794
40
7.0236128
50
94.3226639
51
115.545442
0
ARC
8
front_labelLayer
10
97.0953218
20
102.3590016
40
8.4929021
50
89.9578981
51
94.7109006
0
ARC
8
front_labelLayer
10
97.1648024
20
100.6115273
40
10.2405693
50
80.558539
51
90.353828
0
ARC
8
front_labelLayer
10
97.8047739
20
104.3184895
40
6.4788833
50
65.1094199
51
80.7638213
0
ARC
8
front_labelLayer
10
98.5528721
20
105.9755053
40
4.6609558
50
46.5584362
51
64.878241
0
ARC
8
front_labelLayer
10
98.6127433
20
106.1481075
40
4.4950946
50
19.3848835
51
45.5997092
0
ARC
8
front_labelLayer
10
96.0121755
20
105.1723312
40
7.2723346
50
6.9633783
51
19.8363273
0
ARC
8
front_labelLayer
10
92.0013368
20
104.6330688
40
11.3190724
50
359.7631414
51
7.2115683
0
LINE
8
front_labelLayer
10
116.5234375
20
95.5550263
11
116.5234375
21
93.5706513
0
LINE
8
front_labelLayer
10
108.8359375
20
98.3362763
11
108.8359375
21
108.5237763
0
LINE
8
front_labelLayer
10
108.8359375
20
108.5237763
11
106.3828125
21
108.5237763
0
LINE
8
front_labelLayer
10
106.3828125
20
108.5237763
11
106.3828125
21
109.7737763
0
LINE
8
front_labelLayer
10
106.3828125
20
109.7737763
11
108.8359375
21
110.8519013
0
LINE
8
front_labelLayer
10
108.8359375
20
110.8519013
11
109.9296875
21
114.5081513
0
LINE
8
front_labelLayer
10
109.9296875
20
114.5081513
11
111.4296875
21
114.5081513
0
LINE
8
front_labelLayer
10
111.4296875
20
114.5081513
11
111.4296875
21
110.5394013
0
LINE
8
front_labelLayer
10
111.4296875
20
110.5394013
11
116.3984375
21
110.5394013
0
LINE
8
front_labelLayer
10
116.3984375
20
110.5394013
11
116.3984375
21
108.5237763
0
LINE
8
front_labelLayer
10
116.3984375
20
108.5237763
11
111.4296875
21
108.5237763
0
LINE
8
front_labelLayer
10
111.4296875
20
108.5237763
11
111.4296875
21
98.4456513
0
ARC
8
front_labelLayer
10
114.1974751
20
103.7607361
40
8.5182283
50
269.8803557
51
278.3028348
0
ARC
8
front_labelLayer
10
114.2776501
20
103.1041386
40
7.8569506
50
278.4157311
51
279.0078597
0
ARC
8
front_labelLayer
10
113.3227279
20
109.2043789
40
14.0314731
50
278.9589847
51
280.5103927
0
ARC
8
front_labelLayer
10
114.233589
20
104.3169511
40
9.0598944
50
280.4848184
51
282.6267943
0
ARC
8
front_labelLayer
10
115.032532
20
100.7674728
40
5.4216142
50
282.5876328
51
285.5795013
0
ARC
8
front_labelLayer
10
115.4337428
20
99.2920374
40
3.8926452
50
285.7236818
51
286.2564339
0
ARC
8
front_labelLayer
10
115.4329543
20
95.8770836
40
2.5512318
50
287.9888418
51
295.3048245
0
ARC
8
front_labelLayer
10
114.8176256
20
97.7387321
40
4.5119215
50
283.3069379
51
288.1198071
0
ARC
8
front_labelLayer
10
114.1675741
20
100.450306
40
7.3003179
50
280.0070126
51
283.3735067
0
ARC
8
front_labelLayer
10
113.7326469
20
102.8105754
40
9.7002731
50
279.1863095
51
280.1143329
0
ARC
8
front_labelLayer
10
113.465675
20
104.3291277
40
11.2419897
50
275.5260312
51
279.2939395
0
ARC
8
front_labelLayer
10
113.7665237
20
101.1867864
40
8.0852819
50
270.8932486
51
275.5483578
0
ARC
8
front_labelLayer
10
113.804322
20
99.7513122
40
6.6494109
50
270.0031495
51
270.7604193
0
ARC
8
front_labelLayer
10
113.7000211
20
99.8755842
40
6.7744915
50
253.7847911
51
270.8852595
0
ARC
8
front_labelLayer
10
112.8974243
20
97.1384254
40
3.9221012
50
190.3817689
51
253.8772402
0
ARC
8
front_labelLayer
10
116.9882447
20
98.2445123
40
8.1528237
50
179.3550946
51
192.8477703
0
ARC
8
front_labelLayer
10
116.6525489
20
98.4129867
40
5.2229635
50
179.6416684
51
189.7505803
0
ARC
8
front_labelLayer
10
114.8087397
20
98.0841226
40
3.3501141
50
189.5479664
51
205.7873509
0
ARC
8
front_labelLayer
10
114.0510112
20
97.7347111
40
2.5158837
50
206.1294379
51
221.4083833
0
ARC
8
front_labelLayer
10
113.9660485
20
97.6702438
40
2.4095331
50
221.5949234
51
262.350509
0
ARC
8
front_labelLayer
10
114.1681117
20
98.7093184
40
3.4668116
50
261.3265906
51
270.1913121
0
LINE
8
left_outsideCutPath
10
168
20
208
11
168
21
174.81025
0
LINE
8
left_outsideCutPath
10
168
20
174.81025
11
163
21
174.81025
0
LINE
8
left_outsideCutPath
10
163
20
174.81025
11
163
21
147.08615
0
LINE
8
left_outsideCutPath
10
163
20
147.08615
11
168
21
147.08615
0
LINE
8
left_outsideCutPath
10
168
20
147.08615
11
168
21
119.36205
0
LINE
8
left_outsideCutPath
10
168
20
119.36205
11
163
21
119.36205
0
LINE
8
left_outsideCutPath
10
163
20
119.36205
11
163
21
91.63795
0
LINE
8
left_outsideCutPath
10
163
20
91.63795
11
168
21
91.63795
0
LINE
8
left_outsideCutPath
10
168
20
91.63795
11
168
21
63.91385
0
LINE
8
left_outsideCutPath
10
168
20
63.91385
11
163
21
63.91385
0
LINE
8
left_outsideCutPath
10
163
20
63.91385
11
163
21
36.18975
0
LINE
8
left_outsideCutPath
10
163
20
36.18975
11
168
21
36.18975
0
LINE
8
left_outsideCutPath
10
168
20
36.18975
11
168
21
8.46565
0
LINE
8
left_outsideCutPath
10
168
20
8.46565
11
168
21
3
0
LINE
8
left_outsideCutPath
10
168
20
3
11
201.41385
21
3
0
LINE
8
left_outsideCutPath
10
201.41385
20
3
11
201.41385
21
8
0
LINE
8
left_outsideCutPath
10
201.41385
20
8
11
229.13795
21
8
0
LINE
8
left_outsideCutPath
10
229.13795
20
8
11
229.13795
21
3
0
LINE
8
left_outsideCutPath
10
229.13795
20
3
11
256.86205
21
3
0
LINE
8
left_outsideCutPath
10
256.86205
20
3
11
256.86205
21
8
0
LINE
8
left_outsideCutPath
10
256.86205
20
8
11
284.58615
21
8
0
LINE
8
left_outsideCutPath
10
284.58615
20
8
11
284.58615
21
3
0
LINE
8
left_outsideCutPath
10
284.58615
20
3
11
312.31025
21
3
0
LINE
8
left_outsideCutPath
10
312.31025
20
3
11
318
21
3
0
LINE
8
left_outsideCutPath
10
318
20
3
11
318
21
36.18975
0
LINE
8
left_outsideCutPath
10
318
20
36.18975
11
323
21
36.18975
0
LINE
8
left_outsideCutPath
10
323
20
36.18975
11
323
21
63.91385
0
LINE
8
left_outsideCutPath
10
323
20
63.91385
11
318
21
63.91385
0
LINE
8
left_outsideCutPath
10
318
20
63.91385
11
318
21
91.63795
0
LINE
8
left_outsideCutPath
10
318
20
91.63795
11
323
21
91.63795
0
LINE
8
left_outsideCutPath
10
323
20
91.63795
11
323
21
119.36205
0
LINE
8
left_outsideCutPath
10
323
20
119.36205
11
318
21
119.36205
0
LINE
8
left_outsideCutPath
10
318
20
119.36205
11
318
21
147.08615
0
LINE
8
left_outsideCutPath
10
318
20
147.08615
11
323
21
147.08615
0
LINE
8
left_outsideCutPath
10
323
20
147.08615
11
323
21
174.81025
0
LINE
8
left_outsideCutPath
10
323
20
174.81025
11
318
21
174.81025
0
LINE
8
left_outsideCutPath
10
318
20
174.81025
11
318
21
202.53435
0
LINE
8
left_outsideCutPath
10
318
20
202.53435
11
318
21
208
0
LINE
8
left_outsideCutPath
10
318
20
208
11
168
21
208
0
LINE
8
left_labelLayer
10
223.2109375
20
117.7269013
11
223.2109375
21
93.4144013
0
LINE
8
left_labelLayer
10
223.2109375
20
93.4144013
11
220.6171875
21
93.4144013
0
LINE
8
left_labelLayer
10
220.6171875
20
93.4144013
11
220.6171875
21
117.7269013
0
LINE
8
left_labelLayer
10
220.6171875
20
117.7269013
11
223.2109375
21
117.7269013
0
LINE
8
left_labelLayer
10
242.2421875
20
103.1487763
11
242.2421875
21
101.5081513
0
LINE
8
left_labelLayer
10
242.2421875
20
101.5081513
11
230.4453125
21
101.5081513
0
LINE
8
left_labelLayer
10
241.5078125
20
96.5237763
11
241.5078125
21
94.2112763
0
LINE
8
left_labelLayer
10
230.5078125
20
103.6175263
11
239.4609375
21
103.6175263
0
ARC
8
left_labelLayer
10
235.8600265
20
103.1807248
40
10.0791843
50
256.0087867
51
270.4848194
0
ARC
8
left_labelLayer
10
235.126065
20
100.3313369
40
7.1369155
50
223.5465807
51
256.1956946
0
ARC
8
left_labelLayer
10
235.5309578
20
100.6256174
40
7.6334128
50
194.0877246
51
223.0538127
0
ARC
8
left_labelLayer
10
239.2408924
20
101.6401476
40
11.4789981
50
181.3574589
51
194.4919908
0
ARC
8
left_labelLayer
10
242.5736531
20
101.8333578
40
14.8158407
50
179.9887135
51
181.7991092
0
ARC
8
left_labelLayer
10
241.3772238
20
101.9276389
40
13.6197178
50
168.9539267
51
180.3843493
0
ARC
8
left_labelLayer
10
236.9290916
20
102.8333545
40
9.0805345
50
149.407099
51
169.1853769
0
ARC
8
left_labelLayer
10
235.6897742
20
103.4881545
40
7.6807663
50
140.1056184
51
148.9067254
0
ARC
8
left_labelLayer
10
234.9283653
20
104.1901356
40
6.646549
50
92.4762693
51
140.5386362
0
ARC
8
left_labelLayer
10
235.2676442
20
101.6829283
40
9.1689749
50
89.9637981
51
93.9176408
0
ARC
8
left_labelLayer
10
235.3486033
20
102.9501008
40
7.902158
50
74.2125816
51
90.5450092
0
ARC
8
left_labelLayer
10
235.84354
20
104.7736577
40
6.0127658
50
41.2064679
51
74.0232719
0
ARC
8
left_labelLayer
10
235.1614831
20
104.1245187
40
6.9536506
50
41.1642562
51
41.5282446
0
ARC
8
left_labelLayer
10
234.894268
20
103.9567071
40
7.265443
50
11.4922357
51
40.7734715
0
ARC
8
left_labelLayer
10
231.6705629
20
103.2187443
40
10.5718561
50
359.6207951
51
11.9306495
0
ARC
8
left_labelLayer
10
240.8535955
20
101.7161247
40
10.4103606
50
181.1447048
51
190.8007017
0
ARC
8
left_labelLayer
10
237.1809384
20
100.9917753
40
6.667067
50
190.6005851
51
206.0275198
0
ARC
8
left_labelLayer
10
235.5560259
20
100.2235901
40
4.869919
50
206.2950355
51
222.5557851
0
ARC
8
left_labelLayer
10
235.4120395
20
100.148201
40
4.7130554
50
223.0645072
51
258.1401355
0
ARC
8
left_labelLayer
10
235.9852281
20
102.5083608
40
7.1410375
50
257.5311767
51
270.431942
0
ARC
8
left_labelLayer
10
235.991627
20
109.0664658
40
13.6990217
50
270.1983981
51
292.2090422
0
ARC
8
left_labelLayer
10
235.3333189
20
110.9568537
40
15.6983469
50
291.8255443
51
293.1613166
0
ARC
8
left_labelLayer
10
235.302269
20
108.4924834
40
15.5711801
50
287.9022959
51
293.4861578
0
ARC
8
left_labelLayer
10
236.4318108
20
105.0074454
40
11.9076656
50
281.9935868
51
287.8851212
0
ARC
8
left_labelLayer
10
236.7055747
20
104.0235002
40
10.8884945
50
275.9054405
51
281.6603826
0
ARC
8
left_labelLayer
10
236.1575554
20
109.1386743
40
16.0329178
50
271.9119658
51
275.9727181
0
ARC
8
left_labelLayer
10
235.9575076
20
114.2339136
40
21.132016
50
269.9669352
51
271.9931412
0
ARC
8
left_labelLayer
10
235.1924142
20
103.567386
40
5.1128826
50
89.4422234
51
106.2089605
0
ARC
8
left_labelLayer
10
234.8848198
20
104.6889262
40
3.9501008
50
106.4657077
51
137.9176445
0
ARC
8
left_labelLayer
10
235.7667126
20
103.9144779
40
5.1236856
50
138.0994853
51
160.5866194
0
ARC
8
left_labelLayer
10
238.0335869
20
103.0805318
40
7.5389376
50
160.335322
51
172.5315268
0
ARC
8
left_labelLayer
10
240.2656825
20
102.7228894
40
9.798796
50
172.1545005
51
174.7615607
0
ARC
8
left_labelLayer
10
230.6225022
20
103.6677368
40
8.8385779
50
359.6745106
51
8.922446
0
ARC
8
left_labelLayer
10
233.780726
20
104.1823196
40
5.638791
50
8.7342269
51
23.2771893
0
ARC
8
left_labelLayer
10
235.2800606
20
104.8117012
40
4.0128033
50
23.4821464
51
39.707201
0
ARC
8
left_labelLayer
10
235.6483512
20
105.0873016
40
3.5534751
50
40.0822946
51
80.6243218
0
ARC
8
left_labelLayer
10
235.2692603
20
103.3495453
40
5.3305497
50
79.6468655
51
90.2909948
0
LINE
8
left_labelLayer
10
254.3828125
20
110.5394013
11
254.3828125
21
108.5237763
0
LINE
8
left_labelLayer
10
254.3828125
20
108.5237763
11
250.0234375
21
108.5237763
0
LINE
8
left_labelLayer
10
250.0234375
20
108.5237763
11
250.0234375
21
93.4144013
0
LINE
8
left_labelLayer
10
250.0234375
20
93.4144013
11
247.4296875
21
93.4144013
0
LINE
8
left_labelLayer
10
247.4296875
20
93.4144013
11
247.4296875
21
108.5237763
0
LINE
8
left_labelLayer
10
247.4296875
20
108.5237763
11
244.3671875
21
108.5237763
0
LINE
8
left_labelLayer
10
244.3671875
20
108.5237763
11
244.3671875
21
109.6956513
0
LINE
8
left_labelLayer
10
244.3671875
20
109.6956513
11
247.4296875
21
110.6331513
0
LINE
8
left_labelLayer
10
247.4296875
20
110.6331513
11
247.4296875
21
111.5862763
0
LINE
8
left_labelLayer
10
256.1328125
20
117.3519013
11
255.4609375
21
115.2737763
0
LINE
8
left_labelLayer
10
250.0234375
20
111.6487763
11
250.0234375
21
110.5394013
0
LINE
8
left_labelLayer
10
250.0234375
20
110.5394013
11
254.3828125
21
110.5394013
0
ARC
8
left_labelLayer
10
257.9412584
20
111.7071218
40
10.5122655
50
167.5776026
51
180.6586676
0
ARC
8
left_labelLayer
10
252.9980408
20
112.8595926
40
5.4372161
50
141.7433796
51
168.2322065
0
ARC
8
left_labelLayer
10
252.1931879
20
113.2796656
40
4.5482284
50
98.2551554
51
139.6203323
0
ARC
8
left_labelLayer
10
252.8998613
20
110.015111
40
7.8837963
50
89.6696801
51
99.9314415
0
ARC
8
left_labelLayer
10
252.9018322
20
109.5464031
40
8.3524864
50
81.5640932
51
89.7017356
0
ARC
8
left_labelLayer
10
252.3146316
20
105.4497852
40
12.4909416
50
75.9739961
51
81.6564686
0
ARC
8
left_labelLayer
10
251.3069176
20
101.2700519
40
16.7903286
50
73.2963758
51
76.0945904
0
ARC
8
left_labelLayer
10
251.560721
20
103.2976519
40
12.5952072
50
71.9613317
51
76.5918142
0
ARC
8
left_labelLayer
10
252.5378798
20
107.4428331
40
8.3364286
50
76.5183497
51
83.0216861
0
ARC
8
left_labelLayer
10
252.8782549
20
110.1800692
40
5.5781185
50
83.076092
51
89.7926933
0
ARC
8
left_labelLayer
10
252.8670518
20
112.2603441
40
3.497948
50
89.4859008
51
103.4197499
0
ARC
8
left_labelLayer
10
252.5516873
20
113.4719399
40
2.2463883
50
102.7677388
51
144.338035
0
ARC
8
left_labelLayer
10
253.1870239
20
113.0631597
40
3.0011446
50
145.0688803
51
162.1801595
0
ARC
8
left_labelLayer
10
255.3653452
20
112.3302623
40
5.2993338
50
161.8437486
51
171.7846952
0
ARC
8
left_labelLayer
10
258.9182505
20
111.7966277
40
8.8920559
50
171.6527838
51
178.4383557
0
ARC
8
left_labelLayer
10
262.2696204
20
111.6537224
40
12.246184
50
178.1973139
51
180.023141
0
LINE
8
left_labelLayer
10
265.3828125
20
95.5550263
11
265.3828125
21
93.5706513
0
LINE
8
left_labelLayer
10
257.6953125
20
98.3362763
11
257.6953125
21
108.5237763
0
LINE
8
left_labelLayer
10
257.6953125
20
108.5237763
11
255.2421875
21
108.5237763
0
LINE
8
left_labelLayer
10
255.2421875
20
108.5237763
11
255.2421875
21
109.7737763
0
LINE
8
left_labelLayer
10
255.2421875
20
109.7737763
11
257.6953125
21
110.8519013
0
LINE
8
left_labelLayer
10
257.6953125
20
110.8519013
11
258.7890625
21
114.5081513
0
LINE
8
left_labelLayer
10
258.7890625
20
114.5081513
11
260.2890625
21
114.5081513
0
LINE
8
left_labelLayer
10
260.2890625
20
114.5081513
11
260.2890625
21
110.5394013
0
LINE
8
left_labelLayer
10
260.2890625
20
110.5394013
11
265.2578125
21
110.5394013
0
LINE
8
left_labelLayer
10
265.2578125
20
110.5394013
11
265.2578125
21
108.5237763
0
LINE
8
left_labelLayer
10
265.2578125
20
108.5237763
11
260.2890625
21
108.5237763
0
LINE
8
left_labelLayer
10
260.2890625
20
108.5237763
11
260.2890625
21
98.4456513
0
ARC
8
left_labelLayer
10
263.0568501
20
103.7607361
40
8.5182283
50
269.8803557
51
278.3028348
0
ARC
8
left_labelLayer
10
263.1370251
20
103.1041386
40
7.8569506
50
278.4157311
51
279.0078597
0
ARC
8
left_labelLayer
10
262.1821029
20
109.2043789
40
14.0314731
50
278.9589847
51
280.5103927
0
ARC
8
left_labelLayer
10
263.092964
20
104.3169511
40
9.0598944
50
280.4848184
51
282.6267943
0
ARC
8
left_labelLayer
10
263.891907
20
100.7674728
40
5.4216142
50
282.5876328
51
285.5795013
0
ARC
8
left_labelLayer
10
264.2931178
20
99.2920374
40
3.8926452
50
285.7236818
51
286.2564339
0
ARC
8
left_labelLayer
10
264.2923293
20
95.8770836
40
2.5512318
50
287.9888418
51
295.3048245
0
ARC
8
left_labelLayer
10
263.6770006
20
97.7387321
40
4.5119215
50
283.3069379
51
288.1198071
0
ARC
8
left_labelLayer
10
263.0269491
20
100.450306
40
7.3003179
50
280.0070126
51
283.3735067
0
ARC
8
left_labelLayer
10
262.5920219
20
102.8105754
40
9.7002731
50
279.1863095
51
280.1143329
0
ARC
8
left_labelLayer
10
262.32505
20
104.3291277
40
11.2419897
50
275.5260312
51
279.2939395
0
ARC
8
left_labelLayer
10
262.6258987
20
101.1867864
40
8.0852819
50
270.8932486
51
275.5483578
0
ARC
8
left_labelLayer
10
262.663697
20
99.7513122
40
6.6494109
50
270.0031495
51
270.7604193
0
ARC
8
left_labelLayer
10
262.5593961
20
99.8755842
40
6.7744915
50
253.7847911
51
270.8852595
0
ARC
8
left_labelLayer
10
261.7567993
20
97.1384254
40
3.9221012
50
190.3817689
51
253.8772402
0
ARC
8
left_labelLayer
10
265.8476197
20
98.2445123
40
8.1528237
50
179.3550946
51
192.8477703
0
ARC
8
left_labelLayer
10
265.5119239
20
98.4129867
40
5.2229635
50
179.6416684
51
189.7505803
0
ARC
8
left_labelLayer
10
263.6681147
20
98.0841226
40
3.3501141
50
189.5479664
51
205.7873509
0
ARC
8
left_labelLayer
10
262.9103862
20
97.7347111
40
2.5158837
50
206.1294379
51
221.4083833
0
ARC
8
left_labelLayer
10
262.8254235
20
97.6702438
40
2.4095331
50
221.5949234
51
262.350509
0
ARC
8
left_labelLayer
10
263.0274867
20
98.7093184
40
3.4668116
50
261.3265906
51
270.1913121
0
LINE
8
back_outsideCutPath
10
0
20
416
11
0
21
382.81025
0
LINE
8
back_outsideCutPath
10
0
20
382.81025
11
5
21
382.81025
0
LINE
8
back_outsideCutPath
10
5
20
382.81025
11
5
21
355.08615
0
LINE
8
back_outsideCutPath
10
5
20
355.08615
11
0
21
355.08615
0
LINE
8
back_outsideCutPath
10
0
20
355.08615
11
0
21
327.36205
0
LINE
8
back_outsideCutPath
10
0
20
327.36205
11
5
21
327.36205
0
LINE
8
back_outsideCutPath
10
5
20
327.36205
11
5
21
299.63795
0
LINE
8
back_outsideCutPath
10
5
20
299.63795
11
0
21
299.63795
0
LINE
8
back_outsideCutPath
10
0
20
299.63795
11
0
21
271.91385
0
LINE
8
back_outsideCutPath
10
0
20
271.91385
11
5
21
271.91385
0
LINE
8
back_outsideCutPath
10
5
20
271.91385
11
5
21
244.18975
0
LINE
8
back_outsideCutPath
10
5
20
244.18975
11
0
21
244.18975
0
LINE
8
back_outsideCutPath
10
0
20
244.18975
11
0
21
216.46565
0
LINE
8
back_outsideCutPath
10
0
20
216.46565
11
0
21
211
0
LINE
8
back_outsideCutPath
10
0
20
211
11
38.41385
21
211
0
LINE
8
back_outsideCutPath
10
38.41385
20
211
11
38.41385
21
216
0
LINE
8
back_outsideCutPath
10
38.41385
20
216
11
66.13795
21
216
0
LINE
8
back_outsideCutPath
10
66.13795
20
216
11
66.13795
21
211
0
LINE
8
back_outsideCutPath
10
66.13795
20
211
11
93.86205
21
211
0
LINE
8
back_outsideCutPath
10
93.86205
20
211
11
93.86205
21
216
0
LINE
8
back_outsideCutPath
10
93.86205
20
216
11
121.58615
21
216
0
LINE
8
back_outsideCutPath
10
121.58615
20
216
11
121.58615
21
211
0
LINE
8
back_outsideCutPath
10
121.58615
20
211
11
149.31025
21
211
0
LINE
8
back_outsideCutPath
10
149.31025
20
211
11
160
21
211
0
LINE
8
back_outsideCutPath
10
160
20
211
11
160
21
244.18975
0
LINE
8
back_outsideCutPath
10
160
20
244.18975
11
155
21
244.18975
0
LINE
8
back_outsideCutPath
10
155
20
244.18975
11
155
21
271.91385
0
LINE
8
back_outsideCutPath
10
155
20
271.91385
11
160
21
271.91385
0
LINE
8
back_outsideCutPath
10
160
20
271.91385
11
160
21
299.63795
0
LINE
8
back_outsideCutPath
10
160
20
299.63795
11
155
21
299.63795
0
LINE
8
back_outsideCutPath
10
155
20
299.63795
11
155
21
327.36205
0
LINE
8
back_outsideCutPath
10
155
20
327.36205
11
160
21
327.36205
0
LINE
8
back_outsideCutPath
10
160
20
327.36205
11
160
21
355.08615
0
LINE
8
back_outsideCutPath
10
160
20
355.08615
11
155
21
355.08615
0
LINE
8
back_outsideCutPath
10
155
20
355.08615
11
155
21
382.81025
0
LINE
8
back_outsideCutPath
10
155
20
382.81025
11
160
21
382.81025
0
LINE
8
back_outsideCutPath
10
160
20
382.81025
11
160
21
410.53435
0
LINE
8
back_outsideCutPath
10
160
20
410.53435
11
160
21
416
0
LINE
8
back_outsideCutPath
10
160
20
416
11
0
21
416
0
LINE
8
back_labelLayer
10
49.421875
20
303.7033015
11
49.234375
21
303.7033015
0
LINE
8
back_labelLayer
10
49.234375
20
303.7033015
11
48.6875
21
301.5001765
0
LINE
8
back_labelLayer
10
48.6875
20
301.5001765
11
46.828125
21
301.5001765
0
LINE
8
back_labelLayer
10
46.828125
20
301.5001765
11
46.828125
21
325.8126765
0
LINE
8
back_labelLayer
10
46.828125
20
325.8126765
11
49.421875
21
325.8126765
0
LINE
8
back_labelLayer
10
49.421875
20
325.8126765
11
49.421875
21
319.9064265
0
LINE
8
back_labelLayer
10
49.296875
20
316.3439265
11
49.421875
21
316.3439265
0
ARC
8
back_labelLayer
10
54.8746841
20
310.9794066
40
7.9274018
50
74.2393352
51
90.5623787
0
ARC
8
back_labelLayer
10
55.3988701
20
312.9024079
40
5.9343439
50
38.5631342
51
74.0670358
0
ARC
8
back_labelLayer
10
54.0499002
20
311.8535067
40
7.6430213
50
16.4709337
51
38.4075242
0
ARC
8
back_labelLayer
10
50.1637243
20
310.6349177
40
11.7154182
50
5.1338441
51
16.7973335
0
ARC
8
back_labelLayer
10
45.2577715
20
310.1137737
40
16.6485161
50
359.8779225
51
5.4093567
0
ARC
8
back_labelLayer
10
46.6987499
20
309.9885807
40
15.2077648
50
350.6562802
51
0.3380283
0
ARC
8
back_labelLayer
10
52.0004269
20
309.0868239
40
9.8300664
50
335.8305933
51
350.82548
0
ARC
8
back_labelLayer
10
54.3325324
20
308.080255
40
7.290362
50
321.3161535
51
335.5436092
0
ARC
8
back_labelLayer
10
55.2241205
20
307.3537474
40
6.1403066
50
274.0640039
51
321.4081023
0
ARC
8
back_labelLayer
10
54.8087626
20
309.9847775
40
8.7971091
50
269.9225756
51
275.5481643
0
ARC
8
back_labelLayer
10
54.7531349
20
309.0549625
40
7.8674076
50
255.7755428
51
270.3185463
0
ARC
8
back_labelLayer
10
54.5286203
20
308.057464
40
6.8453789
50
245.9801503
51
255.5455733
0
ARC
8
back_labelLayer
10
54.0937603
20
307.046196
40
5.7446893
50
215.5850224
51
245.8361633
0
ARC
8
back_labelLayer
10
-4.6554425
20
319.8607039
40
54.0773368
50
358.1123153
51
0.0484439
0
ARC
8
back_labelLayer
10
10.394748
20
319.3554251
40
39.0186708
50
355.723868
51
358.1258923
0
ARC
8
back_labelLayer
10
16.9796972
20
318.9034222
40
32.4183744
50
355.4716705
51
355.6527289
0
ARC
8
back_labelLayer
10
54.259106
20
312.9707952
40
5.8971873
50
95.1835159
51
145.110899
0
ARC
8
back_labelLayer
10
54.7774444
20
310.0478539
40
8.8585939
50
89.8743264
51
96.8145477
0
ARC
8
back_labelLayer
10
54.3675743
20
309.4460982
40
7.2886556
50
89.5731409
51
100.7324315
0
ARC
8
back_labelLayer
10
53.8280091
20
312.1721621
40
4.5098541
50
100.4469369
51
119.6700722
0
ARC
8
back_labelLayer
10
53.3276728
20
313.1076012
40
3.4495073
50
120.1402955
51
142.4248869
0
ARC
8
back_labelLayer
10
54.1554371
20
312.5600083
40
4.4400424
50
143.3382198
51
161.2559897
0
ARC
8
back_labelLayer
10
57.6170109
20
311.3310334
40
8.1131096
50
160.892635
51
171.23343
0
ARC
8
back_labelLayer
10
63.3956784
20
310.3987956
40
13.9664084
50
171.0667708
51
177.8456917
0
ARC
8
back_labelLayer
10
69.4054575
20
310.0931367
40
19.983588
50
177.6176679
51
180.0425346
0
ARC
8
back_labelLayer
10
66.5714247
20
310.011337
40
17.1496804
50
179.776276
51
185.707528
0
ARC
8
back_labelLayer
10
59.8098894
20
309.3146578
40
10.3524013
50
185.5924792
51
194.2050787
0
ARC
8
back_labelLayer
10
55.4785674
20
308.1905286
40
5.8777232
50
193.9430541
51
208.0218281
0
ARC
8
back_labelLayer
10
53.7260702
20
307.298986
40
3.9119884
50
208.5536545
51
217.560562
0
ARC
8
back_labelLayer
10
53.5833012
20
307.239606
40
3.7628284
50
218.1690494
51
253.8047161
0
ARC
8
back_labelLayer
10
54.2812338
20
309.391407
40
6.0243082
50
253.1382528
51
266.848306
0
ARC
8
back_labelLayer
10
54.4769442
20
311.6994555
40
8.3399072
50
266.3775736
51
270.0510504
0
ARC
8
back_labelLayer
10
54.5397036
20
308.5298714
40
5.1706159
50
269.3868904
51
285.8630631
0
ARC
8
back_labelLayer
10
54.9238471
20
307.1415217
40
3.7301495
50
286.0162948
51
326.8497348
0
ARC
8
back_labelLayer
10
53.0697689
20
308.3697807
40
5.9541315
50
326.7105035
51
343.666179
0
ARC
8
back_labelLayer
10
49.5990306
20
309.4303244
40
9.5831395
50
343.4171449
51
353.6369096
0
ARC
8
back_labelLayer
10
44.3568342
20
310.0523457
40
14.8620259
50
353.4934835
51
0.2205391
0
ARC
8
back_labelLayer
10
43.8947881
20
310.1715813
40
15.3240875
50
359.7680738
51
6.3095228
0
ARC
8
back_labelLayer
10
49.6670466
20
310.8339829
40
9.5140258
50
6.1648633
51
16.0396359
0
ARC
8
back_labelLayer
10
53.3854567
20
311.9297964
40
5.6376534
50
15.7779444
51
32.0151211
0
ARC
8
back_labelLayer
10
54.5450159
20
312.5938373
40
4.3027274
50
32.7034044
51
35.5242559
0
ARC
8
back_labelLayer
10
54.9690785
20
312.8952442
40
3.7824642
50
35.5408363
51
79.8011216
0
ARC
8
back_labelLayer
10
54.4611324
20
310.7358588
40
5.998821
50
78.6781419
51
90.3749565
0
LINE
8
back_labelLayer
10
78.890625
20
301.5001765
11
76.96875
21
301.5001765
0
LINE
8
back_labelLayer
10
76.96875
20
301.5001765
11
76.453125
21
303.9376765
0
LINE
8
back_labelLayer
10
76.453125
20
303.9376765
11
76.328125
21
303.9376765
0
LINE
8
back_labelLayer
10
73.453125
20
311.6720515
11
76.359375
21
311.7658015
0
LINE
8
back_labelLayer
10
76.359375
20
311.7658015
11
76.359375
21
312.8283015
0
LINE
8
back_labelLayer
10
67.875
20
315.4533015
11
67.078125
21
317.4376765
0
LINE
8
back_labelLayer
10
78.890625
20
313.1876765
11
78.890625
21
301.5001765
0
LINE
8
back_labelLayer
10
76.296875
20
308.3751765
11
76.296875
21
309.9220515
0
LINE
8
back_labelLayer
10
76.296875
20
309.9220515
11
73.703125
21
309.8126765
0
ARC
8
back_labelLayer
10
67.8890948
20
310.600701
40
10.7523545
50
314.744501
51
321.7071925
0
ARC
8
back_labelLayer
10
70.5307681
20
307.9165548
40
6.9863473
50
304.8485636
51
314.8530777
0
ARC
8
back_labelLayer
10
71.7997826
20
306.1102426
40
4.778852
50
294.3932861
51
304.7371537
0
ARC
8
back_labelLayer
10
71.3662396
20
307.23359
40
5.9813718
50
281.2979399
51
293.7313757
0
ARC
8
back_labelLayer
10
70.7931103
20
310.0112488
40
8.8175047
50
272.9335009
51
281.4139246
0
ARC
8
back_labelLayer
10
70.6031354
20
312.8603061
40
11.6726335
50
269.9539311
51
273.1490855
0
ARC
8
back_labelLayer
10
70.537522
20
309.1473498
40
7.9598719
50
258.6719698
51
270.404737
0
ARC
8
back_labelLayer
10
69.9846183
20
306.5024824
40
5.2579742
50
238.3273176
51
258.9183727
0
ARC
8
back_labelLayer
10
69.6035913
20
305.8073467
40
4.4664921
50
227.7689254
51
237.8050257
0
ARC
8
back_labelLayer
10
69.4844213
20
305.6409867
40
4.2632808
50
192.0827651
51
227.4520779
0
ARC
8
back_labelLayer
10
71.6823975
20
306.1828086
40
6.5263527
50
179.5457371
51
192.694932
0
ARC
8
back_labelLayer
10
69.6404951
20
306.4191112
40
4.4880415
50
115.4904626
51
182.3568129
0
ARC
8
back_labelLayer
10
71.8881559
20
302.2964369
40
9.1802393
50
101.3568175
51
117.0798585
0
ARC
8
back_labelLayer
10
73.6932314
20
293.8611676
40
17.8061293
50
92.46962
51
101.7064982
0
ARC
8
back_labelLayer
10
74.2120833
20
286.3458931
40
25.3375278
50
91.7164901
51
92.9095366
0
ARC
8
back_labelLayer
10
68.9096075
20
312.8681747
40
7.4498742
50
359.6933403
51
8.0035823
0
ARC
8
back_labelLayer
10
71.7277476
20
313.2787192
40
4.6020443
50
7.8272676
51
20.6041671
0
ARC
8
back_labelLayer
10
73.322481
20
313.8887829
40
2.8946491
50
20.409432
51
41.4479195
0
ARC
8
back_labelLayer
10
73.5581122
20
314.0183039
40
2.6329536
50
42.7295352
51
71.0380352
0
ARC
8
back_labelLayer
10
73.0033756
20
312.5099633
40
4.2398399
50
70.5716363
51
83.9928708
0
ARC
8
back_labelLayer
10
72.73836
20
310.3572475
40
6.4085838
50
83.650682
51
90.1753229
0
ARC
8
back_labelLayer
10
72.7848478
20
308.3213671
40
8.4446931
50
90.4484669
51
103.7665423
0
ARC
8
back_labelLayer
10
73.7778968
20
304.1336373
40
12.748476
50
103.622649
51
112.4319963
0
ARC
8
back_labelLayer
10
75.4800477
20
299.8358236
40
17.370733
50
112.2122103
51
115.964113
0
ARC
8
back_labelLayer
10
72.7541519
20
306.911555
40
11.9589513
50
106.3568562
51
118.3349892
0
ARC
8
back_labelLayer
10
73.2636771
20
305.3375457
40
13.612823
50
104.5162422
51
106.5489192
0
ARC
8
back_labelLayer
10
72.8899774
20
306.894486
40
12.0119498
50
90.0714407
51
104.6521084
0
ARC
8
back_labelLayer
10
72.9371203
20
307.9520417
40
10.954561
50
81.5679718
51
90.3249103
0
ARC
8
back_labelLayer
10
73.5704955
20
312.0782996
40
6.7800642
50
68.2273518
51
81.7494133
0
ARC
8
back_labelLayer
10
74.4526865
20
314.2732717
40
4.4144515
50
47.8683269
51
68.2934042
0
ARC
8
back_labelLayer
10
74.5958695
20
314.5591632
40
4.1072727
50
19.2330972
51
46.6741168
0
ARC
8
back_labelLayer
10
72.2107079
20
313.6718772
40
6.6517959
50
6.3378996
51
19.6815428
0
ARC
8
back_labelLayer
10
68.6848374
20
313.2228245
40
10.2058482
50
359.8026782
51
6.6583552
0
ARC
8
back_labelLayer
10
71.161822
20
310.4694617
40
7.1413528
50
269.5792088
51
282.0413553
0
ARC
8
back_labelLayer
10
71.6827337
20
308.1589129
40
4.7730497
50
281.7120955
51
306.4593968
0
ARC
8
back_labelLayer
10
71.9137297
20
307.7790333
40
4.3304352
50
306.9881071
51
313.8559658
0
ARC
8
back_labelLayer
10
71.8862345
20
307.7711847
40
4.3438993
50
314.1892011
51
347.4269871
0
ARC
8
back_labelLayer
10
69.7102685
20
308.3164733
40
6.5866449
50
346.9177514
51
0.2824599
0
ARC
8
back_labelLayer
10
68.0362307
20
308.3751605
40
8.2606442
50
359.8181646
51
0.0001108
0
ARC
8
back_labelLayer
10
74.3200974
20
290.7778518
40
19.044821
50
91.856468
51
96.4478366
0
ARC
8
back_labelLayer
10
73.4612321
20
298.2098506
40
11.5633991
50
96.3545375
51
102.9953277
0
ARC
8
back_labelLayer
10
72.2953891
20
303.1631699
40
6.474815
50
102.7995598
51
113.243297
0
ARC
8
back_labelLayer
10
71.3342924
20
305.4617496
40
3.9835827
50
113.5886567
51
121.6804787
0
ARC
8
back_labelLayer
10
70.6665459
20
306.478714
40
2.7676786
50
120.9734025
51
172.4179845
0
ARC
8
back_labelLayer
10
71.9716963
20
306.2180192
40
4.0967225
50
171.212223
51
180.205838
0
ARC
8
back_labelLayer
10
71.5816397
20
306.1726738
40
3.7067662
50
179.5265798
51
192.7787178
0
ARC
8
back_labelLayer
10
70.3277071
20
305.8687158
40
2.4167354
50
192.3264414
51
222.057976
0
ARC
8
back_labelLayer
10
70.2344252
20
305.8129294
40
2.3102022
50
222.5805028
51
229.2547279
0
ARC
8
back_labelLayer
10
70.5496147
20
306.2187233
40
2.8234831
50
229.7837045
51
254.2724202
0
ARC
8
back_labelLayer
10
70.9693887
20
307.617581
40
4.2838273
50
253.9396693
51
266.4533788
0
ARC
8
back_labelLayer
10
71.1033689
20
309.1619626
40
5.8336642
50
266.0783191
51
270.0589893
0
LINE
8
back_labelLayer
10
95.65625
20
318.0470515
11
94.859375
21
315.8439265
0
LINE
8
back_labelLayer
10
95.40625
20
304.3751765
11
95.40625
21
302.0783015
0
ARC
8
back_labelLayer
10
90.995395
20
310.8812114
40
9.6938879
50
256.4243799
51
270.4889823
0
ARC
8
back_labelLayer
10
90.2207625
20
307.8578824
40
6.5733422
50
221.797631
51
256.8020498
0
ARC
8
back_labelLayer
10
90.9709069
20
308.4121346
40
7.5024893
50
196.0166653
51
221.1349202
0
ARC
8
back_labelLayer
10
94.7410669
20
309.5644879
40
11.4444494
50
183.5913773
51
196.3539487
0
ARC
8
back_labelLayer
10
98.9645246
20
309.9365638
40
15.6832835
50
179.9388522
51
183.9815035
0
ARC
8
back_labelLayer
10
97.5922428
20
310.0454422
40
14.3112894
50
169.8978374
51
180.3688914
0
ARC
8
back_labelLayer
10
92.6101615
20
310.9670547
40
9.2448537
50
153.0875167
51
170.105134
0
ARC
8
back_labelLayer
10
90.719844
20
311.8702998
40
7.1506009
50
138.6549957
51
152.6853562
0
ARC
8
back_labelLayer
10
90.3670414
20
312.1274
40
6.7160172
50
101.491291
51
138.3133903
0
ARC
8
back_labelLayer
10
91.1769978
20
308.7564506
40
10.1814876
50
89.5891807
51
102.1787776
0
ARC
8
back_labelLayer
10
91.2392835
20
307.2328369
40
11.7048445
50
77.7702367
51
89.9475421
0
ARC
8
back_labelLayer
10
91.0177446
20
306.0106202
40
12.9463228
50
74.6796994
51
77.9578574
0
ARC
8
back_labelLayer
10
92.2144491
20
310.3460751
40
8.4487505
50
70.0945551
51
74.7386106
0
ARC
8
back_labelLayer
10
93.3527741
20
313.4656433
40
5.128001
50
63.5033751
51
70.1861825
0
ARC
8
back_labelLayer
10
93.8993067
20
314.6094994
40
3.86052
50
62.928287
51
63.1887251
0
ARC
8
back_labelLayer
10
90.5985085
20
305.1208056
40
11.538644
50
68.3294425
51
74.8831272
0
ARC
8
back_labelLayer
10
89.9898062
20
302.9624518
40
13.7810748
50
74.7801684
51
77.4497519
0
ARC
8
back_labelLayer
10
90.6288903
20
305.9622184
40
10.7141515
50
77.2998952
51
81.7345288
0
ARC
8
back_labelLayer
10
91.0950381
20
309.2103405
40
7.4327579
50
81.6910228
51
87.5079043
0
ARC
8
back_labelLayer
10
91.184975
20
310.8913453
40
5.7494569
50
87.6749167
51
89.9748374
0
ARC
8
back_labelLayer
10
91.0589203
20
310.8889208
40
5.7533177
50
88.7194018
51
112.5667692
0
ARC
8
back_labelLayer
10
90.6501078
20
312.2405589
40
4.3505766
50
114.426571
51
161.6632788
0
ARC
8
back_labelLayer
10
94.7112459
20
310.6509854
40
8.7086578
50
160.1418385
51
175.1368199
0
ARC
8
back_labelLayer
10
100.3009361
20
310.0233091
40
14.3322384
50
174.5309931
51
180.1549408
0
ARC
8
back_labelLayer
10
98.5300118
20
309.919686
40
12.5614293
50
179.7041309
51
188.0743718
0
ARC
8
back_labelLayer
10
94.0055382
20
309.2577047
40
7.9888527
50
187.9315171
51
200.3885438
0
ARC
8
back_labelLayer
10
91.5591144
20
308.3514291
40
5.3799615
50
200.418336
51
216.6392841
0
ARC
8
back_labelLayer
10
90.5335204
20
307.6182559
40
4.1195452
50
216.9695326
51
261.3103052
0
ARC
8
back_labelLayer
10
90.9861377
20
309.7284289
40
6.2751965
50
260.1359438
51
270.269235
0
ARC
8
back_labelLayer
10
90.9652476
20
314.3109339
40
10.8577492
50
270.2658401
51
286.2891413
0
ARC
8
back_labelLayer
10
90.3051758
20
316.7725605
40
13.405823
50
286.0460667
51
292.3653902
0
ARC
8
back_labelLayer
10
92.0630355
20
308.6552016
40
7.3778519
50
282.0344333
51
296.9454504
0
ARC
8
back_labelLayer
10
91.3042721
20
312.0746633
40
10.8804029
50
272.5980472
51
282.1878396
0
ARC
8
back_labelLayer
10
91.0866915
20
315.4116855
40
14.2240114
50
269.9654934
51
272.8642787
0
LINE
8
back_labelLayer
10
101.90625
20
310.2658015
11
102.03125
21
310.2658015
0
LINE
8
back_labelLayer
10
104.078125
20
312.7658015
11
109.609375
21
318.6251765
0
LINE
8
back_labelLayer
10
109.609375
20
318.6251765
11
112.6875
21
318.6251765
0
LINE
8
back_labelLayer
10
112.6875
20
318.6251765
11
105.75
21
311.3283015
0
LINE
8
back_labelLayer
10
105.75
20
311.3283015
11
113.171875
21
301.5001765
0
LINE
8
back_labelLayer
10
113.171875
20
301.5001765
11
110.03125
21
301.5001765
0
LINE
8
back_labelLayer
10
110.03125
20
301.5001765
11
103.984375
21
309.5939265
0
LINE
8
back_labelLayer
10
103.984375
20
309.5939265
11
102.03125
21
307.9064265
0
LINE
8
back_labelLayer
10
102.03125
20
307.9064265
11
102.03125
21
301.5001765
0
LINE
8
back_labelLayer
10
102.03125
20
301.5001765
11
99.46875
21
301.5001765
0
LINE
8
back_labelLayer
10
99.46875
20
301.5001765
11
99.46875
21
325.8126765
0
LINE
8
back_labelLayer
10
99.46875
20
325.8126765
11
102.03125
21
325.8126765
0
LINE
8
back_labelLayer
10
102.03125
20
325.8126765
11
102.03125
21
312.9220515
0
ARC
8
back_labelLayer
10
114.5636201
20
301.3948707
40
15.3542735
50
142.3233452
51
144.7075584
0
ARC
8
back_labelLayer
10
122.7409365
20
295.0875277
40
25.6814734
50
140.4331342
51
142.3365619
0
ARC
8
back_labelLayer
10
133.3972032
20
286.3155136
40
39.4837856
50
139.279914
51
140.4703193
0
ARC
8
back_labelLayer
10
145.7183085
20
275.7201846
40
55.7340347
50
138.3417808
51
139.2877138
0
ARC
8
back_labelLayer
10
84.7466295
20
312.9544059
40
17.2846508
50
358.2739173
51
359.8927505
0
ARC
8
back_labelLayer
10
71.2986865
20
313.3291778
40
30.7377956
50
357.5041813
51
358.3307089
0
ARC
8
back_labelLayer
10
51.1763094
20
314.2179539
40
50.879789
50
356.6324954
51
357.4910348
0
ARC
8
back_labelLayer
10
17.71875
20
316.1693083
40
84.3942021
50
356.03292
51
356.6442535
0
ARC
8
back_labelLayer
10
-6.7374234
20
317.8233074
40
108.906215
50
356.0207828
51
356.0549756
0
LINE
8
right_outsideCutPath
10
168
20
416
11
168
21
382.81025
0
LINE
8
right_outsideCutPath
10
168
20
382.81025
11
163
21
382.81025
0
LINE
8
right_outsideCutPath
10
163
20
382.81025
11
163
21
355.08615
0
LINE
8
right_outsideCutPath
10
163
20
355.08615
11
168
21
355.08615
0
LINE
8
right_outsideCutPath
10
168
20
355.08615
11
168
21
327.36205
0
LINE
8
right_outsideCutPath
10
168
20
327.36205
11
163
21
327.36205
0
LINE
8
right_outsideCutPath
10
163
20
327.36205
11
163
21
299.63795
0
LINE
8
right_outsideCutPath
10
163
20
299.63795
11
168
21
299.63795
0
LINE
8
right_outsideCutPath
10
168
20
299.63795
11
168
21
271.91385
0
LINE
8
right_outsideCutPath
10
168
20
271.91385
11
163
21
271.91385
0
LINE
8
right_outsideCutPath
10
163
20
271.91385
11
163
21
244.18975
0
LINE
8
right_outsideCutPath
10
163
20
244.18975
11
168
21
244.18975
0
LINE
8
right_outsideCutPath
10
168
20
244.18975
11
168
21
216.46565
0
LINE
8
right_outsideCutPath
10
168
20
216.46565
11
168
21
211
0
LINE
8
right_outsideCutPath
10
168
20
211
11
201.41385
21
211
0
LINE
8
right_outsideCutPath
10
201.41385
20
211
11
201.41385
21
216
0
LINE
8
right_outsideCutPath
10
201.41385
20
216
11
229.13795
21
216
0
LINE
8
right_outsideCutPath
10
229.13795
20
216
11
229.13795
21
211
0
LINE
8
right_outsideCutPath
10
229.13795
20
211
11
256.86205
21
211
0
LINE
8
right_outsideCutPath
10
256.86205
20
211
11
256.86205
21
216
0
LINE
8
right_outsideCutPath
10
256.86205
20
216
11
284.58615
21
216
0
LINE
8
right_outsideCutPath
10
284.58615
20
216
11
284.58615
21
211
0
LINE
8
right_outsideCutPath
10
284.58615
20
211
11
312.31025
21
211
0
LINE
8
right_outsideCutPath
10
312.31025
20
211
11
318
21
211
0
LINE
8
right_outsideCutPath
10
318
20
211
11
318
21
244.18975
0
LINE
8
right_outsideCutPath
10
318
20
244.18975
11
323
21
244.18975
0
LINE
8
right_outsideCutPath
10
323
20
244.18975
11
323
21
271.91385
0
LINE
8
right_outsideCutPath
10
323
20
271.91385
11
318
21
271.91385
0
LINE
8
right_outsideCutPath
10
318
20
271.91385
11
318
21
299.63795
0
LINE
8
right_outsideCutPath
10
318
20
299.63795
11
323
21
299.63795
0
LINE
8
right_outsideCutPath
10
323
20
299.63795
11
323
21
327.36205
0
LINE
8
right_outsideCutPath
10
323
20
327.36205
11
318
21
327.36205
0
LINE
8
right_outsideCutPath
10
318
20
327.36205
11
318
21
355.08615
0
LINE
8
right_outsideCutPath
10
318
20
355.08615
11
323
21
355.08615
0
LINE
8
right_outsideCutPath
10
323
20
355.08615
11
323
21
382.81025
0
LINE
8
right_outsideCutPath
10
323
20
382.81025
11
318
21
382.81025
0
LINE
8
right_outsideCutPath
10
318
20
382.81025
11
318
21
410.53435
0
LINE
8
right_outsideCutPath
10
318
20
410.53435
11
318
21
416
0
LINE
8
right_outsideCutPath
10
318
20
416
11
168
21
416
0
LINE
8
right_labelLayer
10
219.7578125
20
322.4375944
11
219.3984375
21
320.0313444
0
LINE
8
right_labelLayer
10
212.4921875
20
314.3750944
11
212.4921875
21
305.1875944
0
LINE
8
right_labelLayer
10
212.4921875
20
305.1875944
11
209.8984375
21
305.1875944
0
LINE
8
right_labelLayer
10
209.8984375
20
305.1875944
11
209.8984375
21
322.3125944
0
LINE
8
right_labelLayer
10
209.8984375
20
322.3125944
11
212.0390625
21
322.3125944
0
LINE
8
right_labelLayer
10
212.0390625
20
322.3125944
11
212.3359375
21
319.1407194
0
LINE
8
right_labelLayer
10
212.3359375
20
319.1407194
11
212.4609375
21
319.1407194
0
ARC
8
right_labelLayer
10
217.7375604
20
310.7176244
40
11.9074997
50
84.9922917
51
90.1281024
0
ARC
8
right_labelLayer
10
218.0235197
20
313.9214939
40
8.6908997
50
78.4891948
51
85.0265918
0
ARC
8
right_labelLayer
10
216.913613
20
308.8733803
40
11.4312954
50
77.4453733
51
81.6360481
0
ARC
8
right_labelLayer
10
217.4116505
20
312.3063128
40
7.9624334
50
81.5884406
51
87.191658
0
ARC
8
right_labelLayer
10
217.5198255
20
314.1822482
40
6.0834723
50
87.3436061
51
89.9659812
0
ARC
8
right_labelLayer
10
217.4946932
20
315.77161
40
4.4942013
50
89.6335421
51
137.0880789
0
ARC
8
right_labelLayer
10
218.5976675
20
314.5312869
40
6.1485397
50
135.6209057
51
138.8377111
0
ARC
8
right_labelLayer
10
218.4360349
20
314.689057
40
5.9230245
50
138.9575772
51
174.5422216
0
ARC
8
right_labelLayer
10
220.3650132
20
314.3872258
40
7.872835
50
173.6907523
51
180.0882884
0
ARC
8
right_labelLayer
10
220.0922923
20
314.8412497
40
8.7591675
50
139.4139213
51
150.6032925
0
ARC
8
right_labelLayer
10
218.5217754
20
316.1870194
40
6.690927
50
124.2321438
51
139.4161042
0
ARC
8
right_labelLayer
10
217.6820288
20
317.4546144
40
5.1705607
50
89.6796565
51
124.4405691
0
LINE
8
right_labelLayer
10
225.5546875
20
322.3125944
11
225.5546875
21
305.1875944
0
LINE
8
right_labelLayer
10
225.5546875
20
305.1875944
11
222.9609375
21
305.1875944
0
LINE
8
right_labelLayer
10
222.9609375
20
305.1875944
11
222.9609375
21
322.3125944
0
LINE
8
right_labelLayer
10
222.9609375
20
322.3125944
11
225.5546875
21
322.3125944
0
ARC
8
right_labelLayer
10
225.6163061
20
326.9710024
40
2.8741736
50
170.8451706
51
180.3545016
0
ARC
8
right_labelLayer
10
224.5403498
20
327.1509054
40
1.7833113
50
155.9678998
51
171.0515555
0
ARC
8
right_labelLayer
10
224.0191935
20
327.3821125
40
1.2131719
50
133.7880482
51
155.9171482
0
ARC
8
right_labelLayer
10
224.2115995
20
327.1693977
40
1.4998982
50
92.6446093
51
133.4710558
0
ARC
8
right_labelLayer
10
224.2723779
20
326.6919716
40
1.9799981
50
89.9693383
51
93.7641149
0
ARC
8
right_labelLayer
10
224.2971188
20
327.1439467
40
1.5282062
50
46.3708556
51
90.8879009
0
ARC
8
right_labelLayer
10
224.4492114
20
327.3009638
40
1.3096131
50
17.725201
51
46.4473267
0
ARC
8
right_labelLayer
10
223.7399637
20
327.0567265
40
2.0596175
50
4.9427948
51
18.1900776
0
ARC
8
right_labelLayer
10
222.8376519
20
326.9591861
40
2.9670415
50
359.8847783
51
5.318074
0
ARC
8
right_labelLayer
10
223.121126
20
326.9349956
40
2.6836234
50
349.834484
51
0.3890829
0
ARC
8
right_labelLayer
10
224.0981202
20
326.752739
40
1.6898134
50
332.632221
51
350.0705951
0
ARC
8
right_labelLayer
10
224.4783815
20
326.5649692
40
1.2658208
50
313.6153915
51
332.26772
0
ARC
8
right_labelLayer
10
224.2951235
20
326.7318333
40
1.5131442
50
269.1788247
51
314.2807448
0
ARC
8
right_labelLayer
10
224.2562458
20
326.8663448
40
1.6475901
50
250.4999782
51
270.5978608
0
ARC
8
right_labelLayer
10
224.2063863
20
326.6799037
40
1.4552794
50
225.1300956
51
249.900122
0
ARC
8
right_labelLayer
10
224.1283194
20
326.5936661
40
1.3390971
50
197.7933707
51
224.8941779
0
ARC
8
right_labelLayer
10
224.8589782
20
326.8440556
40
2.1113744
50
184.9925601
51
198.2040506
0
ARC
8
right_labelLayer
10
225.8045635
20
326.946837
40
3.0623827
50
179.880588
51
185.3686348
0
LINE
8
right_labelLayer
10
239.1484375
20
322.3125944
11
245.0703125
21
322.3125944
0
LINE
8
right_labelLayer
10
245.0703125
20
322.3125944
11
245.0703125
21
320.6719694
0
LINE
8
right_labelLayer
10
245.0703125
20
320.6719694
11
241.8984375
21
320.2969694
0
LINE
8
right_labelLayer
10
236.0546875
20
307.9063444
11
239.0859375
21
307.9063444
0
LINE
8
right_labelLayer
10
238.2578125
20
305.5782194
11
235.1484375
21
305.5782194
0
ARC
8
right_labelLayer
10
238.593094
20
317.6811598
40
4.2151815
50
29.4584462
51
38.3576734
0
ARC
8
right_labelLayer
10
236.8706441
20
316.6978823
40
6.1985152
50
23.1845551
51
29.542235
0
ARC
8
right_labelLayer
10
235.227422
20
315.9691578
40
7.9959606
50
21.2506449
51
23.3489839
0
ARC
8
right_labelLayer
10
238.0207032
20
317.0800611
40
4.9900193
50
6.8504901
51
20.987183
0
ARC
8
right_labelLayer
10
236.6152957
20
316.8895124
40
6.408158
50
359.8710878
51
7.0431957
0
ARC
8
right_labelLayer
10
237.0777054
20
316.8132686
40
5.9460535
50
342.5649825
51
0.5957594
0
ARC
8
right_labelLayer
10
238.1743396
20
316.510448
40
4.8092329
50
310.6097757
51
342.092365
0
ARC
8
right_labelLayer
10
237.5593888
20
317.2257485
40
5.7525347
50
284.9315838
51
310.6222701
0
ARC
8
right_labelLayer
10
236.78985
20
319.9223245
40
8.556481
50
272.5334951
51
285.2579591
0
ARC
8
right_labelLayer
10
236.5919948
20
322.6248629
40
11.2653953
50
269.9691925
51
272.9312253
0
ARC
8
right_labelLayer
10
236.5674382
20
319.6953279
40
8.3358791
50
263.4836701
51
270.1271528
0
ARC
8
right_labelLayer
10
236.4316418
20
318.4055467
40
7.0390287
50
259.496331
51
263.390442
0
ARC
8
right_labelLayer
10
237.2720146
20
307.3865371
40
4.615477
50
117.3935062
51
128.4095258
0
ARC
8
right_labelLayer
10
236.0838081
20
308.8605949
40
2.7222559
50
128.0881918
51
147.1400428
0
ARC
8
right_labelLayer
10
235.4436746
20
309.2901738
40
1.951507
50
147.5369194
51
180.2592308
0
ARC
8
right_labelLayer
10
234.8363959
20
309.2647309
40
1.344311
50
179.2918982
51
198.3580556
0
ARC
8
right_labelLayer
10
234.5846982
20
309.1985825
40
1.0847147
50
199.2291818
51
239.5690933
0
ARC
8
right_labelLayer
10
234.7931869
20
309.4866072
40
1.4390596
50
238.2199198
51
239.846119
0
ARC
8
right_labelLayer
10
234.9598849
20
309.8294467
40
1.819459
50
240.7302895
51
254.5026525
0
ARC
8
right_labelLayer
10
235.4564613
20
311.5406415
40
3.6011848
50
254.1637342
51
262.2123429
0
ARC
8
right_labelLayer
10
235.8498065
20
314.2879658
40
6.3764939
50
262.0555552
51
267.2083196
0
ARC
8
right_labelLayer
10
236.0398222
20
317.773131
40
9.8667979
50
267.0919128
51
270.0863217
0
ARC
8
right_labelLayer
10
239.142636
20
297.289164
40
10.6173318
50
81.5744386
51
90.3059716
0
ARC
8
right_labelLayer
10
239.7250186
20
301.0873698
40
6.7748146
50
68.3671507
51
81.7399229
0
ARC
8
right_labelLayer
10
240.4856687
20
303.0313172
40
4.687379
50
52.1879559
51
68.2500875
0
ARC
8
right_labelLayer
10
241.0179133
20
303.7484805
40
3.7945451
50
8.6201389
51
51.8982487
0
ARC
8
right_labelLayer
10
239.1525075
20
303.3537776
40
5.6991122
50
359.7430506
51
9.7326423
0
ARC
8
right_labelLayer
10
239.2360429
20
303.2576337
40
5.6159632
50
340.5268789
51
0.7201556
0
ARC
8
right_labelLayer
10
240.0611624
20
303.0521896
40
4.7702486
50
302.9903715
51
339.5494504
0
ARC
8
right_labelLayer
10
239.194892
20
304.153025
40
6.166582
50
303.1869762
51
304.1722389
0
ARC
8
right_labelLayer
10
238.3877605
20
305.5504981
40
7.7784279
50
286.2542285
51
302.5280026
0
ARC
8
right_labelLayer
10
236.9187312
20
310.3960416
40
12.841586
50
276.4939831
51
286.4953596
0
ARC
8
right_labelLayer
10
236.0021478
20
318.0581319
40
20.5582262
50
269.7545054
51
276.6169694
0
ARC
8
right_labelLayer
10
235.845609
20
312.0320271
40
14.5320939
50
262.5634723
51
270.2698931
0
ARC
8
right_labelLayer
10
235.1338501
20
306.7565071
40
9.2088545
50
251.2101837
51
262.7064078
0
ARC
8
right_labelLayer
10
234.107972
20
303.745412
40
6.0277986
50
235.9668026
51
251.2229158
0
ARC
8
right_labelLayer
10
233.0206353
20
302.1942104
40
4.1338748
50
208.9036211
51
236.4231456
0
ARC
8
right_labelLayer
10
233.120458
20
302.1523665
40
4.2018957
50
182.2079872
51
207.74615
0
ARC
8
right_labelLayer
10
234.3908245
20
302.2792797
40
5.4767625
50
179.9784004
51
183.0227172
0
ARC
8
right_labelLayer
10
232.8794215
20
302.3509244
40
3.9659694
50
138.3916156
51
181.0052639
0
ARC
8
right_labelLayer
10
233.2982346
20
301.9745352
40
4.5290534
50
113.812146
51
138.3496182
0
ARC
8
right_labelLayer
10
234.0926711
20
300.2590103
40
6.419379
50
102.2870815
51
114.1172609
0
ARC
8
right_labelLayer
10
233.8430388
20
308.9808744
40
2.6919727
50
216.5861437
51
245.4968798
0
ARC
8
right_labelLayer
10
234.2281628
20
309.3076394
40
3.196143
50
215.4650037
51
217.1747538
0
ARC
8
right_labelLayer
10
233.5865212
20
308.8441902
40
2.4046549
50
182.1767412
51
215.3415449
0
ARC
8
right_labelLayer
10
234.1579279
20
308.9054926
40
2.9782404
50
179.9836139
51
182.9377262
0
ARC
8
right_labelLayer
10
234.1456839
20
308.9314173
40
2.9661024
50
161.7226054
51
180.4843365
0
ARC
8
right_labelLayer
10
233.8195634
20
309.020405
40
2.6285867
50
144.496349
51
161.3350694
0
ARC
8
right_labelLayer
10
234.6888906
20
308.3725061
40
3.7126263
50
132.7259071
51
144.1479603
0
ARC
8
right_labelLayer
10
236.0821737
20
306.8846477
40
5.7509671
50
125.2212742
51
132.8655541
0
ARC
8
right_labelLayer
10
237.4828871
20
304.9395888
40
8.1478181
50
121.2352323
51
125.3795032
0
ARC
8
right_labelLayer
10
234.9997427
20
316.1065072
40
4.5470527
50
215.1640787
51
247.4747868
0
ARC
8
right_labelLayer
10
235.8484749
20
316.7914721
40
5.6358306
50
212.4713529
51
215.8875479
0
ARC
8
right_labelLayer
10
235.6253263
20
316.6318263
40
5.3618796
50
183.0160878
51
212.3123137
0
ARC
8
right_labelLayer
10
236.8019435
20
316.7629719
40
6.5441316
50
179.9759452
51
183.6206926
0
ARC
8
right_labelLayer
10
237.7513306
20
316.8290128
40
7.4937854
50
166.8195795
51
180.4839328
0
ARC
8
right_labelLayer
10
235.2653434
20
317.4566702
40
4.9303684
50
132.328779
51
167.3340799
0
ARC
8
right_labelLayer
10
235.5979332
20
316.9785995
40
5.5082883
50
106.2188964
51
131.5377657
0
ARC
8
right_labelLayer
10
236.4394532
20
314.2538224
40
8.3597987
50
93.6329797
51
106.5408677
0
ARC
8
right_labelLayer
10
236.7141694
20
311.1696248
40
11.4554762
50
89.9380145
51
94.0267795
0
ARC
8
right_labelLayer
10
236.7586556
20
312.6831506
40
9.9419956
50
82.585225
51
90.184953
0
ARC
8
right_labelLayer
10
237.0624346
20
315.0335711
40
7.5720266
50
74.0088991
51
82.5694404
0
ARC
8
right_labelLayer
10
234.0188129
20
302.2771662
40
2.6049913
50
179.2207475
51
200.9355449
0
ARC
8
right_labelLayer
10
233.7090287
20
302.2054358
40
2.2904444
50
202.0286796
51
236.145752
0
ARC
8
right_labelLayer
10
234.1759355
20
302.7982772
40
3.0434223
50
235.0634727
51
238.5041009
0
ARC
8
right_labelLayer
10
234.7186872
20
303.7677207
40
4.1538285
50
239.1066323
51
254.4862753
0
ARC
8
right_labelLayer
10
235.4423614
20
306.2629348
40
6.7517598
50
254.2324124
51
263.4937367
0
ARC
8
right_labelLayer
10
235.8969397
20
310.1131376
40
10.6286856
50
263.4108438
51
270.1457355
0
ARC
8
right_labelLayer
10
235.9451767
20
312.7056014
40
13.2211319
50
269.9081166
51
270.0005885
0
ARC
8
right_labelLayer
10
236.0074722
20
316.9208499
40
17.4364913
50
269.7957448
51
275.3991211
0
ARC
8
right_labelLayer
10
236.6600687
20
310.2213468
40
10.705324
50
275.2956942
51
283.3516134
0
ARC
8
right_labelLayer
10
237.7232799
20
305.8421945
40
6.1990549
50
283.1370677
51
295.8572972
0
ARC
8
right_labelLayer
10
238.511112
20
304.1222586
40
4.3079121
50
296.4047517
51
301.8009184
0
ARC
8
right_labelLayer
10
238.8199666
20
303.6965537
40
3.7835478
50
301.2230791
51
318.6238183
0
ARC
8
right_labelLayer
10
239.5166272
20
303.0530215
40
2.8354974
50
319.0765482
51
1.1406945
0
ARC
8
right_labelLayer
10
238.842406
20
303.1372704
40
3.5092667
50
359.5460882
51
10.9904813
0
ARC
8
right_labelLayer
10
240.197915
20
303.4129806
40
2.1260913
50
10.6608657
51
30.9362049
0
ARC
8
right_labelLayer
10
240.6276978
20
303.6514957
40
1.6349145
50
31.5095576
51
58.0777843
0
ARC
8
right_labelLayer
10
240.2248848
20
302.9302441
40
2.4604002
50
58.9972032
51
73.8586298
0
ARC
8
right_labelLayer
10
239.4107012
20
300.2648456
40
5.2472358
50
73.4100146
51
81.59071
0
ARC
8
right_labelLayer
10
238.7208558
20
295.80063
40
9.7643851
50
81.4172191
51
86.5756645
0
ARC
8
right_labelLayer
10
238.2981126
20
289.0743595
40
16.503909
50
86.5054473
51
90.139908
0
ARC
8
right_labelLayer
10
235.1113411
20
299.6160603
40
5.9622745
50
89.6435122
51
100.0209108
0
ARC
8
right_labelLayer
10
234.736602
20
301.6546132
40
3.8896399
50
99.8102877
51
116.8229653
0
ARC
8
right_labelLayer
10
234.3715698
20
302.4244182
40
3.0380235
50
117.2304591
51
130.5023263
0
ARC
8
right_labelLayer
10
234.1841421
20
302.6653068
40
2.733162
50
130.7944675
51
169.0413539
0
ARC
8
right_labelLayer
10
235.5643319
20
302.3402675
40
4.1503616
50
168.2580692
51
180.3820306
0
ARC
8
right_labelLayer
10
237.8830985
20
316.7894947
40
5.0629341
50
179.5617591
51
191.6529045
0
ARC
8
right_labelLayer
10
236.1227772
20
316.4091705
40
3.2621196
50
191.3555188
51
213.3660288
0
ARC
8
right_labelLayer
10
235.7000263
20
316.1650698
40
2.7749449
50
213.9573914
51
227.797184
0
ARC
8
right_labelLayer
10
236.067828
20
316.6111529
40
3.3525745
50
228.2620793
51
254.7341324
0
ARC
8
right_labelLayer
10
236.5377098
20
318.2219201
40
5.0303087
50
254.4016616
51
267.4348652
0
ARC
8
right_labelLayer
10
236.6603012
20
319.866079
40
6.6784856
50
267.015477
51
270.0322688
0
ARC
8
right_labelLayer
10
236.7404242
20
318.8376983
40
5.6506199
50
269.225689
51
284.3773122
0
ARC
8
right_labelLayer
10
237.5105947
20
316.1544127
40
2.8612447
50
282.7796656
51
346.4828544
0
ARC
8
right_labelLayer
10
235.2079903
20
316.8066416
40
5.2533932
50
345.4362161
51
0.7465963
0
ARC
8
right_labelLayer
10
234.884325
20
316.9548499
40
5.5771828
50
359.1806235
51
15.0431809
0
ARC
8
right_labelLayer
10
237.4114425
20
317.6920379
40
2.9458662
50
13.9535654
51
77.6673838
0
ARC
8
right_labelLayer
10
236.6863847
20
315.0937421
40
5.6411518
50
76.1094972
51
90.7028367
0
ARC
8
right_labelLayer
10
236.5778574
20
315.2921838
40
5.4424277
50
89.585944
51
101.3334005
0
ARC
8
right_labelLayer
10
236.188923
20
317.1472356
40
3.5471563
50
101.0620425
51
121.9739129
0
ARC
8
right_labelLayer
10
235.915589
20
317.6389478
40
2.9854388
50
122.5211078
51
134.9966743
0
ARC
8
right_labelLayer
10
236.0281303
20
317.5715218
40
3.1128567
50
135.5840021
51
163.0015753
0
ARC
8
right_labelLayer
10
237.6719482
20
317.0327374
40
4.8424961
50
162.5911976
51
175.7343179
0
ARC
8
right_labelLayer
10
239.6436097
20
316.8385059
40
6.8233052
50
175.3393302
51
180.086377
0
LINE
8
right_labelLayer
10
262.8984375
20
305.1875944
11
260.3046875
21
305.1875944
0
LINE
8
right_labelLayer
10
260.3046875
20
305.1875944
11
260.3046875
21
316.2657194
0
LINE
8
right_labelLayer
10
251.1796875
20
314.1407194
11
251.1796875
21
305.1875944
0
LINE
8
right_labelLayer
10
251.1796875
20
305.1875944
11
248.5859375
21
305.1875944
0
LINE
8
right_labelLayer
10
248.5859375
20
305.1875944
11
248.5859375
21
329.5000944
0
LINE
8
right_labelLayer
10
248.5859375
20
329.5000944
11
251.1796875
21
329.5000944
0
LINE
8
right_labelLayer
10
251.1796875
20
329.5000944
11
251.1796875
21
322.1407194
0
LINE
8
right_labelLayer
10
251.0546875
20
319.9375944
11
251.2109375
21
319.9375944
0
LINE
8
right_labelLayer
10
262.8984375
20
316.3594694
11
262.8984375
21
305.1875944
0
ARC
8
right_labelLayer
10
252.9729463
20
316.3077684
40
7.3318617
50
359.671401
51
8.6877345
0
ARC
8
right_labelLayer
10
255.6903373
20
316.7387305
40
4.5805794
50
8.4931329
51
22.6580004
0
ARC
8
right_labelLayer
10
257.0709559
20
317.3124727
40
3.0854943
50
22.7024575
51
42.3419503
0
ARC
8
right_labelLayer
10
257.2261489
20
317.3822841
40
2.9242427
50
43.3790957
51
71.5386089
0
ARC
8
right_labelLayer
10
256.6458187
20
315.7606894
40
4.6463034
50
71.0828119
51
84.3691077
0
ARC
8
right_labelLayer
10
256.385317
20
313.5458344
40
6.876159
50
84.019771
51
90.1510649
0
ARC
8
right_labelLayer
10
256.3112882
20
312.5731084
40
7.84906
50
89.5919486
51
100.359523
0
ARC
8
right_labelLayer
10
255.7555026
20
315.4938302
40
4.8760535
50
100.1067816
51
118.0847252
0
ARC
8
right_labelLayer
10
255.1902234
20
316.6030474
40
3.6313993
50
118.4551089
51
139.6706175
0
ARC
8
right_labelLayer
10
255.7577343
20
316.2151451
40
4.3156701
50
140.6208401
51
160.5048873
0
ARC
8
right_labelLayer
10
258.7491014
20
315.1077514
40
7.5052472
50
160.1567063
51
171.5312731
0
ARC
8
right_labelLayer
10
263.5892025
20
314.3408979
40
12.4055919
50
171.32024
51
178.3406752
0
ARC
8
right_labelLayer
10
267.9195775
20
314.1474334
40
16.7398912
50
178.1079637
51
180.0229803
0
ARC
8
right_labelLayer
10
227.8467717
20
322.1129114
40
23.3329323
50
357.8674281
51
0.0682846
0
ARC
8
right_labelLayer
10
235.7733884
20
321.810502
40
15.4005541
50
354.9828658
51
357.8943496
0
ARC
8
right_labelLayer
10
241.0082472
20
321.3546631
40
10.1458882
50
351.9712917
51
354.9618858
0
ARC
8
right_labelLayer
10
255.6043116
20
317.1893855
40
5.1821219
50
119.8315946
51
147.9725825
0
ARC
8
right_labelLayer
10
256.2317553
20
316.2255291
40
6.3307143
50
116.6657639
51
120.4183388
0
ARC
8
right_labelLayer
10
256.3489761
20
315.9176631
40
6.6585265
50
96.6652506
51
116.3782524
0
ARC
8
right_labelLayer
10
256.6014272
20
314.175912
40
8.4179472
50
89.8927295
51
96.9959247
0
ARC
8
right_labelLayer
10
256.6821529
20
312.0708344
40
10.5232105
50
80.6863017
51
90.3537198
0
ARC
8
right_labelLayer
10
257.3373995
20
315.9248883
40
6.613959
50
65.6022706
51
80.8844158
0
ARC
8
right_labelLayer
10
258.124222
20
317.6969865
40
4.6751231
50
46.7401008
51
65.4130656
0
ARC
8
right_labelLayer
10
258.1777022
20
317.8658422
40
4.5161555
50
19.2204295
51
45.7660695
0
ARC
8
right_labelLayer
10
255.5736505
20
316.9004997
40
7.2930508
50
6.4733818
51
19.6467964
0
ARC
8
right_labelLayer
10
251.6825354
20
316.3996913
40
11.2159743
50
359.7945296
51
6.7743956
0
LINE
8
right_labelLayer
10
276.1015625
20
307.3282194
11
276.1015625
21
305.3438444
0
LINE
8
right_labelLayer
10
268.4140625
20
310.1094694
11
268.4140625
21
320.2969694
0
LINE
8
right_labelLayer
10
268.4140625
20
320.2969694
11
265.9609375
21
320.2969694
0
LINE
8
right_labelLayer
10
265.9609375
20
320.2969694
11
265.9609375
21
321.5469694
0
LINE
8
right_labelLayer
10
265.9609375
20
321.5469694
11
268.4140625
21
322.6250944
0
LINE
8
right_labelLayer
10
268.4140625
20
322.6250944
11
269.5078125
21
326.2813444
0
LINE
8
right_labelLayer
10
269.5078125
20
326.2813444
11
271.0078125
21
326.2813444
0
LINE
8
right_labelLayer
10
271.0078125
20
326.2813444
11
271.0078125
21
322.3125944
0
LINE
8
right_labelLayer
10
271.0078125
20
322.3125944
11
275.9765625
21
322.3125944
0
LINE
8
right_labelLayer
10
275.9765625
20
322.3125944
11
275.9765625
21
320.2969694
0
LINE
8
right_labelLayer
10
275.9765625
20
320.2969694
11
271.0078125
21
320.2969694
0
LINE
8
right_labelLayer
10
271.0078125
20
320.2969694
11
271.0078125
21
310.2188444
0
ARC
8
right_labelLayer
10
273.7756001
20
315.5339292
40
8.5182283
50
269.8803557
51
278.3028348
0
ARC
8
right_labelLayer
10
273.8557751
20
314.8773317
40
7.8569506
50
278.4157311
51
279.0078597
0
ARC
8
right_labelLayer
10
272.9008529
20
320.977572
40
14.0314731
50
278.9589847
51
280.5103927
0
ARC
8
right_labelLayer
10
273.811714
20
316.0901442
40
9.0598944
50
280.4848184
51
282.6267943
0
ARC
8
right_labelLayer
10
274.610657
20
312.5406659
40
5.4216142
50
282.5876328
51
285.5795013
0
ARC
8
right_labelLayer
10
275.0118678
20
311.0652305
40
3.8926452
50
285.7236818
51
286.2564339
0
ARC
8
right_labelLayer
10
275.0110793
20
307.6502767
40
2.5512318
50
287.9888418
51
295.3048245
0
ARC
8
right_labelLayer
10
274.3957506
20
309.5119252
40
4.5119215
50
283.3069379
51
288.1198071
0
ARC
8
right_labelLayer
10
273.7456991
20
312.2234991
40
7.3003179
50
280.0070126
51
283.3735067
0
ARC
8
right_labelLayer
10
273.3107719
20
314.5837685
40
9.7002731
50
279.1863095
51
280.1143329
0
ARC
8
right_labelLayer
10
273.0438
20
316.1023208
40
11.2419897
50
275.5260312
51
279.2939395
0
ARC
8
right_labelLayer
10
273.3446487
20
312.9599795
40
8.0852819
50
270.8932486
51
275.5483578
0
ARC
8
right_labelLayer
10
273.382447
20
311.5245053
40
6.6494109
50
270.0031495
51
270.7604193
0
ARC
8
right_labelLayer
10
273.2781461
20
311.6487773
40
6.7744915
50
253.7847911
51
270.8852595
0
ARC
8
right_labelLayer
10
272.4755493
20
308.9116185
40
3.9221012
50
190.3817689
51
253.8772402
0
ARC
8
right_labelLayer
10
276.5663697
20
310.0177054
40
8.1528237
50
179.3550946
51
192.8477703
0
ARC
8
right_labelLayer
10
276.2306739
20
310.1861798
40
5.2229635
50
179.6416684
51
189.7505803
0
ARC
8
right_labelLayer
10
274.3868647
20
309.8573157
40
3.3501141
50
189.5479664
51
205.7873509
0
ARC
8
right_labelLayer
10
273.6291362
20
309.5079042
40
2.5158837
50
206.1294379
51
221.4083833
0
ARC
8
right_labelLayer
10
273.5441735
20
309.4434369
40
2.4095331
50
221.5949234
51
262.350509
0
ARC
8
right_labelLayer
10
273.7462367
20
310.4825115
40
3.4668116
50
261.3265906
51
270.1913121
0
LINE
8
bottom_outsideCutPath
10
331
20
158
11
331
21
124.58615
0
LINE
8
bottom_outsideCutPath
10
331
20
124.58615
11
326
21
124.58615
0
LINE
8
bottom_outsideCutPath
10
326
20
124.58615
11
326
21
96.86205
0
LINE
8
bottom_outsideCutPath
10
326
20
96.86205
11
331
21
96.86205
0
LINE
8
bottom_outsideCutPath
10
331
20
96.86205
11
331
21
69.13795
0
LINE
8
bottom_outsideCutPath
10
331
20
69.13795
11
326
21
69.13795
0
LINE
8
bottom_outsideCutPath
10
326
20
69.13795
11
326
21
41.41385
0
LINE
8
bottom_outsideCutPath
10
326
20
41.41385
11
331
21
41.41385
0
LINE
8
bottom_outsideCutPath
10
331
20
41.41385
11
331
21
13.68975
0
LINE
8
bottom_outsideCutPath
10
331
20
13.68975
11
331
21
8
0
LINE
8
bottom_outsideCutPath
10
331
20
8
11
364.41385
21
8
0
LINE
8
bottom_outsideCutPath
10
364.41385
20
8
11
364.41385
21
3
0
LINE
8
bottom_outsideCutPath
10
364.41385
20
3
11
392.13795
21
3
0
LINE
8
bottom_outsideCutPath
10
392.13795
20
3
11
392.13795
21
8
0
LINE
8
bottom_outsideCutPath
10
392.13795
20
8
11
419.86205
21
8
0
LINE
8
bottom_outsideCutPath
10
419.86205
20
8
11
419.86205
21
3
0
LINE
8
bottom_outsideCutPath
10
419.86205
20
3
11
447.58615
21
3
0
LINE
8
bottom_outsideCutPath
10
447.58615
20
3
11
447.58615
21
8
0
LINE
8
bottom_outsideCutPath
10
447.58615
20
8
11
475.31025
21
8
0
LINE
8
bottom_outsideCutPath
10
475.31025
20
8
11
481
21
8
0
LINE
8
bottom_outsideCutPath
10
481
20
8
11
481
21
41.41385
0
LINE
8
bottom_outsideCutPath
10
481
20
41.41385
11
486
21
41.41385
0
LINE
8
bottom_outsideCutPath
10
486
20
41.41385
11
486
21
69.13795
0
LINE
8
bottom_outsideCutPath
10
486
20
69.13795
11
481
21
69.13795
0
LINE
8
bottom_outsideCutPath
10
481
20
69.13795
11
481
21
96.86205
0
LINE
8
bottom_outsideCutPath
10
481
20
96.86205
11
486
21
96.86205
0
LINE
8
bottom_outsideCutPath
10
486
20
96.86205
11
486
21
124.58615
0
LINE
8
bottom_outsideCutPath
10
486
20
124.58615
11
481
21
124.58615
0
LINE
8
bottom_outsideCutPath
10
481
20
124.58615
11
481
21
152.31025
0
LINE
8
bottom_outsideCutPath
10
481
20
152.31025
11
481
21
158
0
LINE
8
bottom_outsideCutPath
10
481
20
158
11
447.58615
21
158
0
LINE
8
bottom_outsideCutPath
10
447.58615
20
158
11
447.58615
21
163
0
LINE
8
bottom_outsideCutPath
10
447.58615
20
163
11
419.86205
21
163
0
LINE
8
bottom_outsideCutPath
10
419.86205
20
163
11
419.86205
21
158
0
LINE
8
bottom_outsideCutPath
10
419.86205
20
158
11
392.13795
21
158
0
LINE
8
bottom_outsideCutPath
10
392.13795
20
158
11
392.13795
21
163
0
LINE
8
bottom_outsideCutPath
10
392.13795
20
163
11
364.41385
21
163
0
LINE
8
bottom_outsideCutPath
10
364.41385
20
163
11
364.41385
21
158
0
LINE
8
bottom_outsideCutPath
10
364.41385
20
158
11
336.68975
21
158
0
LINE
8
bottom_outsideCutPath
10
336.68975
20
158
11
331
21
158
0
LINE
8
bottom_labelLayer
10
355.9530492
20
73.2035293
11
355.7655492
21
73.2035293
0
LINE
8
bottom_labelLayer
10
355.7655492
20
73.2035293
11
355.2186742
21
71.0004043
0
LINE
8
bottom_labelLayer
10
355.2186742
20
71.0004043
11
353.3592992
21
71.0004043
0
LINE
8
bottom_labelLayer
10
353.3592992
20
71.0004043
11
353.3592992
21
95.3129043
0
LINE
8
bottom_labelLayer
10
353.3592992
20
95.3129043
11
355.9530492
21
95.3129043
0
LINE
8
bottom_labelLayer
10
355.9530492
20
95.3129043
11
355.9530492
21
89.4066543
0
LINE
8
bottom_labelLayer
10
355.8280492
20
85.8441543
11
355.9530492
21
85.8441543
0
ARC
8
bottom_labelLayer
10
361.4058582
20
80.4796344
40
7.9274018
50
74.2393352
51
90.5623787
0
ARC
8
bottom_labelLayer
10
361.9300443
20
82.4026357
40
5.9343439
50
38.5631342
51
74.0670358
0
ARC
8
bottom_labelLayer
10
360.5810743
20
81.3537345
40
7.6430213
50
16.4709337
51
38.4075242
0
ARC
8
bottom_labelLayer
10
356.6948985
20
80.1351455
40
11.7154182
50
5.1338441
51
16.7973335
0
ARC
8
bottom_labelLayer
10
351.7889457
20
79.6140015
40
16.6485161
50
359.8779225
51
5.4093567
0
ARC
8
bottom_labelLayer
10
353.2299241
20
79.4888085
40
15.2077648
50
350.6562802
51
0.3380283
0
ARC
8
bottom_labelLayer
10
358.5316011
20
78.5870517
40
9.8300664
50
335.8305933
51
350.82548
0
ARC
8
bottom_labelLayer
10
360.8637066
20
77.5804828
40
7.290362
50
321.3161535
51
335.5436092
0
ARC
8
bottom_labelLayer
10
361.7552947
20
76.8539752
40
6.1403066
50
274.0640039
51
321.4081023
0
ARC
8
bottom_labelLayer
10
361.3399368
20
79.4850053
40
8.7971091
50
269.9225756
51
275.5481643
0
ARC
8
bottom_labelLayer
10
361.2843091
20
78.5551903
40
7.8674076
50
255.7755428
51
270.3185463
0
ARC
8
bottom_labelLayer
10
361.0597945
20
77.5576917
40
6.8453789
50
245.9801503
51
255.5455733
0
ARC
8
bottom_labelLayer
10
360.6249344
20
76.5464237
40
5.7446893
50
215.5850224
51
245.8361633
0
ARC
8
bottom_labelLayer
10
301.8757316
20
89.3609316
40
54.0773368
50
358.1123153
51
0.0484439
0
ARC
8
bottom_labelLayer
10
316.9259222
20
88.8556529
40
39.0186708
50
355.723868
51
358.1258923
0
ARC
8
bottom_labelLayer
10
323.5108713
20
88.4036499
40
32.4183744
50
355.4716705
51
355.6527289
0
ARC
8
bottom_labelLayer
10
360.7902801
20
82.471023
40
5.8971873
50
95.1835159
51
145.110899
0
ARC
8
bottom_labelLayer
10
361.3086186
20
79.5480817
40
8.8585939
50
89.8743264
51
96.8145477
0
ARC
8
bottom_labelLayer
10
360.8987485
20
78.946326
40
7.2886556
50
89.5731409
51
100.7324315
0
ARC
8
bottom_labelLayer
10
360.3591833
20
81.6723899
40
4.5098541
50
100.4469369
51
119.6700722
0
ARC
8
bottom_labelLayer
10
359.8588469
20
82.607829
40
3.4495073
50
120.1402955
51
142.4248869
0
ARC
8
bottom_labelLayer
10
360.6866112
20
82.0602361
40
4.4400424
50
143.3382198
51
161.2559897
0
ARC
8
bottom_labelLayer
10
364.1481851
20
80.8312612
40
8.1131096
50
160.892635
51
171.23343
0
ARC
8
bottom_labelLayer
10
369.9268526
20
79.8990234
40
13.9664084
50
171.0667708
51
177.8456917
0
ARC
8
bottom_labelLayer
10
375.9366316
20
79.5933645
40
19.983588
50
177.6176679
51
180.0425346
0
ARC
8
bottom_labelLayer
10
373.1025989
20
79.5115648
40
17.1496804
50
179.776276
51
185.707528
0
ARC
8
bottom_labelLayer
10
366.3410636
20
78.8148856
40
10.3524013
50
185.5924792
51
194.2050787
0
ARC
8
bottom_labelLayer
10
362.0097415
20
77.6907564
40
5.8777232
50
193.9430541
51
208.0218281
0
ARC
8
bottom_labelLayer
10
360.2572444
20
76.7992137
40
3.9119884
50
208.5536545
51
217.560562
0
ARC
8
bottom_labelLayer
10
360.1144754
20
76.7398338
40
3.7628284
50
218.1690494
51
253.8047161
0
ARC
8
bottom_labelLayer
10
360.812408
20
78.8916348
40
6.0243082
50
253.1382528
51
266.848306
0
ARC
8
bottom_labelLayer
10
361.0081183
20
81.1996832
40
8.3399072
50
266.3775736
51
270.0510504
0
ARC
8
bottom_labelLayer
10
361.0708777
20
78.0300992
40
5.1706159
50
269.3868904
51
285.8630631
0
ARC
8
bottom_labelLayer
10
361.4550212
20
76.6417494
40
3.7301495
50
286.0162948
51
326.8497348
0
ARC
8
bottom_labelLayer
10
359.6009431
20
77.8700085
40
5.9541315
50
326.7105035
51
343.666179
0
ARC
8
bottom_labelLayer
10
356.1302048
20
78.9305522
40
9.5831395
50
343.4171449
51
353.6369096
0
ARC
8
bottom_labelLayer
10
350.8880084
20
79.5525735
40
14.8620259
50
353.4934835
51
0.2205391
0
ARC
8
bottom_labelLayer
10
350.4259622
20
79.6718091
40
15.3240875
50
359.7680738
51
6.3095228
0
ARC
8
bottom_labelLayer
10
356.1982208
20
80.3342107
40
9.5140258
50
6.1648633
51
16.0396359
0
ARC
8
bottom_labelLayer
10
359.9166309
20
81.4300242
40
5.6376534
50
15.7779444
51
32.0151211
0
ARC
8
bottom_labelLayer
10
361.0761901
20
82.0940651
40
4.3027274
50
32.7034044
51
35.5242559
0
ARC
8
bottom_labelLayer
10
361.5002527
20
82.395472
40
3.7824642
50
35.5408363
51
79.8011216
0
ARC
8
bottom_labelLayer
10
360.9923065
20
80.2360866
40
5.998821
50
78.6781419
51
90.3749565
0
ARC
8
bottom_labelLayer
10
374.3524568
20
79.488207
40
13.3977718
50
349.176188
51
0.3862678
0
ARC
8
bottom_labelLayer
10
378.8631683
20
78.5889866
40
8.7985192
50
330.2506996
51
349.4116502
0
ARC
8
bottom_labelLayer
10
380.2513234
20
77.8674795
40
7.2355691
50
318.1439863
51
329.7566122
0
ARC
8
bottom_labelLayer
10
380.5018798
20
77.6666843
40
6.9149884
50
278.8959149
51
317.9979138
0
ARC
8
bottom_labelLayer
10
379.8563191
20
80.759632
40
10.0718233
50
269.7502934
51
279.8033146
0
ARC
8
bottom_labelLayer
10
379.7516236
20
79.016946
40
8.3292637
50
253.5436996
51
270.418242
0
ARC
8
bottom_labelLayer
10
379.4743582
20
77.9444115
40
7.222219
50
238.811551
51
253.2428343
0
ARC
8
bottom_labelLayer
10
379.3848765
20
77.7644641
40
7.0219609
50
207.794705
51
238.6757941
0
ARC
8
bottom_labelLayer
10
380.6687997
20
78.5508157
40
8.5249809
50
205.6560088
51
208.4461512
0
ARC
8
bottom_labelLayer
10
381.6578921
20
78.9629448
40
9.5951645
50
188.9102403
51
205.3171505
0
ARC
8
bottom_labelLayer
10
384.9909472
20
79.5274559
40
12.9754985
50
179.7744751
51
189.0932796
0
ARC
8
bottom_labelLayer
10
385.4826044
20
79.669746
40
13.4673642
50
169.2442988
51
180.3880767
0
ARC
8
bottom_labelLayer
10
380.909188
20
80.5737447
40
8.8056564
50
150.7111466
51
169.4695478
0
ARC
8
bottom_labelLayer
10
379.4492235
20
81.3234884
40
7.165797
50
138.1759486
51
150.2287304
0
ARC
8
bottom_labelLayer
10
379.2063607
20
81.5098572
40
6.8605763
50
99.1759364
51
137.9832752
0
ARC
8
bottom_labelLayer
10
379.8747895
20
78.3641612
40
10.0738528
50
89.7326283
51
100.075985
0
ARC
8
bottom_labelLayer
10
380.0083858
20
79.7226742
40
8.7156602
50
73.522274
51
90.5692205
0
ARC
8
bottom_labelLayer
10
380.5195081
20
81.5797165
40
6.7900093
50
41.1445702
51
73.2133843
0
ARC
8
bottom_labelLayer
10
379.5438196
20
80.7411257
40
8.0765201
50
13.5014328
51
41.0703447
0
ARC
8
bottom_labelLayer
10
375.7742459
20
79.7546787
40
11.9724849
50
1.1277224
51
13.8799994
0
ARC
8
bottom_labelLayer
10
372.5276241
20
79.5806886
40
15.2223001
50
359.9918724
51
1.5419811
0
ARC
8
bottom_labelLayer
10
387.8375631
20
79.5111234
40
13.1346869
50
179.7059623
51
187.9160855
0
ARC
8
bottom_labelLayer
10
383.0201711
20
78.8191076
40
8.2679237
50
187.7639215
51
200.0976915
0
ARC
8
bottom_labelLayer
10
380.3662886
20
77.8467207
40
5.4415079
50
200.0845888
51
216.9131673
0
ARC
8
bottom_labelLayer
10
379.3971856
20
77.1547354
40
4.2511531
50
217.3009586
51
261.7099055
0
ARC
8
bottom_labelLayer
10
379.8470784
20
79.3015722
40
6.4418533
50
260.5033065
51
270.2476693
0
ARC
8
bottom_labelLayer
10
379.9329491
20
78.8841111
40
6.0246112
50
269.4481579
51
284.725574
0
ARC
8
bottom_labelLayer
10
380.4098813
20
77.1153242
40
4.1927061
50
284.5662369
51
322.6333842
0
ARC
8
bottom_labelLayer
10
379.2947902
20
77.9209285
40
5.5679966
50
323.0089203
51
342.6390542
0
ARC
8
bottom_labelLayer
10
376.1053769
20
78.9633201
40
8.923257
50
342.3615752
51
353.7537619
0
ARC
8
bottom_labelLayer
10
371.3999387
20
79.5304999
40
13.6625699
50
353.5363074
51
0.2014182
0
ARC
8
bottom_labelLayer
10
372.1208659
20
79.6445831
40
12.9417269
50
359.7075645
51
7.8972626
0
ARC
8
bottom_labelLayer
10
376.8604993
20
80.3240514
40
8.153716
50
7.7439919
51
20.0690249
0
ARC
8
bottom_labelLayer
10
379.5015965
20
81.2932356
40
5.3404107
50
20.0257074
51
37.4350516
0
ARC
8
bottom_labelLayer
10
380.3778929
20
81.9150418
40
4.2667991
50
37.957772
51
80.4006157
0
ARC
8
bottom_labelLayer
10
379.8799212
20
79.6931427
40
6.5417372
50
79.3453391
51
90.3174716
0
ARC
8
bottom_labelLayer
10
379.7877163
20
80.0622051
40
6.1728278
50
89.4805961
51
103.8804951
0
ARC
8
bottom_labelLayer
10
379.2690396
20
82.0373281
40
4.1310593
50
103.4685219
51
142.3118886
0
ARC
8
bottom_labelLayer
10
380.2773877
20
81.3281865
40
5.3628437
50
142.9025775
51
162.3749681
0
ARC
8
bottom_labelLayer
10
383.4546994
20
80.2693546
40
8.7117348
50
162.0653135
51
173.1674816
0
ARC
8
bottom_labelLayer
10
388.4089298
20
79.6374696
40
13.7060074
50
173.0086074
51
180.2463911
0
LINE
8
bottom_labelLayer
10
400.1717992
20
73.1410293
11
400.1717992
21
71.1566543
0
LINE
8
bottom_labelLayer
10
392.4842992
20
75.9222793
11
392.4842992
21
86.1097793
0
LINE
8
bottom_labelLayer
10
392.4842992
20
86.1097793
11
390.0311742
21
86.1097793
0
LINE
8
bottom_labelLayer
10
390.0311742
20
86.1097793
11
390.0311742
21
87.3597793
0
LINE
8
bottom_labelLayer
10
390.0311742
20
87.3597793
11
392.4842992
21
88.4379043
0
LINE
8
bottom_labelLayer
10
392.4842992
20
88.4379043
11
393.5780492
21
92.0941543
0
LINE
8
bottom_labelLayer
10
393.5780492
20
92.0941543
11
395.0780492
21
92.0941543
0
LINE
8
bottom_labelLayer
10
395.0780492
20
92.0941543
11
395.0780492
21
88.1254043
0
LINE
8
bottom_labelLayer
10
395.0780492
20
88.1254043
11
400.0467992
21
88.1254043
0
LINE
8
bottom_labelLayer
10
400.0467992
20
88.1254043
11
400.0467992
21
86.1097793
0
LINE
8
bottom_labelLayer
10
400.0467992
20
86.1097793
11
395.0780492
21
86.1097793
0
LINE
8
bottom_labelLayer
10
395.0780492
20
86.1097793
11
395.0780492
21
76.0316543
0
ARC
8
bottom_labelLayer
10
397.8458368
20
81.3467391
40
8.5182283
50
269.8803557
51
278.3028348
0
ARC
8
bottom_labelLayer
10
397.9260118
20
80.6901417
40
7.8569506
50
278.4157311
51
279.0078597
0
ARC
8
bottom_labelLayer
10
396.9710895
20
86.790382
40
14.0314731
50
278.9589847
51
280.5103927
0
ARC
8
bottom_labelLayer
10
397.8819507
20
81.9029541
40
9.0598944
50
280.4848184
51
282.6267943
0
ARC
8
bottom_labelLayer
10
398.6808936
20
78.3534758
40
5.4216142
50
282.5876328
51
285.5795013
0
ARC
8
bottom_labelLayer
10
399.0821045
20
76.8780404
40
3.8926452
50
285.7236818
51
286.2564339
0
ARC
8
bottom_labelLayer
10
399.081316
20
73.4630867
40
2.5512318
50
287.9888418
51
295.3048245
0
ARC
8
bottom_labelLayer
10
398.4659872
20
75.3247351
40
4.5119215
50
283.3069379
51
288.1198071
0
ARC
8
bottom_labelLayer
10
397.8159358
20
78.036309
40
7.3003179
50
280.0070126
51
283.3735067
0
ARC
8
bottom_labelLayer
10
397.3810085
20
80.3965784
40
9.7002731
50
279.1863095
51
280.1143329
0
ARC
8
bottom_labelLayer
10
397.1140367
20
81.9151307
40
11.2419897
50
275.5260312
51
279.2939395
0
ARC
8
bottom_labelLayer
10
397.4148854
20
78.7727894
40
8.0852819
50
270.8932486
51
275.5483578
0
ARC
8
bottom_labelLayer
10
397.4526836
20
77.3373152
40
6.6494109
50
270.0031495
51
270.7604193
0
ARC
8
bottom_labelLayer
10
397.3483827
20
77.4615872
40
6.7744915
50
253.7847911
51
270.8852595
0
ARC
8
bottom_labelLayer
10
396.545786
20
74.7244284
40
3.9221012
50
190.3817689
51
253.8772402
0
ARC
8
bottom_labelLayer
10
400.6366063
20
75.8305153
40
8.1528237
50
179.3550946
51
192.8477703
0
ARC
8
bottom_labelLayer
10
400.3009105
20
75.9989898
40
5.2229635
50
179.6416684
51
189.7505803
0
ARC
8
bottom_labelLayer
10
398.4571014
20
75.6701256
40
3.3501141
50
189.5479664
51
205.7873509
0
ARC
8
bottom_labelLayer
10
397.6993729
20
75.3207141
40
2.5158837
50
206.1294379
51
221.4083833
0
ARC
8
bottom_labelLayer
10
397.6144102
20
75.2562468
40
2.4095331
50
221.5949234
51
262.350509
0
ARC
8
bottom_labelLayer
10
397.8164734
20
76.2953214
40
3.4668116
50
261.3265906
51
270.1913121
0
LINE
8
bottom_labelLayer
10
411.4686742
20
73.1410293
11
411.4686742
21
71.1566543
0
LINE
8
bottom_labelLayer
10
403.7811742
20
75.9222793
11
403.7811742
21
86.1097793
0
LINE
8
bottom_labelLayer
10
403.7811742
20
86.1097793
11
401.3280492
21
86.1097793
0
LINE
8
bottom_labelLayer
10
401.3280492
20
86.1097793
11
401.3280492
21
87.3597793
0
LINE
8
bottom_labelLayer
10
401.3280492
20
87.3597793
11
403.7811742
21
88.4379043
0
LINE
8
bottom_labelLayer
10
403.7811742
20
88.4379043
11
404.8749242
21
92.0941543
0
LINE
8
bottom_labelLayer
10
404.8749242
20
92.0941543
11
406.3749242
21
92.0941543
0
LINE
8
bottom_labelLayer
10
406.3749242
20
92.0941543
11
406.3749242
21
88.1254043
0
LINE
8
bottom_labelLayer
10
406.3749242
20
88.1254043
11
411.3436742
21
88.1254043
0
LINE
8
bottom_labelLayer
10
411.3436742
20
88.1254043
11
411.3436742
21
86.1097793
0
LINE
8
bottom_labelLayer
10
411.3436742
20
86.1097793
11
406.3749242
21
86.1097793
0
LINE
8
bottom_labelLayer
10
406.3749242
20
86.1097793
11
406.3749242
21
76.0316543
0
ARC
8
bottom_labelLayer
10
409.1427118
20
81.3467391
40
8.5182283
50
269.8803557
51
278.3028348
0
ARC
8
bottom_labelLayer
10
409.2228868
20
80.6901417
40
7.8569506
50
278.4157311
51
279.0078597
0
ARC
8
bottom_labelLayer
10
408.2679645
20
86.790382
40
14.0314731
50
278.9589847
51
280.5103927
0
ARC
8
bottom_labelLayer
10
409.1788257
20
81.9029541
40
9.0598944
50
280.4848184
51
282.6267943
0
ARC
8
bottom_labelLayer
10
409.9777686
20
78.3534758
40
5.4216142
50
282.5876328
51
285.5795013
0
ARC
8
bottom_labelLayer
10
410.3789795
20
76.8780404
40
3.8926452
50
285.7236818
51
286.2564339
0
ARC
8
bottom_labelLayer
10
410.378191
20
73.4630867
40
2.5512318
50
287.9888418
51
295.3048245
0
ARC
8
bottom_labelLayer
10
409.7628622
20
75.3247351
40
4.5119215
50
283.3069379
51
288.1198071
0
ARC
8
bottom_labelLayer
10
409.1128108
20
78.036309
40
7.3003179
50
280.0070126
51
283.3735067
0
ARC
8
bottom_labelLayer
10
408.6778835
20
80.3965784
40
9.7002731
50
279.1863095
51
280.1143329
0
ARC
8
bottom_labelLayer
10
408.4109117
20
81.9151307
40
11.2419897
50
275.5260312
51
279.2939395
0
ARC
8
bottom_labelLayer
10
408.7117604
20
78.7727894
40
8.0852819
50
270.8932486
51
275.5483578
0
ARC
8
bottom_labelLayer
10
408.7495586
20
77.3373152
40
6.6494109
50
270.0031495
51
270.7604193
0
ARC
8
bottom_labelLayer
10
408.6452577
20
77.4615872
40
6.7744915
50
253.7847911
51
270.8852595
0
ARC
8
bottom_labelLayer
10
407.842661
20
74.7244284
40
3.9221012
50
190.3817689
51
253.8772402
0
ARC
8
bottom_labelLayer
10
411.9334813
20
75.8305153
40
8.1528237
50
179.3550946
51
192.8477703
0
ARC
8
bottom_labelLayer
10
411.5977855
20
75.9989898
40
5.2229635
50
179.6416684
51
189.7505803
0
ARC
8
bottom_labelLayer
10
409.7539764
20
75.6701256
40
3.3501141
50
189.5479664
51
205.7873509
0
ARC
8
bottom_labelLayer
10
408.9962479
20
75.3207141
40
2.5158837
50
206.1294379
51
221.4083833
0
ARC
8
bottom_labelLayer
10
408.9112852
20
75.2562468
40
2.4095331
50
221.5949234
51
262.350509
0
ARC
8
bottom_labelLayer
10
409.1133484
20
76.2953214
40
3.4668116
50
261.3265906
51
270.1913121
0
ARC
8
bottom_labelLayer
10
416.2743318
20
79.488207
40
13.3977718
50
349.176188
51
0.3862678
0
ARC
8
bottom_labelLayer
10
420.7850433
20
78.5889866
40
8.7985192
50
330.2506996
51
349.4116502
0
ARC
8
bottom_labelLayer
10
422.1731984
20
77.8674795
40
7.2355691
50
318.1439863
51
329.7566122
0
ARC
8
bottom_labelLayer
10
422.4237548
20
77.6666843
40
6.9149884
50
278.8959149
51
317.9979138
0
ARC
8
bottom_labelLayer
10
421.7781941
20
80.759632
40
10.0718233
50
269.7502934
51
279.8033146
0
ARC
8
bottom_labelLayer
10
421.6734986
20
79.016946
40
8.3292637
50
253.5436996
51
270.418242
0
ARC
8
bottom_labelLayer
10
421.3962332
20
77.9444115
40
7.222219
50
238.811551
51
253.2428343
0
ARC
8
bottom_labelLayer
10
421.3067515
20
77.7644641
40
7.0219609
50
207.794705
51
238.6757941
0
ARC
8
bottom_labelLayer
10
422.5906747
20
78.5508157
40
8.5249809
50
205.6560088
51
208.4461512
0
ARC
8
bottom_labelLayer
10
423.5797671
20
78.9629448
40
9.5951645
50
188.9102403
51
205.3171505
0
ARC
8
bottom_labelLayer
10
426.9128222
20
79.5274559
40
12.9754985
50
179.7744751
51
189.0932796
0
ARC
8
bottom_labelLayer
10
427.4044794
20
79.669746
40
13.4673642
50
169.2442988
51
180.3880767
0
ARC
8
bottom_labelLayer
10
422.831063
20
80.5737447
40
8.8056564
50
150.7111466
51
169.4695478
0
ARC
8
bottom_labelLayer
10
421.3710985
20
81.3234884
40
7.165797
50
138.1759486
51
150.2287304
0
ARC
8
bottom_labelLayer
10
421.1282357
20
81.5098572
40
6.8605763
50
99.1759364
51
137.9832752
0
ARC
8
bottom_labelLayer
10
421.7966645
20
78.3641612
40
10.0738528
50
89.7326283
51
100.075985
0
ARC
8
bottom_labelLayer
10
421.9302608
20
79.7226742
40
8.7156602
50
73.522274
51
90.5692205
0
ARC
8
bottom_labelLayer
10
422.4413831
20
81.5797165
40
6.7900093
50
41.1445702
51
73.2133843
0
ARC
8
bottom_labelLayer
10
421.4656946
20
80.7411257
40
8.0765201
50
13.5014328
51
41.0703447
0
ARC
8
bottom_labelLayer
10
417.6961209
20
79.7546787
40
11.9724849
50
1.1277224
51
13.8799994
0
ARC
8
bottom_labelLayer
10
414.4494991
20
79.5806886
40
15.2223001
50
359.9918724
51
1.5419811
0
ARC
8
bottom_labelLayer
10
429.7594381
20
79.5111234
40
13.1346869
50
179.7059623
51
187.9160855
0
ARC
8
bottom_labelLayer
10
424.9420461
20
78.8191076
40
8.2679237
50
187.7639215
51
200.0976915
0
ARC
8
bottom_labelLayer
10
422.2881636
20
77.8467207
40
5.4415079
50
200.0845888
51
216.9131673
0
ARC
8
bottom_labelLayer
10
421.3190606
20
77.1547354
40
4.2511531
50
217.3009586
51
261.7099055
0
ARC
8
bottom_labelLayer
10
421.7689534
20
79.3015722
40
6.4418533
50
260.5033065
51
270.2476693
0
ARC
8
bottom_labelLayer
10
421.8548241
20
78.8841111
40
6.0246112
50
269.4481579
51
284.725574
0
ARC
8
bottom_labelLayer
10
422.3317563
20
77.1153242
40
4.1927061
50
284.5662369
51
322.6333842
0
ARC
8
bottom_labelLayer
10
421.2166652
20
77.9209285
40
5.5679966
50
323.0089203
51
342.6390542
0
ARC
8
bottom_labelLayer
10
418.0272519
20
78.9633201
40
8.923257
50
342.3615752
51
353.7537619
0
ARC
8
bottom_labelLayer
10
413.3218137
20
79.5304999
40
13.6625699
50
353.5363074
51
0.2014182
0
ARC
8
bottom_labelLayer
10
414.0427409
20
79.6445831
40
12.9417269
50
359.7075645
51
7.8972626
0
ARC
8
bottom_labelLayer
10
418.7823743
20
80.3240514
40
8.153716
50
7.7439919
51
20.0690249
0
ARC
8
bottom_labelLayer
10
421.4234715
20
81.2932356
40
5.3404107
50
20.0257074
51
37.4350516
0
ARC
8
bottom_labelLayer
10
422.2997679
20
81.9150418
40
4.2667991
50
37.957772
51
80.4006157
0
ARC
8
bottom_labelLayer
10
421.8017962
20
79.6931427
40
6.5417372
50
79.3453391
51
90.3174716
0
ARC
8
bottom_labelLayer
10
421.7095913
20
80.0622051
40
6.1728278
50
89.4805961
51
103.8804951
0
ARC
8
bottom_labelLayer
10
421.1909146
20
82.0373281
40
4.1310593
50
103.4685219
51
142.3118886
0
ARC
8
bottom_labelLayer
10
422.1992627
20
81.3281865
40
5.3628437
50
142.9025775
51
162.3749681
0
ARC
8
bottom_labelLayer
10
425.3765744
20
80.2693546
40
8.7117348
50
162.0653135
51
173.1674816
0
ARC
8
bottom_labelLayer
10
430.3308048
20
79.6374696
40
13.7060074
50
173.0086074
51
180.2463911
0
LINE
8
bottom_labelLayer
10
458.6405492
20
71.0004043
11
456.0467992
21
71.0004043
0
LINE
8
bottom_labelLayer
10
456.0467992
20
71.0004043
11
456.0467992
21
82.1410293
0
LINE
8
bottom_labelLayer
10
447.7186742
20
80.5629043
11
447.7186742
21
71.0004043
0
LINE
8
bottom_labelLayer
10
447.7186742
20
71.0004043
11
445.1249242
21
71.0004043
0
LINE
8
bottom_labelLayer
10
445.1249242
20
71.0004043
11
445.1249242
21
82.1410293
0
LINE
8
bottom_labelLayer
10
436.8124242
20
79.9847793
11
436.8124242
21
71.0004043
0
LINE
8
bottom_labelLayer
10
436.8124242
20
71.0004043
11
434.2186742
21
71.0004043
0
LINE
8
bottom_labelLayer
10
434.2186742
20
71.0004043
11
434.2186742
21
88.1254043
0
LINE
8
bottom_labelLayer
10
434.2186742
20
88.1254043
11
436.3280492
21
88.1254043
0
LINE
8
bottom_labelLayer
10
436.3280492
20
88.1254043
11
436.7499242
21
85.7816543
0
LINE
8
bottom_labelLayer
10
436.7499242
20
85.7816543
11
436.8749242
21
85.7816543
0
LINE
8
bottom_labelLayer
10
447.1874242
20
85.5316543
11
447.3124242
21
85.5316543
0
LINE
8
bottom_labelLayer
10
458.6405492
20
82.1722793
11
458.6405492
21
71.0004043
0
ARC
8
bottom_labelLayer
10
448.3951528
20
82.1817854
40
7.6517549
50
359.69482
51
8.1471517
0
ARC
8
bottom_labelLayer
10
451.2135265
20
82.5988731
40
4.8027368
50
7.9864597
51
20.7949584
0
ARC
8
bottom_labelLayer
10
452.7714515
20
83.1956572
40
3.1344304
50
20.7071096
51
40.0217576
0
ARC
8
bottom_labelLayer
10
453.1132236
20
83.4192731
40
2.7293302
50
41.0408156
51
73.1792551
0
ARC
8
bottom_labelLayer
10
452.618681
20
81.9235215
40
4.3043867
50
72.6395479
51
86.2568071
0
ARC
8
bottom_labelLayer
10
452.460253
20
80.2140345
40
6.0207492
50
85.8144157
51
90.0685544
0
ARC
8
bottom_labelLayer
10
452.402044
20
79.560848
40
6.6741262
50
89.5621283
51
101.2961655
0
ARC
8
bottom_labelLayer
10
451.899369
20
81.9673254
40
4.2158584
50
101.0032199
51
121.7840582
0
ARC
8
bottom_labelLayer
10
451.5172146
20
82.6495797
40
3.4348007
50
122.359733
51
140.2884134
0
ARC
8
bottom_labelLayer
10
452.204753
20
82.1454523
40
4.2861116
50
140.9765239
51
161.1699525
0
ARC
8
bottom_labelLayer
10
454.7948684
20
81.2236868
40
7.0352097
50
160.8731653
51
172.5272511
0
ARC
8
bottom_labelLayer
10
459.1229279
20
80.6259504
40
11.4042873
50
172.3776568
51
180.1829518
0
ARC
8
bottom_labelLayer
10
462.2343425
20
80.5628112
40
14.5156684
50
179.8945154
51
179.9996326
0
ARC
8
bottom_labelLayer
10
437.4732778
20
82.1817854
40
7.6517549
50
359.69482
51
8.1471517
0
ARC
8
bottom_labelLayer
10
440.2916515
20
82.5988731
40
4.8027368
50
7.9864597
51
20.7949584
0
ARC
8
bottom_labelLayer
10
441.8495765
20
83.1956572
40
3.1344304
50
20.7071096
51
40.0217576
0
ARC
8
bottom_labelLayer
10
442.1984564
20
83.424186
40
2.7207437
50
41.0610638
51
72.8993623
0
ARC
8
bottom_labelLayer
10
441.694543
20
81.9239808
40
4.3029911
50
72.3601034
51
85.9561754
0
ARC
8
bottom_labelLayer
10
441.5239632
20
80.1611022
40
6.073683
50
85.5237625
51
90.0793736
0
ARC
8
bottom_labelLayer
10
441.4657759
20
79.7928485
40
6.442123
50
89.5573156
51
101.4832211
0
ARC
8
bottom_labelLayer
10
440.9713207
20
82.1094759
40
4.0734979
50
101.1546309
51
123.0655644
0
ARC
8
bottom_labelLayer
10
440.635215
20
82.6949571
40
3.3996683
50
123.7020489
51
142.3022241
0
ARC
8
bottom_labelLayer
10
441.4225198
20
82.160838
40
4.3496307
50
143.0769755
51
161.3913884
0
ARC
8
bottom_labelLayer
10
444.5960764
20
81.0400077
40
7.7150932
50
161.0234325
51
171.4469191
0
ARC
8
bottom_labelLayer
10
449.8498715
20
80.2170152
40
13.0328987
50
171.3041917
51
178.3501597
0
ARC
8
bottom_labelLayer
10
454.8709024
20
79.9927652
40
18.0584799
50
178.0976184
51
180.0253377
0
ARC
8
bottom_labelLayer
10
441.2690882
20
83.1976688
40
5.097613
50
117.1209595
51
149.5423684
0
ARC
8
bottom_labelLayer
10
441.7893427
20
82.272981
40
6.1579364
50
93.8343318
51
117.5072115
0
ARC
8
bottom_labelLayer
10
441.9330387
20
81.0001478
40
7.4377578
50
89.9662174
51
94.2831172
0
ARC
8
bottom_labelLayer
10
442.0191317
20
79.9463379
40
8.4919595
50
77.5572275
51
90.5512942
0
ARC
8
bottom_labelLayer
10
442.8070911
20
83.3355031
40
5.0127762
50
52.7027152
51
78.0053691
0
ARC
8
bottom_labelLayer
10
443.087828
20
83.857823
40
4.4281371
50
22.2097884
51
51.4970546
0
ARC
8
bottom_labelLayer
10
452.0111156
20
82.8388239
40
5.4156289
50
119.4041768
51
150.1828833
0
ARC
8
bottom_labelLayer
10
452.6117297
20
81.9254598
40
6.5066436
50
118.2583281
51
120.0629478
0
ARC
8
bottom_labelLayer
10
452.610024
20
81.8586927
40
6.5647296
50
95.8635129
51
117.9693211
0
ARC
8
bottom_labelLayer
10
452.8322007
20
80.2521698
40
8.1857424
50
89.9196916
51
96.2617392
0
ARC
8
bottom_labelLayer
10
452.9035287
20
79.4220842
40
9.0160188
50
79.9361037
51
90.3803718
0
ARC
8
bottom_labelLayer
10
453.5042779
20
82.6756802
40
5.7075517
50
62.9723272
51
80.1665078
0
ARC
8
bottom_labelLayer
10
454.1322876
20
83.9641124
40
4.2745317
50
44.2289876
51
62.622918
0
ARC
8
bottom_labelLayer
10
453.9455017
20
83.8815942
40
4.4665003
50
19.5612041
51
43.3161261
0
ARC
8
bottom_labelLayer
10
451.232798
20
82.8627007
40
7.3639603
50
7.504182
51
19.9645309
0
ARC
8
bottom_labelLayer
10
446.7440043
20
82.2323392
40
11.8966966
50
359.7107439
51
7.6907232
0
ENDSEC
0
EOF